<svg xmlns="http://www.w3.org/2000/svg" width="160" height="170" viewBox="0 0 160 170" fill="none">
  <path d="M159.998 87.1952C159.961 88.4179 159.97 89.6427 159.876 90.8591C159.754 92.4049 159.561 93.9465 159.372 95.486C159.22 96.7425 159.066 98.0011 158.851 99.2471C158.618 100.599 158.341 101.944 158.031 103.278C157.328 106.303 156.453 109.282 155.36 112.19C154.642 114.103 153.839 115.987 153.022 117.862C152.45 119.174 151.852 120.483 151.154 121.733C149.936 123.911 148.704 126.086 147.345 128.178C145.989 130.267 144.51 132.282 143.01 134.273C142.052 135.544 140.957 136.712 139.907 137.947C141.214 139.229 142.534 140.553 143.891 141.835C144.255 142.179 144.197 142.355 143.874 142.667C142.447 144.048 141.043 145.453 139.691 146.792C138.656 145.78 137.642 144.788 136.626 143.795C136.311 143.487 135.992 143.18 135.685 142.864C135.462 142.634 135.274 142.644 135.038 142.859C134.247 143.588 133.467 144.329 132.642 145.016C131.121 146.281 129.601 147.554 128.015 148.739C126.5 149.873 124.925 150.937 123.329 151.957C121.835 152.912 120.294 153.798 118.745 154.662C117.41 155.406 116.045 156.098 114.669 156.77C111.004 158.556 107.198 160.013 103.285 161.16C100.538 161.967 97.7303 162.588 94.9294 163.204C93.5192 163.515 92.0684 163.656 90.6283 163.825C88.9482 164.024 87.2616 164.178 85.5751 164.334C84.9022 164.395 84.225 164.41 83.5478 164.446C83.5092 164.615 83.4363 164.784 83.4363 164.953C83.4278 166.636 83.432 168.317 83.432 170H76.658C76.658 168.296 76.6601 166.592 76.6537 164.887C76.6537 164.742 76.5851 164.598 76.5508 164.454C75.5072 164.383 74.4635 164.311 73.422 164.237C72.4984 164.171 71.5704 164.14 70.6532 164.024C69.3331 163.857 68.0152 163.656 66.7058 163.422C64.8971 163.099 63.0798 162.799 61.2947 162.368C57.9044 161.553 54.572 160.548 51.3146 159.293C48.1794 158.085 45.132 156.706 42.1682 155.137C39.5173 153.733 36.9585 152.185 34.4898 150.489C32.1346 148.872 29.8544 147.161 27.7092 145.277C27.2764 144.897 26.8242 144.536 26.3056 144.103C24.9169 145.474 23.5689 146.804 22.2338 148.124C20.7294 146.642 19.2057 145.14 17.6756 143.632C18.91 142.416 20.1658 141.176 21.4238 139.941C21.5995 139.77 21.7709 139.637 21.5202 139.367C20.7016 138.486 19.8872 137.599 19.1029 136.687C18.1299 135.555 17.1334 134.436 16.2462 133.238C14.9197 131.447 13.621 129.629 12.4209 127.756C11.1887 125.834 10.0465 123.851 8.94282 121.854C8.21205 120.53 7.57558 119.148 6.97339 117.761C6.15047 115.871 5.35541 113.968 4.62678 112.042C3.48669 109.027 2.59305 105.935 1.92229 102.784C1.61369 101.331 1.29224 99.8785 1.03722 98.4172C0.846493 97.3148 0.745771 96.1977 0.615047 95.0848C0.473607 93.8895 0.306452 92.6942 0.216445 91.4948C0.132867 90.4114 0.139296 89.3217 0.0985789 88.2342C0.0964359 88.1518 0.0342883 88.0695 0 87.9871C0 86.4708 0 84.9525 0 83.4362C0.0342883 83.3539 0.0964359 83.2736 0.0985789 83.1891C0.139296 82.1016 0.132867 81.0119 0.216445 79.9286C0.308595 78.7291 0.471464 77.5338 0.61719 76.3386C0.743628 75.2932 0.857208 74.2437 1.03508 73.2068C1.29438 71.6926 1.53655 70.1722 1.91157 68.6834C2.56091 66.0986 3.24668 63.5222 4.02888 60.9733C4.52606 59.3493 5.16254 57.757 5.84616 56.1986C6.89409 53.8165 7.9506 51.4323 9.16141 49.1283C10.7858 46.0325 12.6224 43.0485 14.744 40.2504C16.1305 38.4237 17.562 36.6266 19.0022 34.8401C19.6708 34.0101 20.393 33.2182 21.1323 32.4474C21.4152 32.1518 21.3531 32.0018 21.1023 31.759C19.5358 30.2301 17.9799 28.6885 16.3962 27.1257C16.4841 27.0244 16.5634 26.9209 16.6556 26.8301C17.9714 25.5292 19.3 24.2411 20.603 22.9275C20.9287 22.6002 21.143 22.5875 21.4752 22.9191C23.0096 24.4586 24.5633 25.9748 26.057 27.4467C27.8785 26.0002 29.6894 24.5621 31.496 23.1239C34.1962 20.9741 37.1128 19.1327 40.1045 17.42C43.2526 15.6166 46.5078 14.0053 49.9238 12.734C51.5846 12.1153 53.2198 11.4226 54.9085 10.8946C57.2315 10.1703 59.5802 9.51777 61.9461 8.93914C63.6005 8.53368 65.2935 8.27605 66.9779 7.9994C68.6216 7.7291 70.2696 7.48413 71.924 7.29829C73.0963 7.16736 74.2835 7.16103 75.4622 7.07656C75.8329 7.05122 76.1994 6.95619 76.5701 6.89283C76.6022 6.72178 76.6601 6.54861 76.6601 6.37756C76.6708 4.25523 76.6751 2.13289 76.6815 0.0105589C78.936 0.00633533 81.1883 0.00211177 83.4428 0C83.4428 2.1709 83.4385 4.34181 83.4428 6.51271C83.4428 6.66687 83.5156 6.81892 83.5542 6.97308C85.0843 7.07656 86.6273 7.09768 88.1424 7.30252C90.8919 7.6763 93.6307 8.13667 96.3652 8.60126C100.047 9.22635 103.606 10.3202 107.117 11.5514C109.127 12.2567 111.09 13.1036 113.042 13.9588C114.682 14.6789 116.3 15.4561 117.879 16.2945C119.533 17.1708 121.177 18.0831 122.746 19.0968C124.919 20.499 127.045 21.9794 129.143 23.4914C130.276 24.3086 131.311 25.2589 132.391 26.1522C132.865 26.5429 133.332 26.9399 133.823 27.3517C135.31 25.8883 136.772 24.4501 138.233 23.012C138.542 22.7079 138.855 22.7121 139.172 23.0247C140.43 24.2643 141.677 25.5124 142.95 26.7351C143.276 27.0476 143.329 27.2229 142.967 27.5671C141.467 28.9947 140.003 30.4581 138.512 31.9216C139.088 32.5784 139.665 33.2013 140.203 33.8539C141.626 35.5771 143.122 37.2517 144.427 39.0594C146.139 41.433 147.776 43.87 149.296 46.3661C150.513 48.3702 151.552 50.4841 152.592 52.5853C154.289 56.0169 155.633 59.5901 156.691 63.2582C157.36 65.5706 157.913 67.9168 158.44 70.2651C158.819 71.9566 159.1 73.6714 159.364 75.3861C159.529 76.4631 159.606 77.557 159.679 78.6446C159.803 80.5051 159.895 82.3677 160 84.2303C160 85.2165 160 86.2027 160 87.1867L159.998 87.1952ZM78.0916 159.809C78.2524 159.836 78.4131 159.889 78.5738 159.889C79.521 159.897 80.4683 159.897 81.4155 159.889C81.6105 159.889 81.8055 159.836 81.9984 159.809C83.3142 159.737 84.6343 159.686 85.948 159.583C87.2659 159.479 88.5839 159.342 89.8975 159.179C91.3355 159.002 92.7863 158.865 94.1964 158.556C96.6588 158.018 99.1082 157.407 101.538 156.746C104.474 155.948 107.322 154.886 110.104 153.668C111.878 152.888 113.627 152.039 115.337 151.133C117.095 150.204 118.826 149.216 120.508 148.162C123.106 146.536 125.611 144.777 127.934 142.783C129.471 141.464 131.014 140.148 132.501 138.773C133.579 137.776 134.579 136.695 135.595 135.633C135.96 135.253 136.268 134.82 136.603 134.412C137.033 133.931 137.492 133.471 137.893 132.966C139.275 131.219 140.702 129.502 141.988 127.691C144.013 124.838 145.828 121.843 147.35 118.701C148.473 116.378 149.503 114.004 150.436 111.601C151.256 109.485 151.981 107.323 152.572 105.135C153.202 102.808 153.665 100.436 154.132 98.0708C154.437 96.5271 154.649 94.9623 154.846 93.3996C154.998 92.2001 155.105 90.9922 155.152 89.7842C155.221 88.0082 155.221 86.2301 155.249 84.4541C155.221 84.131 155.18 83.8058 155.165 83.4827C155.12 82.4923 155.084 81.4997 155.043 80.5072C154.981 79.6498 154.957 78.7861 154.846 77.9329C154.636 76.3217 154.415 74.7104 154.126 73.1118C153.817 71.3949 153.511 69.6696 153.05 67.9886C152.392 65.5981 151.623 63.235 150.847 60.8761C149.969 58.2047 148.811 55.6432 147.564 53.1217C147.028 52.0405 146.448 50.9804 145.843 49.9371C145.027 48.5265 144.238 47.0905 143.312 45.7516C141.857 43.6441 140.355 41.564 138.765 39.5535C137.393 37.8198 135.953 36.1219 134.395 34.5529C132.514 32.6586 130.495 30.8932 128.493 29.1172C127.426 28.1711 126.303 27.2757 125.146 26.4373C123.667 25.3666 122.159 24.3276 120.603 23.3668C118.76 22.2307 116.893 21.1135 114.96 20.1337C112.706 18.9933 110.389 17.9691 108.064 16.9723C106.729 16.4 105.327 15.984 103.954 15.4983C102.402 15.0211 100.868 14.4762 99.2947 14.0813C96.0823 13.2725 92.8442 12.5735 89.5375 12.2441C87.956 12.0857 86.3766 11.883 84.7929 11.7499C83.7642 11.6633 82.7249 11.6654 81.6919 11.6274C81.2269 11.5979 80.7597 11.5409 80.2947 11.543C79.6603 11.5472 79.0239 11.5958 78.3895 11.6253C77.123 11.6971 75.8565 11.7584 74.5921 11.8428C73.2827 11.9315 71.9669 11.9822 70.6682 12.1596C68.8767 12.4046 67.0829 12.6833 65.3171 13.0698C62.8719 13.6062 60.431 14.1848 58.0287 14.8796C53.6762 16.1361 49.4738 17.7917 45.4856 19.9352C43.5033 21.0016 41.5124 22.0617 39.603 23.2485C37.0292 24.8471 34.5476 26.5809 32.246 28.5512C30.8616 29.7359 29.4451 30.891 28.1143 32.1328C25.9155 34.1917 23.8132 36.3479 21.9424 38.7067C20.723 40.2441 19.4951 41.7772 18.3464 43.3653C15.8562 46.8033 13.7046 50.4419 11.9045 54.2768C11.3044 55.5566 10.6701 56.83 10.1708 58.1498C9.32857 60.3799 8.53779 62.6331 7.81345 64.9033C7.34842 66.3583 7.01625 67.8556 6.66908 69.3444C6.33262 70.7909 6.01974 72.2438 5.75615 73.7052C5.56328 74.7737 5.45613 75.8571 5.33398 76.9362C5.24611 77.7091 5.17754 78.4862 5.1261 79.2612C5.01895 80.8873 4.92895 82.5134 4.83251 84.1395C4.83251 85.1869 4.83251 86.2343 4.83251 87.2818C4.86037 87.947 4.87966 88.6143 4.92037 89.2774C4.98038 90.2551 5.02538 91.2371 5.13039 92.2107C5.31255 93.898 5.48613 95.5874 5.75187 97.2641C6.04546 99.1204 6.33477 100.987 6.81266 102.801C7.50271 105.422 8.27206 108.028 9.16998 110.585C9.9329 112.756 10.878 114.868 11.8316 116.967C12.5195 118.477 13.3232 119.938 14.1375 121.389C14.9347 122.81 15.7405 124.238 16.6663 125.579C18.1214 127.686 19.6258 129.769 21.2159 131.781C22.5874 133.515 24.0383 135.204 25.5877 136.786C27.3064 138.541 29.1494 140.182 30.9859 141.82C32.1517 142.862 33.3625 143.863 34.6248 144.785C36.232 145.962 37.88 147.094 39.5687 148.152C41.3496 149.267 43.1733 150.325 45.0291 151.311C46.6085 152.151 48.2415 152.903 49.8895 153.608C51.6661 154.371 53.4576 155.125 55.2963 155.722C57.8272 156.546 60.3946 157.266 62.9705 157.942C64.4878 158.341 66.0436 158.611 67.5951 158.865C68.9795 159.091 70.3768 159.245 71.774 159.376C73.5506 159.542 75.3314 159.654 77.1123 159.785C77.4359 159.809 77.7616 159.798 78.0852 159.804L78.0916 159.809Z" fill="#E0E0E0"/>
  <path d="M83.4162 169.986C83.4162 168.303 83.4119 166.622 83.4205 164.939C83.4205 164.77 83.4935 164.601 83.5322 164.432C83.5279 166.284 83.5236 168.136 83.5171 169.986H83.4141H83.4162Z" fill="#E0E0E0"/>
  <path d="M83.5291 6.97308C83.4905 6.81892 83.4175 6.66687 83.4175 6.51271C83.411 4.34181 83.4153 2.1709 83.4175 0C83.4497 0.168942 83.5119 0.337884 83.5119 0.508938C83.5227 2.66506 83.527 4.81907 83.5313 6.97519L83.5291 6.97308Z" fill="#E0E0E0"/>
  <path d="M78.0859 159.81H81.9927C81.7977 159.837 81.6048 159.891 81.4098 159.891C80.4625 159.9 79.5153 159.9 78.5681 159.891C78.4074 159.891 78.2467 159.837 78.0859 159.81Z" fill="#E0E0E0"/>
  <path d="M81.693 11.6272H78.3906C79.025 11.595 79.6614 11.5456 80.2958 11.5413C80.7608 11.5392 81.228 11.595 81.693 11.6272Z" fill="#E0E0E0"/>
  <path d="M4.82812 84.1733C4.85604 84.5809 4.91187 84.9885 4.90758 85.3961C4.90114 86.0359 4.85604 86.6758 4.82812 87.3157C4.82812 86.2682 4.82812 85.2208 4.82812 84.1733Z" fill="#E0E0E0"/>
  <path d="M69.5002 131.569C70.3574 131.522 71.0003 131.018 71.6668 130.574C73.2933 129.489 74.9199 128.401 76.525 127.286C77.3887 126.686 77.8151 125.81 77.9287 124.782C77.9566 124.142 78.0037 123.502 78.008 122.862C78.0123 122.454 77.9566 122.047 77.9287 121.641C77.8365 120.651 77.2472 119.861 76.8208 119.006C76.6322 118.626 76.3922 118.273 76.2121 117.889C75.7921 116.993 75.0292 116.453 74.2277 115.935C73.0105 115.15 71.7675 114.398 70.606 113.539C68.8787 112.261 68.4651 110.747 69.1402 108.717C69.7424 106.903 70.4731 105.129 71.1353 103.334C71.8361 101.432 72.5133 99.5206 73.2183 97.62C73.4819 96.9104 74.3391 96.6274 75.1578 96.8534C75.7492 97.0181 76.2014 97.9452 75.9721 98.5555C74.952 101.275 73.9727 104.008 72.9612 106.73C72.8519 107.022 72.8647 107.157 73.1583 107.319C74.7827 108.219 76.3729 109.184 78.0187 110.041C78.9488 110.527 79.9624 110.451 80.8946 109.951C82.1976 109.25 83.477 108.508 84.7714 107.79C85.1593 107.575 85.5643 107.393 85.9479 107.172C86.1836 107.036 86.2865 106.861 86.1686 106.549C85.455 104.667 84.7649 102.777 84.0727 100.889C83.7834 100.097 83.4963 99.3051 83.222 98.5069C82.9969 97.8544 83.3205 97.1448 83.9442 96.8724C84.6535 96.5641 85.5236 96.7816 85.8086 97.4236C86.2093 98.3274 86.5351 99.2608 86.8801 100.188C87.9516 103.06 89.0231 105.932 90.0796 108.81C90.6518 110.369 90.3754 111.824 89.2396 113.011C88.6374 113.64 87.808 114.06 87.0687 114.556C86.085 115.217 85.0778 115.845 84.1027 116.516C83.3184 117.057 82.9669 117.927 82.5405 118.719C82.1033 119.532 81.7476 120.385 81.3682 121.227C81.3318 121.31 81.379 121.428 81.3875 121.529C81.3575 122.408 81.3211 123.284 81.304 124.163C81.2997 124.404 81.3575 124.644 81.3875 124.885C81.2697 125.584 81.5633 126.188 82.0304 126.623C82.6905 127.24 83.4491 127.761 84.197 128.281C85.5793 129.237 86.9658 130.186 88.3888 131.081C88.8002 131.341 89.336 131.41 89.8139 131.567C89.9425 131.594 90.0689 131.647 90.1975 131.647C91.9226 131.649 93.6456 131.647 95.3707 131.643C96.2022 131.791 96.5858 132.19 96.5901 132.901C96.5944 133.757 96.2215 134.251 95.4693 134.394C93.6542 134.39 91.8412 134.386 90.026 134.386C89.9189 134.386 89.8117 134.441 89.7046 134.47C88.3245 134.386 87.148 133.799 86.04 133.034C84.7799 132.164 83.507 131.313 82.2512 130.437C81.3854 129.833 80.4146 129.354 79.8081 128.437C79.7653 128.372 79.4524 128.37 79.4052 128.435C78.6745 129.466 77.5644 130.029 76.5529 130.714C75.1621 131.653 73.7734 132.593 72.3718 133.516C71.6068 134.019 70.7753 134.361 69.8367 134.386C69.7252 134.388 69.6159 134.441 69.5066 134.47C69.4145 134.441 69.3245 134.386 69.2323 134.386C67.4922 134.382 65.7521 134.382 64.0141 134.386C63.9219 134.386 63.8319 134.441 63.7398 134.47C63.2319 134.266 62.7818 133.976 62.6275 133.431C62.3747 132.532 62.8761 131.818 63.8383 131.645C65.5956 131.647 67.355 131.651 69.1123 131.649C69.2409 131.649 69.3695 131.594 69.4981 131.567L69.5002 131.569ZM87.2937 109.682C86.938 109.875 86.6208 110.044 86.3058 110.221C85.0157 110.941 83.732 111.678 82.4333 112.383C80.5046 113.431 78.5223 113.543 76.5572 112.529C75.2435 111.851 73.9898 111.057 72.704 110.324C72.4169 110.162 72.1104 110.033 71.8232 109.894C71.5511 110.595 71.9582 110.983 72.404 111.294C73.5655 112.103 74.7399 112.897 75.94 113.646C77.0286 114.326 77.9951 115.093 78.5759 116.269C78.8695 116.867 79.2402 117.426 79.6131 118.062C79.956 117.426 80.211 116.801 80.5989 116.269C81.0918 115.593 81.604 114.879 82.264 114.385C83.7513 113.272 85.335 112.284 86.878 111.243C87.4651 110.848 87.6023 110.367 87.2937 109.682Z" fill="#E0E0E0"/>
  <path d="M114.434 29.5423C113.926 30.3595 113.444 31.1937 112.902 31.9877C111.057 34.695 109.192 37.3896 107.332 40.0885C105.648 42.5318 103.966 44.973 102.277 47.4121C101.679 48.2737 101.066 49.1247 100.423 50.0328C102.026 51.5617 103.616 53.078 105.202 54.5964C105.667 55.0419 106.147 55.4791 106.574 55.9606C106.844 56.2647 107.144 56.2668 107.487 56.2245C108.779 56.0619 110.067 55.836 111.363 55.7515C112.863 55.6565 113.948 56.3787 114.73 57.6331C115.756 59.2845 116.852 60.8937 117.878 62.5451C118.39 63.3687 119.142 64.0846 119.25 65.1046C119.307 65.6515 119.382 66.2555 119.213 66.7581C118.56 68.7115 117.816 70.6353 117.1 72.5676C116.922 73.0469 116.972 73.0955 117.569 73.2328C119.048 73.5707 120.52 73.9402 121.999 74.2802C124.316 74.8124 126.637 75.3277 128.953 75.8598C130.432 76.1998 131.906 76.5652 133.385 76.9051C135.702 77.4373 138.02 77.9589 140.337 78.4869C140.56 78.5376 140.776 78.6094 140.995 78.6706C142.392 78.9937 143.791 79.3168 145.189 79.6399C145.446 79.699 145.714 79.7265 145.958 79.8194C146.676 80.0897 146.974 80.7971 146.828 81.399C146.68 82.0051 146.232 82.6281 145.478 82.5182C144.415 82.3641 143.359 82.1508 142.311 81.9143C139.848 81.3589 137.392 80.7781 134.934 80.2037C132.976 79.7455 131.019 79.2703 129.058 78.8205C126.161 78.1595 123.259 77.5197 120.362 76.8608C118.787 76.5018 117.199 76.1787 115.647 75.7331C114.471 75.3952 113.534 74.0521 114.074 72.5866C114.844 70.5023 115.572 68.401 116.348 66.3188C116.492 65.9366 116.457 65.6198 116.254 65.3073C114.861 63.1681 113.468 61.0309 112.049 58.9086C111.931 58.7312 111.616 58.5644 111.41 58.5813C110.515 58.6615 109.63 58.8368 108.736 58.9297C107.482 59.0585 106.201 59.3183 105.074 58.4609C104.994 58.3997 104.911 58.3426 104.84 58.273C102.6 56.1042 100.361 53.9375 98.128 51.7602C97.3501 51 97.2408 49.6421 97.8622 48.7277C99.5188 46.2907 101.169 43.8495 102.838 41.4189C104.499 39.0009 106.179 36.5956 107.849 34.1839C109.192 32.2432 110.53 30.3004 111.875 28.3618C112.135 27.988 112.902 27.7937 113.453 27.9415C113.999 28.0872 114.381 28.5371 114.415 29.084C114.426 29.2361 114.428 29.386 114.432 29.538L114.434 29.5423Z" fill="#E0E0E0"/>
  <path d="M42.9585 73.2886C42.2277 71.3078 41.4969 69.3649 40.7983 67.4094C40.3804 66.2395 40.4169 65.0865 41.1219 64.0116C42.5727 61.7963 44.015 59.5726 45.4894 57.3722C46.1109 56.443 47.0045 55.8622 48.1703 55.9319C49.439 56.008 50.7012 56.1832 51.9656 56.3226C52.6214 56.3944 53.1614 56.3458 53.6993 55.7989C55.5637 53.9067 57.5074 52.0885 59.464 50.2027C58.7675 49.1848 58.0775 48.1775 57.3874 47.1723C56.0523 45.2273 54.7215 43.2824 53.3843 41.3396C51.7042 38.8962 50.0219 36.4529 48.3332 34.0159C47.4824 32.789 46.6016 31.5832 45.7637 30.3499C45.2001 29.52 45.318 28.2867 46.7173 28.0312C47.2788 27.9277 47.806 28.1853 48.1446 28.6816C49.5204 30.6941 50.8855 32.7151 52.2656 34.7255C53.935 37.1561 55.6152 39.5805 57.2931 42.0069C58.8511 44.258 60.4134 46.505 61.9692 48.7582C62.7043 49.8226 62.535 51.1445 61.7056 52.0061C60.7177 53.0325 59.6869 54.0208 58.6625 55.0133C57.5224 56.1199 56.3759 57.2222 55.2144 58.3077C54.6722 58.8145 54.025 59.089 53.26 59.1693C52.0449 59.296 50.8791 59.0088 49.6961 58.8588C49.364 58.8166 49.0232 58.8145 48.6975 58.7469C48.091 58.6223 47.8103 59.0003 47.5403 59.4185C46.2394 61.4373 44.9301 63.452 43.6507 65.4835C43.5157 65.6968 43.4578 66.0516 43.5371 66.2838C44.2722 68.4505 44.9944 70.6214 45.8216 72.7543C46.3487 74.1143 45.2494 75.6897 43.9657 75.9558C41.947 76.376 39.9475 76.8828 37.9374 77.339C35.055 77.9936 32.1705 78.6293 29.2882 79.2818C26.9716 79.8077 24.6571 80.3504 22.3405 80.8783C19.9275 81.4274 17.5123 81.9764 15.0949 82.5107C14.3663 82.6733 13.7877 82.4072 13.3784 81.7779C13.1641 81.4485 13.1769 80.5489 13.4984 80.249C13.7706 79.9956 14.1456 79.7886 14.5099 79.7C16.8522 79.1361 19.2031 78.6082 21.5497 78.0718C23.7699 77.565 25.9901 77.0602 28.2124 76.5576C30.739 75.9853 33.2678 75.4173 35.7944 74.845C38.0317 74.3382 40.2669 73.8271 42.5063 73.3203C42.6349 73.2907 42.772 73.3013 42.9542 73.2907L42.9585 73.2886Z" fill="#E0E0E0"/>
  <path d="M140.198 99.4138C141.443 100.043 142.68 100.687 143.935 101.293C144.548 101.589 144.818 102.085 144.806 102.695C144.793 103.316 144.426 103.758 143.815 103.982C143.237 104.195 142.748 103.948 142.257 103.701C140.509 102.82 138.76 101.937 137.009 101.061C135.008 100.058 133.004 99.0653 131.002 98.0601C129.164 97.1373 127.331 96.2018 125.493 95.2789C123.566 94.3117 121.633 93.3593 119.707 92.39C119.121 92.0965 118.551 91.7713 117.876 91.408C117.703 92.0542 117.553 92.6223 117.394 93.1883C116.996 94.6116 116.586 96.0328 116.192 97.4562C115.971 98.2544 116.252 98.8626 117.004 99.4581C117.737 100.037 118.442 100.653 119.149 101.262C120.532 102.448 121.91 103.642 123.287 104.835C123.92 105.384 124.543 105.941 125.175 106.49C126.566 107.696 127.961 108.894 129.348 110.101C130.068 110.729 130.769 111.379 131.493 112.004C132.781 113.117 134.086 114.215 135.374 115.33C136.109 115.966 136.868 116.587 137.541 117.282C138.342 118.109 138.076 118.986 137.286 119.598C136.902 119.896 135.989 119.74 135.567 119.364C135.13 118.973 134.688 118.587 134.249 118.198C133.542 117.592 132.835 116.986 132.13 116.378C130.737 115.176 129.342 113.977 127.957 112.769C126.935 111.875 125.93 110.961 124.905 110.072C123.607 108.944 122.289 107.836 120.988 106.71C120.013 105.865 119.053 105.004 118.082 104.155C116.961 103.177 115.819 102.22 114.711 101.228C113.303 99.9649 112.928 98.4128 113.432 96.6157C114.025 94.487 114.55 92.3393 115.174 90.2191C115.581 88.838 117.135 87.9257 118.686 88.6775C121.56 90.0692 124.413 91.5073 127.269 92.9306C129.082 93.8345 130.887 94.751 132.697 95.659C134.611 96.6178 136.525 97.5723 138.439 98.5289C139.026 98.8225 139.611 99.1181 140.196 99.4138H140.198Z" fill="#E0E0E0"/>
  <path d="M42.1401 91.4864C39.0884 93.0026 36.0925 94.4851 33.103 95.976C31.29 96.8798 29.4834 97.7942 27.6726 98.7044C25.7589 99.6653 23.8451 100.626 21.9336 101.589C20.3906 102.366 18.8498 103.15 17.3046 103.925C16.5974 104.279 15.7145 103.975 15.3673 103.219C15.0973 102.634 15.2431 101.741 16.0124 101.359C18.8026 99.9778 21.5842 98.5798 24.368 97.1903C26.2839 96.2357 28.2019 95.2854 30.1156 94.3267C32.0143 93.3743 33.9088 92.4134 35.8096 91.461C37.6655 90.5318 39.5235 89.6132 41.3815 88.6883C42.7594 88.0019 44.4803 88.7917 44.8424 90.2869C45.3696 92.4641 46.0147 94.616 46.6169 96.7764C47.1012 98.5143 46.5826 100.36 45.0203 101.513C44.3346 102.02 43.7324 102.637 43.0873 103.196C41.7094 104.391 40.325 105.576 38.9491 106.773C38.2398 107.39 37.5519 108.028 36.8404 108.642C35.5375 109.768 34.2238 110.881 32.9208 112.004C32.2479 112.585 31.5922 113.185 30.9214 113.768C29.5327 114.974 28.1355 116.171 26.7468 117.381C26.0117 118.021 25.2874 118.669 24.5673 119.326C24.1087 119.744 23.2408 119.898 22.8015 119.622C22.1243 119.193 21.8221 118.475 22.165 117.791C22.3643 117.389 22.7436 117.062 23.0886 116.752C23.8087 116.105 24.563 115.495 25.2981 114.864C26.6439 113.711 27.9897 112.556 29.3291 111.396C29.9892 110.826 30.6342 110.239 31.2921 109.669C32.6937 108.45 34.1016 107.238 35.5032 106.022C36.1225 105.483 36.7354 104.938 37.3569 104.4C38.7606 103.183 40.1664 101.969 41.5679 100.753C42.2001 100.204 42.8409 99.661 43.4538 99.0909C43.9038 98.6706 43.9895 98.149 43.8224 97.5535C43.3209 95.7521 42.8473 93.9423 42.3608 92.1389C42.303 91.9277 42.2215 91.7208 42.1422 91.4927L42.1401 91.4864Z" fill="#E0E0E0"/>
  <path d="M51.4942 112.81C50.6992 114.242 49.9277 115.636 49.1498 117.025C47.8575 119.331 46.5546 121.629 45.2666 123.937C44.4158 125.46 43.5929 126.997 42.7443 128.522C41.4306 130.887 40.1105 133.252 38.7818 135.611C38.4582 136.185 37.646 136.57 36.9238 136.166C36.2188 135.774 35.8673 134.935 36.2316 134.278C37.2967 132.35 38.3918 130.441 39.4633 128.518C40.1469 127.293 40.7984 126.051 41.482 124.828C42.7636 122.535 44.0622 120.252 45.3416 117.959C46.2095 116.407 47.0432 114.837 47.9218 113.292C48.4447 112.371 48.944 111.421 49.5912 110.589C50.457 109.476 52.3214 109.619 53.3029 110.534C54.5116 111.659 55.6796 112.831 56.9461 113.891C57.949 114.73 58.5833 115.756 58.7526 116.987C58.8598 117.769 58.7141 118.607 58.5533 119.395C58.1247 121.485 57.6318 123.563 57.1561 125.643C56.8046 127.183 56.4296 128.718 56.0803 130.26C55.611 132.325 55.1609 134.397 54.6938 136.462C54.3445 138.002 53.978 139.539 53.6158 141.076C53.3672 142.136 53.1358 143.203 52.8508 144.255C52.6407 145.03 51.895 145.479 51.2392 145.298C50.3691 145.057 49.9084 144.274 50.1013 143.437C50.6842 140.914 51.2456 138.386 51.8243 135.86C52.1779 134.321 52.5593 132.788 52.9086 131.248C53.3779 129.181 53.8194 127.109 54.2866 125.042C54.6359 123.502 55.0131 121.967 55.371 120.429C55.5595 119.621 55.7953 118.816 55.9046 117.995C56.0032 117.268 55.7288 116.647 55.1202 116.149C54.4302 115.585 53.8087 114.937 53.1529 114.331C52.6129 113.83 52.0664 113.338 51.4921 112.814L51.4942 112.81Z" fill="#E0E0E0"/>
  <path d="M101.339 117.725C101.238 116.369 101.836 115.264 102.726 114.348C103.681 113.366 104.768 112.511 105.795 111.594C106.283 111.157 106.733 110.671 107.252 110.272C108.31 109.461 110.186 109.696 110.923 110.978C111.964 112.787 112.969 114.618 113.985 116.441C115.327 118.848 116.664 121.258 118.005 123.665C119.165 125.745 120.331 127.823 121.488 129.903C122.281 131.329 123.059 132.763 123.858 134.184C124.42 135.183 123.567 136.427 122.486 136.319C121.94 136.266 121.548 135.945 121.297 135.502C120.414 133.941 119.572 132.357 118.698 130.792C117.279 128.258 115.837 125.737 114.422 123.203C113.548 121.638 112.712 120.052 111.844 118.483C110.865 116.713 109.862 114.956 108.883 113.184C108.707 112.865 108.565 112.916 108.347 113.119C107.286 114.105 106.266 115.14 105.141 116.048C104.198 116.81 104.144 117.672 104.399 118.728C104.899 120.787 105.327 122.863 105.797 124.928C106.146 126.47 106.523 128.003 106.872 129.544C107.342 131.61 107.792 133.681 108.259 135.747C108.608 137.288 108.979 138.823 109.335 140.363C109.596 141.491 109.866 142.616 110.096 143.75C110.22 144.363 109.541 145.186 108.863 145.317C108.25 145.435 107.367 144.876 107.232 144.261C106.542 141.176 105.874 138.086 105.171 135.003C104.65 132.716 104.074 130.444 103.549 128.159C102.846 125.093 102.166 122.022 101.489 118.95C101.401 118.548 101.388 118.13 101.339 117.72V117.725Z" fill="#E0E0E0"/>
  <path d="M76.7512 46.5816C75.1225 46.4761 74.2675 45.4434 73.6953 44.0876C72.9624 42.3539 72.2423 40.6138 71.5223 38.8758C70.5943 36.6436 69.6814 34.4051 68.7449 32.1772C67.8706 30.0971 66.9662 28.0276 66.0876 25.9496C65.659 24.9338 65.2732 23.8991 64.8425 22.8833C64.5189 22.1231 65.0375 21.3692 65.5582 21.1453C66.3254 20.8138 67.1462 21.0672 67.4634 21.7957C68.2863 23.6858 69.0749 25.5906 69.8786 27.4891C70.5236 29.0138 71.1772 30.5364 71.818 32.0632C72.4095 33.4696 72.9838 34.8824 73.5731 36.2889C74.2825 37.9804 74.9982 39.6698 75.7119 41.3592C75.9905 42.0181 76.2819 42.6706 76.5434 43.3337C76.6634 43.6399 76.8348 43.7498 77.1798 43.7455C78.7014 43.7244 80.2229 43.7244 81.7445 43.7455C82.1366 43.7519 82.2931 43.6209 82.4088 43.2535C83.3132 40.392 84.2432 37.5369 85.169 34.6818C85.8312 32.6439 86.5063 30.6124 87.1663 28.5724C87.9442 26.1629 88.7178 23.7534 89.4743 21.3375C89.8408 20.1654 90.8073 19.8994 91.7717 20.3661C92.3267 20.6343 92.5324 21.3713 92.2967 22.1019C91.6281 24.1715 90.9616 26.241 90.2887 28.3085C89.3136 31.303 88.3321 34.2932 87.3592 37.2877C86.592 39.6487 85.8291 42.0118 85.0683 44.3748C84.6547 45.6567 83.461 46.5373 82.1966 46.5838C80.3815 46.5838 78.5642 46.5838 76.7491 46.5838L76.7512 46.5816Z" fill="#E0E0E0"/>
  <path d="M85.4141 87.7899C85.7291 85.864 87.032 84.9918 88.8472 84.6666C88.8965 84.6582 88.9522 84.673 89.0015 84.6603C89.7987 84.466 89.7665 84.4723 89.5951 83.6931C89.3958 82.7829 89.1944 81.8664 89.1129 80.9415C88.9779 79.4421 89.7344 78.3165 91.0031 77.6281C92.3682 76.8847 93.8233 76.2977 95.2548 75.6768C95.7627 75.4572 96.6092 75.7233 96.8728 76.1076C97.2628 76.6736 97.2307 77.4993 96.7464 77.9765C96.532 78.1877 96.2342 78.3271 95.9556 78.458C94.8862 78.9606 93.804 79.4379 92.7325 79.9405C91.9588 80.3037 91.8388 80.65 92.0789 81.7376C92.2053 82.3099 92.3617 82.8758 92.4796 83.4481C92.531 83.6952 92.561 83.7586 92.8653 83.6825C95.8399 82.935 98.8229 82.2254 101.802 81.4947C102.618 81.2941 103.199 81.6637 103.505 82.6288C103.668 83.1398 103.212 84.0056 102.648 84.1598C101.14 84.5695 99.6244 84.9581 98.1093 85.3382C96.4935 85.7436 94.8755 86.1301 93.1911 86.5398C93.2618 86.9495 93.3218 87.3824 93.4161 87.8047C93.5725 88.5037 93.7547 89.1964 93.9219 89.8912C94.0526 90.4318 94.419 90.7359 94.9655 90.7359C96.2813 90.7359 97.6014 90.6957 98.9151 90.7464C100.355 90.8013 100.713 91.9713 100.179 92.9596C99.9695 93.3481 99.5966 93.5572 99.1508 93.5614C97.5436 93.5741 95.9341 93.6079 94.329 93.5509C93.4182 93.5192 92.7089 92.9743 92.0746 92.3556C91.1252 91.4285 91.0159 90.1826 90.7438 89C90.6345 88.5227 90.5573 88.0391 90.4202 87.5703C90.3859 87.4542 90.1566 87.2979 90.0387 87.3169C89.5994 87.3824 89.1579 87.4795 88.7465 87.6358C88.5622 87.7055 88.4422 87.9399 88.2921 88.0983C88.2921 89.7898 88.2921 91.4813 88.2921 93.1729C88.2536 93.2763 88.2128 93.3798 88.1743 93.4854C87.9407 94.1063 87.2956 94.4082 86.4813 94.2752C86.072 94.2097 85.5319 93.6037 85.4976 93.1729C85.5019 91.4855 85.5062 89.8004 85.5041 88.113C85.5041 88.0075 85.4484 87.9019 85.4184 87.7963L85.4141 87.7899Z" fill="#E0E0E0"/>
  <path d="M60.6485 93.4577C60.0506 93.2338 59.6156 92.8537 59.5341 92.199C59.4377 91.4325 59.8277 90.8454 60.6485 90.6258C62.0693 90.63 63.4902 90.6363 64.9131 90.6342C65.0031 90.6342 65.0931 90.5793 65.1832 90.5497C65.8411 90.442 65.9225 90.2414 66.0896 89.5509C66.3404 88.5224 66.5375 87.4813 66.7647 86.4107C65.1424 86.0052 63.4902 85.585 61.8336 85.1795C60.4256 84.8332 59.0113 84.508 57.6011 84.1637C56.8082 83.9694 56.2275 83.0593 56.4696 82.3223C56.7268 81.543 57.4083 81.1713 58.3469 81.41C61.2229 82.1428 64.1074 82.8397 66.9897 83.545C67.1162 83.5767 67.2555 83.5492 67.4183 83.5492C67.5962 82.6792 67.7741 81.8176 67.9476 80.9559C68.0505 80.4512 67.8598 80.1176 67.3776 79.8937C66.1089 79.3109 64.8467 78.709 63.5887 78.1008C62.9951 77.8136 62.7594 77.3089 62.8194 76.6733C62.8708 76.1158 63.158 75.666 63.7195 75.5667C64.1309 75.4949 64.626 75.516 65.0031 75.6744C66.3361 76.2361 67.6326 76.8781 68.9463 77.4863C70.0499 77.9974 70.5257 78.9434 70.83 80.0373C71.0807 80.9348 70.7314 81.7563 70.5878 82.6031C70.5043 83.0994 70.3478 83.583 70.26 84.0793C70.2471 84.1595 70.41 84.3221 70.5214 84.3601C71.265 84.6114 72.0515 84.7677 72.7609 85.0887C73.901 85.604 74.3939 86.6007 74.5246 87.7918C74.5246 89.4854 74.5246 91.179 74.5246 92.8727C74.3874 93.6118 73.9095 94.1376 73.3373 94.1757C72.463 94.2327 72.0065 93.9054 71.6551 92.9719C71.6851 92.8664 71.7408 92.7587 71.7408 92.6531C71.7472 91.1748 71.7472 89.6987 71.7408 88.2205C71.7408 88.1128 71.6829 88.0051 71.6529 87.8995C71.3936 87.7347 71.1536 87.5193 70.8707 87.4138C70.4893 87.2723 70.0778 87.2152 69.5978 87.1033C69.4606 87.7073 69.332 88.3345 69.1756 88.9532C68.9827 89.7219 68.8477 90.5181 68.5434 91.2424C68.0419 92.4398 67.0519 93.1113 65.7725 93.3753C65.7103 93.388 65.6546 93.4281 65.5946 93.4555C65.5046 93.426 65.4125 93.3711 65.3224 93.3711C63.8566 93.3647 62.3908 93.3647 60.925 93.3711C60.8328 93.3711 60.7428 93.426 60.6528 93.4555L60.6485 93.4577Z" fill="#E0E0E0"/>
  <path d="M62.831 106.567C62.831 107.511 62.8653 108.455 62.8203 109.397C62.7817 110.236 62.2417 111.004 61.2516 110.943C60.5551 110.901 59.9594 110.339 59.9572 109.646C59.9529 107.809 59.9829 105.974 59.9401 104.139C59.9272 103.634 59.8115 103.077 59.5608 102.646C59.2715 102.15 58.8043 101.742 58.3693 101.345C57.7028 100.741 56.987 100.19 56.3098 99.5985C55.4998 98.8911 54.7283 98.1435 53.9075 97.4488C52.9731 96.6589 52.5638 95.6094 52.2616 94.4859C51.7216 92.4776 51.1708 90.4736 50.6179 88.4674C50.3244 87.403 50.0008 86.3472 49.7157 85.2807C49.5079 84.4993 49.9429 83.7961 50.738 83.5659C51.5009 83.3442 52.2659 83.7328 52.4909 84.5141C53.046 86.4506 53.5753 88.3935 54.1132 90.3342C54.499 91.728 54.7904 93.1555 55.3047 94.5028C55.5426 95.1279 56.1748 95.6305 56.6934 96.1226C57.3577 96.7519 58.0907 97.3115 58.7893 97.9049C59.5672 98.5638 60.3623 99.2036 61.108 99.8963C62.0295 100.752 62.6446 101.801 62.7196 103.062C62.7882 104.228 62.7346 105.402 62.7346 106.572C62.7689 106.572 62.8032 106.572 62.8374 106.572L62.831 106.567Z" fill="#E0E0E0"/>
  <path d="M100.867 109.701C100.687 110.024 100.541 110.376 100.316 110.666C99.9391 111.149 99.3926 111.099 98.889 110.934C98.2675 110.731 97.9804 110.303 97.9782 109.72C97.9761 107.547 97.9311 105.372 97.9954 103.199C98.0318 101.955 98.6726 100.918 99.5898 100.079C100.267 99.4607 100.996 98.899 101.69 98.2992C102.616 97.501 103.505 96.6584 104.459 95.896C105.256 95.2583 105.526 94.384 105.775 93.4823C106.377 91.305 106.97 89.1257 107.573 86.9506C107.785 86.184 107.997 85.4174 108.239 84.6614C108.533 83.747 109.21 83.4302 110.2 83.7132C110.791 83.8821 111.201 84.7226 110.993 85.4575C110.016 88.9272 109.032 92.3968 108.029 95.858C107.733 96.8759 106.912 97.5348 106.171 98.2232C105.524 98.8229 104.817 99.3593 104.144 99.9316C103.34 100.614 102.541 101.296 101.75 101.993C101.311 102.379 100.938 102.814 100.867 103.427C100.867 105.519 100.867 107.612 100.867 109.705V109.701Z" fill="#E0E0E0"/>
  <path d="M87.1587 150.02C86.9594 150.78 86.6186 151.401 85.6971 151.431C84.9728 151.454 84.2699 150.783 84.2699 150.073C84.2699 147.666 84.3149 145.256 84.2506 142.849C84.2206 141.734 85.305 140.53 86.5951 140.405C87.7094 140.298 88.8152 140.135 89.9275 140.01C90.6604 139.928 91.3976 139.867 92.1326 139.806C92.6191 139.763 93.1077 139.751 93.5942 139.7C95.0386 139.552 96.1851 140.483 96.5365 141.822C97.0637 143.835 97.6231 145.837 98.1395 147.851C98.3174 148.548 97.6295 149.439 96.9223 149.425C95.9794 149.406 95.4865 149.045 95.2443 148.137C94.7857 146.411 94.2649 144.701 93.8363 142.967C93.7163 142.479 93.4442 142.507 93.1141 142.54C92.2334 142.629 91.3526 142.73 90.4739 142.84C89.3981 142.973 88.3266 143.119 87.253 143.258C87.2165 143.336 87.1501 143.415 87.1501 143.493C87.1501 145.67 87.1565 147.845 87.1608 150.022L87.1587 150.02Z" fill="#E0E0E0"/>
  <path d="M75.5415 150.095C75.2072 151.069 74.7765 151.451 73.99 151.396C73.2956 151.347 72.9013 150.906 72.6763 150.294C72.7042 150.203 72.7577 150.11 72.7577 150.019C72.762 147.871 72.762 145.722 72.7556 143.574C72.7556 143.456 72.6827 143.337 72.6442 143.219C71.5512 143.082 70.4604 142.936 69.3675 142.814C68.6174 142.729 67.8631 142.676 67.113 142.605C66.7637 142.571 66.4165 142.522 66.0244 142.476C65.6301 143.922 65.2465 145.344 64.8586 146.765C64.6914 147.375 64.535 147.99 64.3378 148.589C64.1257 149.234 62.947 149.842 62.1562 149.111C61.6098 148.608 61.4726 148.076 61.674 147.384C62.2377 145.434 62.7541 143.473 63.3263 141.526C63.6499 140.421 64.7257 139.623 65.8658 139.688C67.2202 139.766 68.566 139.944 69.9182 140.077C70.9683 140.18 72.0227 140.267 73.0706 140.385C74.455 140.541 75.3272 141.236 75.548 142.799C75.548 145.232 75.548 147.665 75.548 150.097L75.5415 150.095Z" fill="#E0E0E0"/>
  <path d="M93.2845 121.778V120.678C91.9515 120.678 90.64 120.678 89.3284 120.678C88.6512 120.678 88.019 120.044 87.9569 119.311C87.9055 118.714 88.3855 118.053 89.0177 117.958C89.5813 117.873 90.1578 117.863 90.73 117.85C91.5657 117.833 92.4015 117.846 93.2952 117.846C93.2523 117.263 93.2459 116.674 93.7238 116.283C93.9531 116.097 94.2831 115.971 94.581 115.939C95.4125 115.848 95.8582 116.205 96.1818 117.13C96.1818 120.439 96.1818 123.75 96.1818 127.06C96.0232 127.636 95.7768 128.103 95.1103 128.28C94.251 128.508 93.3102 127.877 93.2973 127C93.2866 126.244 93.2844 125.486 93.2802 124.73C93.203 124.694 93.1237 124.629 93.0466 124.629C92.2387 124.627 91.4329 124.635 90.625 124.639C89.9992 124.582 89.427 124.019 89.397 123.434C89.3542 122.562 89.7399 122.027 90.5135 121.884C91.3043 121.886 92.0929 121.894 92.8837 121.886C93.0187 121.886 93.1537 121.814 93.2887 121.776L93.2845 121.778Z" fill="#E0E0E0"/>
  <path d="M66.617 127.164C66.2869 128.14 65.5283 128.602 64.714 128.252C64.2553 128.055 63.8867 127.703 63.8203 127.156C63.8203 123.783 63.8203 120.409 63.8203 117.036C63.9596 116.333 64.5489 115.891 65.299 115.927C66.1969 115.97 66.5184 116.421 66.6384 117.849C67.892 117.849 69.1479 117.847 70.4058 117.849C71.1023 117.849 71.7345 118.297 71.9231 118.911C72.0731 119.399 71.7345 120.216 71.2202 120.516C71.0444 120.618 70.8151 120.67 70.6073 120.672C69.2957 120.685 67.9821 120.679 66.6105 120.679V121.777C66.7455 121.815 66.8805 121.885 67.0156 121.887C67.8063 121.895 68.595 121.887 69.3857 121.885C70.0801 122.011 70.6158 122.601 70.6008 123.219C70.5837 123.88 70.0436 124.507 69.3772 124.641C68.4921 124.641 67.607 124.636 66.7198 124.634C66.6812 124.771 66.6084 124.907 66.6062 125.044C66.5977 125.751 66.6062 126.459 66.6084 127.166L66.617 127.164Z" fill="#E0E0E0"/>
  <path d="M31.0292 40.7698C30.9713 40.151 31.2606 39.7139 31.8264 39.507C32.3986 39.2979 32.975 39.3486 33.4743 39.7519C33.5001 39.773 33.5194 39.8005 33.5451 39.8258C35.1888 41.4118 36.8303 42.9977 38.4762 44.5815C39.7663 45.8233 41.0649 47.0587 42.3529 48.3046C42.8886 48.822 42.9851 49.5125 42.6358 50.1946C42.3743 50.7036 41.7335 50.976 41.0328 50.8366C40.8528 50.8007 40.6706 50.6719 40.5335 50.541C39.0033 49.0817 37.4839 47.6141 35.9603 46.1464C34.4623 44.704 32.9536 43.2722 31.4749 41.8088C31.2156 41.5533 31.087 41.171 30.8984 40.8479C30.9434 40.8226 30.9863 40.7972 31.0313 40.7698H31.0292Z" fill="#E0E0E0"/>
  <path d="M32.3086 63.4944C31.4085 63.2178 30.4656 62.939 29.527 62.6413C26.681 61.7332 23.8372 60.8146 20.9913 59.9023C20.6163 59.7819 20.222 59.7101 19.8662 59.5538C19.1376 59.235 18.7647 58.405 19.0154 57.7525C19.3112 56.9838 20.0934 56.6396 20.9442 56.9099C23.01 57.5667 25.0738 58.2213 27.1375 58.8823C28.9976 59.4778 30.8471 60.1114 32.72 60.6604C33.408 60.861 33.7251 61.3108 33.8216 61.8937C33.9116 62.4385 33.6115 62.9264 33.1337 63.2347C32.9258 63.3698 32.6429 63.3952 32.3043 63.4965L32.3086 63.4944Z" fill="#E0E0E0"/>
  <path d="M72.6094 143.194C72.648 143.313 72.721 143.431 72.721 143.549C72.7275 145.697 72.7275 147.847 72.7232 149.994C72.7232 150.085 72.6695 150.178 72.6416 150.269C72.6351 148.163 72.6287 146.058 72.6223 143.952C72.6223 143.699 72.6137 143.448 72.6094 143.194Z" fill="#E0E0E0"/>
  <path d="M89.7188 134.502C89.8259 134.472 89.9331 134.416 90.0402 134.416C91.8553 134.416 93.6683 134.42 95.4835 134.425C95.3742 134.455 95.2649 134.513 95.1556 134.513C93.3426 134.513 91.5296 134.508 89.7188 134.504V134.502Z" fill="#E0E0E0"/>
  <path d="M63.7266 134.505C63.8187 134.475 63.9087 134.419 64.0009 134.419C65.741 134.415 67.4811 134.415 69.2191 134.419C69.3113 134.419 69.4013 134.475 69.4934 134.505H63.7287H63.7266Z" fill="#E0E0E0"/>
  <path d="M69.48 131.594C69.3514 131.624 69.2229 131.678 69.0943 131.678C67.337 131.68 65.5776 131.678 63.8203 131.673C63.9082 131.641 63.996 131.583 64.0839 131.583C65.8819 131.583 67.682 131.59 69.48 131.594Z" fill="#E0E0E0"/>
  <path d="M95.3772 131.673C93.652 131.676 91.929 131.68 90.2039 131.678C90.0753 131.678 89.9489 131.624 89.8203 131.596C91.6012 131.592 93.3842 131.585 95.165 131.583C95.2357 131.583 95.3064 131.641 95.3772 131.673Z" fill="#E0E0E0"/>
  <path d="M76.75 46.5381C78.5651 46.5381 80.3824 46.5381 82.1976 46.5381C82.0883 46.566 81.9768 46.6197 81.8675 46.6218C80.2731 46.6283 78.6766 46.6283 77.0822 46.6218C76.9729 46.6218 76.8614 46.5681 76.7521 46.5381H76.75Z" fill="#E0E0E0"/>
  <path d="M74.4922 92.8575C74.4922 91.1639 74.4922 89.4703 74.4922 87.7766C74.5244 87.8632 74.5824 87.9498 74.5824 88.0364C74.5888 89.5568 74.5888 91.0773 74.5824 92.5978C74.5824 92.6844 74.5244 92.771 74.4922 92.8575Z" fill="#E0E0E0"/>
  <path d="M81.3574 124.884C81.3274 124.643 81.2694 124.403 81.2737 124.162C81.2908 123.283 81.3274 122.405 81.3574 121.529C81.3574 122.648 81.3574 123.765 81.3574 124.884Z" fill="#E0E0E0"/>
  <path d="M77.8906 121.655C77.9185 122.063 77.9744 122.47 77.9701 122.876C77.9636 123.516 77.9185 124.156 77.8906 124.795C77.8906 123.748 77.8906 122.701 77.8906 121.653V121.655Z" fill="#E0E0E0"/>
  <path d="M69.3768 121.864C68.586 121.866 67.7952 121.874 67.0066 121.866C66.8716 121.866 66.7366 121.793 66.6016 121.754C67.3709 121.758 68.1381 121.758 68.9075 121.771C69.0639 121.773 69.2225 121.829 69.3789 121.862L69.3768 121.864Z" fill="#E0E0E0"/>
  <path d="M93.3377 121.754C93.2027 121.793 93.0677 121.864 92.9327 121.866C92.1419 121.874 91.3533 121.866 90.5625 121.864C90.9247 121.831 91.2847 121.784 91.649 121.773C92.2126 121.754 92.7762 121.761 93.3399 121.756L93.3377 121.754Z" fill="#E0E0E0"/>
  <path d="M66.7201 124.597C66.7093 124.631 66.7093 124.662 66.7201 124.694C66.7136 125.351 66.7136 126.005 66.6986 126.662C66.6943 126.818 66.6406 126.973 66.6084 127.127C66.6063 126.419 66.5955 125.712 66.6063 125.004C66.6063 124.867 66.6793 124.732 66.7201 124.595V124.597Z" fill="#E0E0E0"/>
  <path d="M116.945 49.1116C117.112 48.8286 117.232 48.4992 117.457 48.269C118.49 47.2152 119.547 46.1805 120.608 45.152C122.307 43.5006 124.013 41.8534 125.727 40.2147C126.075 39.8831 126.428 39.5263 126.848 39.3109C127.487 38.9856 128.415 39.2855 128.725 39.8177C129.056 40.3794 128.82 41.3466 128.237 41.8788C127.553 42.506 126.872 43.1374 126.205 43.7815C125.374 44.584 124.564 45.4054 123.734 46.21C122.348 47.551 120.953 48.8856 119.562 50.2203C119.082 50.6807 118.527 50.8961 117.893 50.5772C117.329 50.2942 117.01 49.8317 116.945 49.1116Z" fill="#E0E0E0"/>
  <path d="M140.913 58.078C140.909 58.7073 140.448 59.2521 139.724 59.4823C137.517 60.1877 135.312 60.8909 133.104 61.5941C131.368 62.1474 129.626 62.688 127.895 63.2582C127.194 63.4884 126.341 63.0153 126.12 62.2488C125.917 61.5392 126.262 60.8191 127.001 60.5783C129.967 59.6111 132.935 58.6418 135.905 57.6894C136.968 57.3473 138.057 57.077 139.113 56.7159C139.889 56.4498 141.014 57.0876 140.916 58.0801L140.913 58.078Z" fill="#E0E0E0"/>
</svg>