<svg xmlns="http://www.w3.org/2000/svg" width="20" height="21" viewBox="0 0 20 21" fill="none">
  <path d="M10.0015 0.944336C8.25083 0.944149 6.53081 1.4029 5.01338 2.27473C3.49595 3.14657 2.23428 4.40092 1.35452 5.9124C0.474748 7.42387 0.00770939 9.1395 9.46295e-05 10.8878C-0.00752013 12.636 0.444555 14.3556 1.31112 15.8747L0.411087 19.0305C0.353396 19.2355 0.351399 19.452 0.405302 19.658C0.459205 19.8639 0.567062 20.0518 0.717782 20.2023C0.868503 20.3528 1.05665 20.4605 1.26287 20.5144C1.46909 20.5682 1.68595 20.5662 1.89115 20.5086L5.05127 19.6098C6.382 20.3665 7.86897 20.8079 9.39753 20.8999C10.9261 20.992 12.4554 20.7323 13.8676 20.1408C15.2797 19.5493 16.537 18.6419 17.5424 17.4884C18.5479 16.335 19.2746 14.9663 19.6667 13.488C20.0588 12.0097 20.1056 10.4613 19.8037 8.96204C19.5017 7.46281 18.8591 6.05284 17.9252 4.84086C16.9913 3.62887 15.7912 2.64725 14.4174 1.97168C13.0436 1.2961 11.5328 0.944623 10.0015 0.944336ZM10.0015 20.1191C8.34679 20.1229 6.72217 19.6776 5.30128 18.8308C5.23926 18.7993 5.17087 18.7822 5.10128 18.7809H4.99127L1.67114 19.7296C1.6033 19.7478 1.53186 19.7478 1.464 19.7297C1.39615 19.7115 1.33428 19.6759 1.28461 19.6263C1.23494 19.5767 1.19923 19.5149 1.18106 19.4471C1.16289 19.3794 1.16291 19.308 1.18112 19.2403L2.13116 15.9246C2.15928 15.8202 2.1449 15.7089 2.09116 15.615C1.0563 13.871 0.62809 11.8341 0.873216 9.82173C1.11834 7.80933 2.02305 5.93438 3.4464 4.48897C4.86975 3.04355 6.73183 2.10881 8.74258 1.83037C10.7533 1.55192 12.7998 1.9454 14.5633 2.94951C16.3268 3.95362 17.7082 5.51199 18.4924 7.38185C19.2766 9.25171 19.4195 11.3281 18.8989 13.2875C18.3783 15.247 17.2234 16.9794 15.6141 18.2151C14.0048 19.4507 12.0315 20.1202 10.0015 20.1191ZM15.0517 12.7788L13.0116 11.6203C12.8256 11.5139 12.6146 11.4587 12.4002 11.4605C12.1859 11.4622 11.9758 11.5208 11.7915 11.6303L10.4115 12.4592C9.5802 12.0286 8.90255 11.3519 8.47141 10.5217L9.30145 9.14355C9.41104 8.95955 9.46971 8.74978 9.47147 8.5357C9.47323 8.32162 9.418 8.11092 9.31145 7.92515L8.1514 5.88783C8.05507 5.72121 7.91662 5.58278 7.74989 5.48639C7.58317 5.38999 7.39401 5.33901 7.20136 5.33855C6.35436 5.33855 5.54191 5.67388 4.94206 6.27105C4.3422 6.86822 4.00388 7.67852 4.00123 8.52436C3.99992 9.62686 4.21623 10.7188 4.6378 11.7377C5.05937 12.7567 5.67792 13.6827 6.4581 14.4627C7.23827 15.2428 8.16476 15.8616 9.18459 16.2838C10.2044 16.706 11.2976 16.9233 12.4016 16.9233H12.4116C13.2586 16.9207 14.07 16.5828 14.6679 15.9838C15.2659 15.3847 15.6017 14.5734 15.6017 13.7275C15.6012 13.5351 15.5502 13.3462 15.4537 13.1797C15.3571 13.0132 15.2185 12.875 15.0517 12.7788ZM12.4116 16.1244H12.4016C10.3849 16.1217 8.45178 15.3198 7.02674 13.8948C5.60169 12.4699 4.80126 10.5383 4.80126 8.52436C4.80391 7.89041 5.05794 7.28333 5.50776 6.83599C5.95758 6.38865 6.56655 6.1375 7.20136 6.1375C7.25257 6.13821 7.30267 6.15244 7.34659 6.17875C7.3905 6.20506 7.42665 6.24252 7.45137 6.28731L8.62142 8.32462C8.65555 8.38748 8.67343 8.45785 8.67343 8.52936C8.67343 8.60086 8.65555 8.67123 8.62142 8.73409L7.68138 10.292C7.64675 10.3468 7.62673 10.4095 7.62322 10.4742C7.61972 10.5389 7.63286 10.6034 7.66138 10.6615C8.18219 11.8205 9.11101 12.748 10.2715 13.2681C10.3297 13.2966 10.3943 13.3097 10.4591 13.3062C10.5239 13.3027 10.5867 13.2827 10.6415 13.2481L12.2016 12.3094C12.2645 12.2753 12.335 12.2574 12.4066 12.2574C12.4782 12.2574 12.5486 12.2753 12.6116 12.3094L14.6517 13.4778C14.6965 13.5025 14.734 13.5386 14.7604 13.5825C14.7867 13.6263 14.801 13.6764 14.8017 13.7275C14.8017 14.3615 14.5502 14.9696 14.1022 15.4188C13.6543 15.868 13.0464 16.1217 12.4116 16.1244Z" fill="#E0E0E0"/>
</svg>