<svg xmlns="http://www.w3.org/2000/svg" width="39" height="41" viewBox="0 0 39 41" fill="none">
  <ellipse cx="19.4952" cy="19.8842" rx="19.4891" ry="18.4752" transform="rotate(-180 19.4952 19.8842)" fill="#E0E0E0"/>
  <path d="M38.9856 21.0294C38.9767 21.3243 38.9788 21.6197 38.9558 21.9131C38.9261 22.2859 38.8791 22.6577 38.8331 23.029C38.7961 23.332 38.7585 23.6356 38.7063 23.9361C38.6494 24.262 38.582 24.5865 38.5063 24.9083C38.3351 25.6377 38.1221 26.3563 37.8558 27.0576C37.6809 27.5191 37.4851 27.9734 37.2862 28.4256C37.1468 28.7419 37.0012 29.0577 36.831 29.3592C36.5345 29.8843 36.2343 30.4089 35.9033 30.9136C35.5728 31.4173 35.2126 31.9032 34.8471 32.3835C34.6138 32.6901 34.347 32.9717 34.0912 33.2697C34.4096 33.5788 34.7312 33.8982 35.0617 34.2073C35.1505 34.2903 35.1364 34.3326 35.0575 34.408C34.7098 34.7411 34.3679 35.0798 34.0384 35.4027C33.7863 35.1587 33.5393 34.9193 33.2919 34.68C33.2151 34.6056 33.1373 34.5318 33.0627 34.4554C33.0084 34.3998 32.9625 34.4024 32.905 34.4543C32.7124 34.6301 32.5224 34.8088 32.3214 34.9743C31.9507 35.2794 31.5805 35.5865 31.1942 35.8723C30.8251 36.1458 30.4414 36.4025 30.0524 36.6485C29.6886 36.8787 29.3132 37.0926 28.9357 37.3009C28.6105 37.4802 28.2779 37.6472 27.9427 37.8092C27.05 38.24 26.1228 38.5915 25.1695 38.868C24.5002 39.0626 23.8163 39.2123 23.134 39.361C22.7904 39.4359 22.437 39.47 22.0862 39.5108C21.6769 39.5586 21.266 39.5958 20.8551 39.6335C20.6912 39.6483 20.5262 39.6519 20.3612 39.6605C20.3518 39.7013 20.3341 39.742 20.3341 39.7827C20.332 40.1887 20.3331 40.5941 20.3331 41H18.6828C18.6828 40.589 18.6833 40.178 18.6817 39.767C18.6817 39.7318 18.665 39.6972 18.6567 39.6626C18.4024 39.6452 18.1482 39.6279 17.8945 39.6101C17.6694 39.5943 17.4434 39.5867 17.2199 39.5587C16.8984 39.5184 16.5773 39.47 16.2583 39.4135C15.8177 39.3356 15.375 39.2633 14.9401 39.1594C14.1142 38.9628 13.3023 38.7203 12.5088 38.4178C11.745 38.1265 11.0026 37.7939 10.2806 37.4155C9.63479 37.0768 9.01144 36.7035 8.41001 36.2945C7.83626 35.9044 7.28077 35.4918 6.75818 35.0375C6.65272 34.9458 6.54257 34.8587 6.41622 34.7543C6.07792 35.0849 5.74954 35.4057 5.42429 35.7241C5.0578 35.3665 4.68661 35.0044 4.31385 34.6407C4.61456 34.3474 4.92049 34.0484 5.22695 33.7505C5.26976 33.7092 5.31152 33.6771 5.25044 33.6119C5.05101 33.3996 4.85262 33.1856 4.66155 32.9656C4.42453 32.6926 4.18176 32.4227 3.96563 32.1339C3.64247 31.702 3.32609 31.2635 3.03373 30.8118C2.73354 30.3483 2.45528 29.87 2.18641 29.3882C2.00839 29.0689 1.85333 28.7358 1.70663 28.4012C1.50615 27.9454 1.31247 27.4865 1.13496 27.022C0.857221 26.2947 0.639517 25.549 0.47611 24.7892C0.400931 24.4388 0.322621 24.0883 0.260495 23.7359C0.21403 23.47 0.189493 23.2006 0.157647 22.9322C0.12319 22.6439 0.0824685 22.3557 0.0605416 22.0664C0.0401809 21.8051 0.0417471 21.5423 0.0318277 21.28C0.0313057 21.2601 0.0161656 21.2403 0.0078125 21.2204C0.0078125 20.8547 0.0078125 20.4885 0.0078125 20.1229C0.0161656 20.103 0.0313057 20.0836 0.0318277 20.0633C0.0417471 19.801 0.0401809 19.5382 0.0605416 19.2769C0.0829906 18.9876 0.122668 18.6993 0.158169 18.4111C0.188971 18.159 0.216641 17.9058 0.259972 17.6558C0.323143 17.2906 0.382137 16.9239 0.473499 16.5648C0.631686 15.9414 0.798749 15.3201 0.989305 14.7053C1.11042 14.3137 1.26548 13.9296 1.43202 13.5538C1.68731 12.9793 1.94469 12.4043 2.23966 11.8486C2.63539 11.1019 3.08281 10.3823 3.59966 9.70746C3.93744 9.2669 4.28618 8.83348 4.63701 8.4026C4.7999 8.20244 4.97583 8.01145 5.15595 7.82555C5.22486 7.75425 5.20972 7.71809 5.14864 7.65952C4.767 7.29078 4.38798 6.91898 4.00217 6.54209C4.02358 6.51765 4.04289 6.49269 4.06534 6.47079C4.38589 6.15705 4.70958 5.84637 5.027 5.52958C5.10635 5.45064 5.15856 5.44758 5.23948 5.52755C5.61328 5.89883 5.99178 6.26452 6.35566 6.61951C6.79942 6.27063 7.24057 5.92379 7.68068 5.57695C8.33849 5.05847 9.04903 4.61435 9.77784 4.2013C10.5448 3.76635 11.3378 3.37775 12.17 3.07114C12.5746 2.92191 12.9729 2.75486 13.3843 2.62753C13.9502 2.45284 14.5224 2.29546 15.0988 2.15591C15.5018 2.05812 15.9142 1.99599 16.3246 1.92927C16.725 1.86408 17.1265 1.805 17.5295 1.76018C17.8151 1.7286 18.1043 1.72707 18.3915 1.7067C18.4818 1.70059 18.5711 1.67767 18.6614 1.66239C18.6692 1.62114 18.6833 1.57937 18.6833 1.53812C18.6859 1.02626 18.687 0.514404 18.6885 0.00254655C19.2377 0.00152793 19.7864 0.00050931 20.3357 0C20.3357 0.523571 20.3346 1.04714 20.3357 1.57071C20.3357 1.60789 20.3534 1.64456 20.3628 1.68174C20.7356 1.7067 21.1115 1.71179 21.4806 1.7612C22.1504 1.85134 22.8176 1.96237 23.4837 2.07442C24.3807 2.22518 25.2478 2.489 26.103 2.78593C26.5927 2.95604 27.0709 3.16027 27.5465 3.36654C27.9459 3.54022 28.34 3.72764 28.7248 3.92984C29.1278 4.1412 29.5283 4.36123 29.9104 4.60569C30.4398 4.94388 30.9577 5.3009 31.4688 5.66557C31.745 5.86267 31.9971 6.09186 32.2603 6.3073C32.3756 6.40152 32.4895 6.49727 32.609 6.59659C32.9713 6.24364 33.3274 5.8968 33.6834 5.54996C33.7586 5.47662 33.8348 5.47763 33.9121 5.55301C34.2186 5.85198 34.5224 6.15298 34.8325 6.44787C34.9119 6.52325 34.9249 6.56552 34.8367 6.64854C34.4712 6.99283 34.1147 7.34578 33.7513 7.69874C33.8917 7.85713 34.0322 8.00738 34.1632 8.16476C34.5099 8.58035 34.8743 8.98424 35.1922 9.42021C35.6094 9.99267 36.0082 10.5804 36.3784 11.1824C36.6749 11.6658 36.9281 12.1756 37.1813 12.6823C37.5948 13.51 37.9221 14.3717 38.18 15.2564C38.3429 15.8141 38.4776 16.3799 38.606 16.9463C38.6984 17.3542 38.7668 17.7678 38.831 18.1814C38.8712 18.4411 38.89 18.7049 38.9078 18.9672C38.9381 19.4159 38.9605 19.8651 38.9861 20.3144C38.9861 20.5522 38.9861 20.7901 38.9861 21.0274L38.9856 21.0294ZM19.0321 38.5421C19.0712 38.5487 19.1104 38.5614 19.1495 38.5614C19.3803 38.5635 19.611 38.5635 19.8418 38.5614C19.8893 38.5614 19.9368 38.5487 19.9838 38.5421C20.3043 38.5247 20.6259 38.5125 20.946 38.4876C21.267 38.4626 21.5881 38.4295 21.9081 38.3903C22.2584 38.3475 22.6119 38.3144 22.9554 38.24C23.5553 38.1102 24.152 37.963 24.744 37.8036C25.4593 37.611 26.1531 37.3549 26.8307 37.061C27.263 36.8731 27.689 36.6683 28.1056 36.4498C28.5337 36.2257 28.9556 35.9874 29.3654 35.7332C29.9981 35.341 30.6084 34.9168 31.1744 34.436C31.5487 34.1177 31.9246 33.8004 32.2869 33.4688C32.5495 33.2284 32.7933 32.9677 33.0408 32.7115C33.1295 32.6198 33.2047 32.5154 33.2861 32.4171C33.3911 32.301 33.5028 32.1899 33.6004 32.0682C33.9372 31.647 34.2849 31.233 34.5981 30.796C35.0915 30.1079 35.5336 29.3857 35.9043 28.6278C36.1779 28.0676 36.429 27.4951 36.6561 26.9155C36.8561 26.4052 37.0325 25.8837 37.1766 25.356C37.3301 24.7948 37.4429 24.2228 37.5567 23.6524C37.6308 23.2801 37.6825 22.9027 37.7305 22.5258C37.7676 22.2365 37.7937 21.9452 37.8052 21.6538C37.8219 21.2255 37.8219 20.7967 37.8287 20.3683C37.8219 20.2904 37.812 20.212 37.8083 20.1341C37.7973 19.8952 37.7885 19.6558 37.7786 19.4164C37.7634 19.2097 37.7577 19.0014 37.7305 18.7956C37.6794 18.407 37.6256 18.0184 37.5551 17.6328C37.4799 17.2188 37.4053 16.8027 37.293 16.3972C37.1328 15.8207 36.9453 15.2508 36.7563 14.6819C36.5423 14.0376 36.2604 13.4198 35.9565 12.8117C35.826 12.5509 35.6845 12.2953 35.5373 12.0437C35.3384 11.7034 35.1463 11.3571 34.9207 11.0342C34.5663 10.5259 34.2003 10.0242 33.8129 9.53938C33.4788 9.12124 33.1279 8.71175 32.7484 8.33334C32.29 7.87649 31.7982 7.4507 31.3106 7.02237C31.0506 6.7942 30.7771 6.57825 30.4951 6.37606C30.1349 6.11784 29.7674 5.86726 29.3884 5.63552C28.9394 5.36151 28.4847 5.09209 28.0138 4.85577C27.4645 4.58074 26.9002 4.33372 26.3337 4.09333C26.0085 3.95531 25.667 3.85497 25.3324 3.73783C24.9544 3.62273 24.5806 3.49132 24.1974 3.39608C23.4148 3.20102 22.626 3.03243 21.8204 2.95298C21.4351 2.91478 21.0504 2.86589 20.6646 2.8338C20.414 2.81292 20.1608 2.81343 19.9091 2.80426C19.7958 2.79713 19.682 2.78338 19.5687 2.78389C19.4142 2.78491 19.2592 2.79662 19.1046 2.80375C18.7961 2.82107 18.4875 2.83584 18.1795 2.85621C17.8605 2.8776 17.54 2.88983 17.2236 2.93261C16.7871 2.99169 16.3502 3.05892 15.92 3.15212C15.3243 3.28149 14.7297 3.42104 14.1444 3.5886C13.0841 3.89164 12.0603 4.29094 11.0888 4.80789C10.6058 5.06509 10.1208 5.32077 9.65567 5.607C9.02866 5.99255 8.42411 6.41069 7.8634 6.88588C7.52615 7.1716 7.18106 7.45019 6.85685 7.74967C6.32121 8.24625 5.80906 8.76625 5.35329 9.33515C5.05623 9.70593 4.75709 10.0757 4.47726 10.4587C3.87061 11.2878 3.34645 12.1654 2.90791 13.0903C2.76173 13.3989 2.6072 13.7061 2.48556 14.0244C2.28038 14.5622 2.08774 15.1056 1.91128 15.6531C1.79799 16.0041 1.71707 16.3652 1.6325 16.7242C1.55053 17.0731 1.47431 17.4235 1.41009 17.776C1.36311 18.0337 1.337 18.2949 1.30725 18.5552C1.28584 18.7416 1.26913 18.929 1.2566 19.1159C1.2305 19.5081 1.20857 19.9003 1.18508 20.2925C1.18508 20.5451 1.18508 20.7977 1.18508 21.0503C1.19187 21.2107 1.19657 21.3717 1.20649 21.5316C1.2211 21.7674 1.23207 22.0042 1.25765 22.239C1.30202 22.646 1.34431 23.0534 1.40905 23.4578C1.48057 23.9055 1.55105 24.3557 1.66747 24.7932C1.83558 25.4253 2.023 26.0538 2.24175 26.6705C2.42761 27.1941 2.65784 27.7034 2.89016 28.2097C3.05775 28.5738 3.25352 28.9263 3.45191 29.2762C3.64612 29.6189 3.84242 29.9632 4.06795 30.2867C4.42244 30.7949 4.78893 31.2971 5.17631 31.7825C5.51043 32.2006 5.86387 32.6081 6.24133 32.9896C6.66003 33.4128 7.10901 33.8085 7.55643 34.2038C7.84043 34.4549 8.1354 34.6963 8.4429 34.9188C8.83445 35.2025 9.23593 35.4755 9.64732 35.7307C10.0812 35.9996 10.5254 36.2548 10.9776 36.4926C11.3623 36.6953 11.7601 36.8766 12.1616 37.0467C12.5944 37.2306 13.0309 37.4124 13.4788 37.5565C14.0954 37.7552 14.7208 37.9289 15.3483 38.0918C15.718 38.1881 16.097 38.2533 16.475 38.3144C16.8122 38.3689 17.1526 38.4061 17.493 38.4377C17.9258 38.4779 18.3596 38.5049 18.7935 38.5365C18.8723 38.5421 18.9517 38.5395 19.0305 38.541L19.0321 38.5421Z" fill="#202020"/>
  <path d="M20.3286 40.9957C20.3286 40.5898 20.3276 40.1844 20.3297 39.7785C20.3297 39.7377 20.3475 39.697 20.3569 39.6562C20.3559 40.1029 20.3549 40.5496 20.3533 40.9957H20.3281H20.3286Z" fill="#202020"/>
  <path d="M20.3562 1.68174C20.3468 1.64456 20.329 1.60789 20.329 1.57071C20.3274 1.04714 20.3284 0.523571 20.329 0C20.3368 0.0407448 20.352 0.0814897 20.352 0.122744C20.3546 0.64275 20.3557 1.16225 20.3567 1.68225L20.3562 1.68174Z" fill="#202020"/>
  <path d="M19.0312 38.5469H19.983C19.9355 38.5537 19.8885 38.5668 19.841 38.5668C19.6102 38.5689 19.3795 38.5689 19.1487 38.5668C19.1096 38.5668 19.0704 38.5537 19.0312 38.5469Z" fill="#202020"/>
  <path d="M19.9061 2.79441H19.1016C19.2561 2.78655 19.4111 2.7745 19.5657 2.77345C19.679 2.77293 19.7928 2.78655 19.9061 2.79441Z" fill="#202020"/>
  <path d="M1.17969 20.3047C1.1865 20.4026 1.20013 20.5005 1.19908 20.5984C1.19751 20.7521 1.1865 20.9059 1.17969 21.0596C1.17969 20.808 1.17969 20.5563 1.17969 20.3047Z" fill="#202020"/>
  <path d="M16.9401 31.7373C17.149 31.726 17.3056 31.6043 17.4679 31.4974C17.8642 31.2356 18.2604 30.9733 18.6515 30.7044C18.8619 30.5597 18.9658 30.3484 18.9934 30.1003C19.0002 29.946 19.0117 29.7917 19.0127 29.6374C19.0138 29.5391 19.0002 29.4408 18.9934 29.343C18.971 29.1041 18.8274 28.9136 18.7235 28.7074C18.6776 28.6157 18.6191 28.5306 18.5752 28.4379C18.4729 28.222 18.2871 28.0916 18.0918 27.9668C17.7953 27.7774 17.4925 27.596 17.2095 27.3888C16.7887 27.0806 16.688 26.7155 16.8524 26.226C16.9991 25.7885 17.1771 25.3607 17.3385 24.9278C17.5092 24.4689 17.6742 24.008 17.8459 23.5496C17.9101 23.3784 18.119 23.3102 18.3184 23.3647C18.4625 23.4044 18.5726 23.628 18.5168 23.7752C18.2683 24.4312 18.0297 25.0902 17.7833 25.7467C17.7566 25.817 17.7598 25.8496 17.8313 25.8888C18.227 26.1058 18.6144 26.3386 19.0154 26.5453C19.2419 26.6625 19.4889 26.6441 19.716 26.5234C20.0334 26.3544 20.3451 26.1756 20.6604 26.0024C20.7549 25.9505 20.8536 25.9067 20.947 25.8532C21.0044 25.8206 21.0295 25.7783 21.0008 25.7029C20.8269 25.2491 20.6588 24.7933 20.4902 24.338C20.4197 24.147 20.3498 23.956 20.2829 23.7635C20.2281 23.6061 20.307 23.435 20.4589 23.3693C20.6317 23.2949 20.8436 23.3474 20.9131 23.5022C21.0107 23.7202 21.0901 23.9453 21.1741 24.1689C21.4351 24.8616 21.6962 25.5542 21.9536 26.2484C22.093 26.6243 22.0256 26.9752 21.7489 27.2614C21.6022 27.4132 21.4002 27.5146 21.2201 27.6342C20.9804 27.7937 20.7351 27.9449 20.4975 28.1069C20.3064 28.2373 20.2208 28.4471 20.1169 28.6381C20.0104 28.8342 19.9238 29.0399 19.8313 29.2432C19.8225 29.263 19.834 29.2915 19.836 29.316C19.8287 29.5279 19.8199 29.7392 19.8157 29.9511C19.8146 30.0092 19.8287 30.0672 19.836 30.1253C19.8073 30.2939 19.8789 30.4395 19.9927 30.5444C20.1535 30.6932 20.3383 30.819 20.5205 30.9443C20.8572 31.175 21.195 31.4037 21.5417 31.6196C21.6419 31.6822 21.7724 31.6991 21.8888 31.7367C21.9202 31.7434 21.951 31.7561 21.9823 31.7561C22.4025 31.7566 22.8223 31.7561 23.2426 31.7551C23.4451 31.7907 23.5386 31.887 23.5396 32.0586C23.5407 32.2649 23.4498 32.3841 23.2666 32.4187C22.8244 32.4177 22.3827 32.4167 21.9405 32.4167C21.9144 32.4167 21.8883 32.4299 21.8622 32.437C21.526 32.4167 21.2394 32.2751 20.9695 32.0907C20.6625 31.8809 20.3524 31.6756 20.0464 31.4643C19.8355 31.3186 19.599 31.203 19.4513 30.9819C19.4408 30.9662 19.3646 30.9656 19.3531 30.9814C19.1751 31.23 18.9047 31.366 18.6583 31.531C18.3194 31.7576 17.9811 31.9843 17.6397 32.2068C17.4533 32.3281 17.2508 32.4106 17.0221 32.4167C16.9949 32.4172 16.9683 32.4299 16.9417 32.437C16.9192 32.4299 16.8973 32.4167 16.8749 32.4167C16.4509 32.4157 16.027 32.4157 15.6036 32.4167C15.5812 32.4167 15.5592 32.4299 15.5368 32.437C15.4131 32.3876 15.3034 32.3179 15.2658 32.1865C15.2042 31.9695 15.3264 31.7974 15.5608 31.7556C15.9889 31.7561 16.4175 31.7571 16.8456 31.7566C16.877 31.7566 16.9083 31.7434 16.9396 31.7367L16.9401 31.7373ZM21.2749 26.4588C21.1882 26.5051 21.1109 26.5459 21.0342 26.5886C20.7199 26.7623 20.4072 26.9401 20.0908 27.1102C19.621 27.3628 19.138 27.3898 18.6593 27.1453C18.3393 26.9818 18.0339 26.7903 17.7206 26.6136C17.6507 26.5744 17.576 26.5433 17.506 26.5097C17.4397 26.6788 17.5389 26.7725 17.6475 26.8474C17.9305 27.0424 18.2166 27.2339 18.5089 27.4147C18.7742 27.5787 19.0096 27.7636 19.1511 28.0473C19.2226 28.1914 19.3129 28.3264 19.4038 28.4797C19.4873 28.3264 19.5494 28.1756 19.6439 28.0473C19.764 27.8843 19.8888 27.7122 20.0496 27.593C20.4119 27.3246 20.7977 27.0862 21.1736 26.8351C21.3166 26.7399 21.3501 26.6238 21.2749 26.4588Z" fill="#202020"/>
  <path d="M27.8849 7.1246C27.7612 7.32171 27.6437 7.52288 27.5117 7.71438C27.0622 8.36732 26.608 9.0172 26.1548 9.6681C25.7444 10.2574 25.3346 10.8461 24.9232 11.4344C24.7776 11.6422 24.6283 11.8474 24.4716 12.0664C24.8621 12.4352 25.2495 12.8009 25.6359 13.1671C25.7491 13.2745 25.8661 13.38 25.97 13.4961C26.0358 13.5694 26.1088 13.5699 26.1924 13.5597C26.5072 13.5205 26.821 13.466 27.1368 13.4457C27.5023 13.4227 27.7664 13.5969 27.957 13.8995C28.207 14.2977 28.4738 14.6858 28.7239 15.0841C28.8487 15.2827 29.0319 15.4554 29.058 15.7014C29.0721 15.8333 29.0904 15.979 29.0492 16.1002C28.8899 16.5713 28.7088 17.0353 28.5344 17.5013C28.4911 17.6169 28.5031 17.6286 28.6487 17.6617C29.0089 17.7432 29.3676 17.8323 29.7278 17.9143C30.2922 18.0427 30.8576 18.167 31.422 18.2953C31.7822 18.3773 32.1414 18.4654 32.5016 18.5474C33.066 18.6758 33.6308 18.8016 34.1952 18.9289C34.2495 18.9411 34.3022 18.9584 34.3555 18.9732C34.6959 19.0511 35.0368 19.1291 35.3772 19.207C35.4398 19.2212 35.5051 19.2279 35.5646 19.2503C35.7395 19.3155 35.812 19.4861 35.7765 19.6312C35.7405 19.7774 35.6314 19.9277 35.4476 19.9012C35.1887 19.864 34.9313 19.8125 34.676 19.7555C34.0762 19.6216 33.4779 19.4815 32.8791 19.343C32.4019 19.2324 31.9252 19.1178 31.4475 19.0094C30.7417 18.8499 30.0348 18.6956 29.329 18.5367C28.9453 18.4501 28.5584 18.3722 28.1804 18.2648C27.8938 18.1833 27.6657 17.8593 27.7972 17.5059C27.9846 17.0032 28.1622 16.4964 28.3511 15.9942C28.3861 15.9021 28.3778 15.8257 28.3282 15.7503C27.9888 15.2344 27.6495 14.7189 27.3039 14.2071C27.2752 14.1643 27.1984 14.1241 27.1483 14.1281C26.9301 14.1475 26.7145 14.1898 26.4967 14.2122C26.1913 14.2432 25.8791 14.3059 25.6045 14.0991C25.5852 14.0843 25.5649 14.0706 25.5476 14.0538C25.0021 13.5307 24.4565 13.0082 23.9125 12.4831C23.723 12.2997 23.6964 11.9722 23.8478 11.7517C24.2513 11.1639 24.6533 10.5752 25.06 9.98896C25.4646 9.4058 25.8739 8.8257 26.2806 8.24407C26.6079 7.77601 26.9337 7.30745 27.2616 6.8399C27.3248 6.74975 27.5117 6.70289 27.6458 6.73855C27.779 6.77369 27.8719 6.88217 27.8802 7.01408C27.8828 7.05075 27.8834 7.08691 27.8844 7.12358L27.8849 7.1246Z" fill="#202020"/>
  <path d="M10.46 17.6783C10.2819 17.2006 10.1039 16.732 9.93372 16.2604C9.83192 15.9782 9.84079 15.7001 10.0126 15.4409C10.366 14.9066 10.7173 14.3703 11.0765 13.8396C11.2279 13.6155 11.4456 13.4755 11.7296 13.4923C12.0387 13.5106 12.3462 13.5529 12.6542 13.5865C12.814 13.6038 12.9455 13.5921 13.0766 13.4602C13.5308 13.0038 14.0043 12.5653 14.481 12.1105C14.3113 11.865 14.1432 11.6221 13.9751 11.3797C13.6498 10.9106 13.3256 10.4415 12.9998 9.97294C12.5905 9.38367 12.1807 8.7944 11.7693 8.20665C11.5621 7.91074 11.3475 7.61993 11.1434 7.32249C11.0061 7.12233 11.0348 6.82489 11.3757 6.76327C11.5125 6.73831 11.6409 6.80045 11.7234 6.92013C12.0585 7.40551 12.3911 7.89292 12.7273 8.37778C13.134 8.964 13.5433 9.54869 13.9521 10.1339C14.3316 10.6768 14.7122 11.2187 15.0913 11.7621C15.2703 12.0188 15.2291 12.3377 15.027 12.5455C14.7864 12.793 14.5352 13.0313 14.2857 13.2707C14.008 13.5376 13.7287 13.8035 13.4457 14.0652C13.3136 14.1875 13.1559 14.2537 12.9696 14.273C12.6735 14.3036 12.3895 14.2343 12.1014 14.1982C12.0204 14.188 11.9374 14.1875 11.8581 14.1712C11.7103 14.1411 11.6419 14.2323 11.5762 14.3331C11.2593 14.82 10.9403 15.3059 10.6286 15.7959C10.5957 15.8473 10.5816 15.9329 10.6009 15.9889C10.78 16.5115 10.9559 17.035 11.1575 17.5494C11.2859 17.8774 11.0181 18.2574 10.7053 18.3216C10.2136 18.4229 9.72646 18.5451 9.23676 18.6552C8.53457 18.813 7.83187 18.9663 7.12968 19.1237C6.56532 19.2505 6.00149 19.3814 5.43713 19.5088C4.84928 19.6412 4.26091 19.7736 3.67201 19.9025C3.49451 19.9417 3.35355 19.8775 3.25383 19.7257C3.20163 19.6463 3.20476 19.4293 3.28307 19.357C3.34937 19.2959 3.44073 19.246 3.52949 19.2246C4.10011 19.0886 4.67282 18.9613 5.24449 18.8319C5.78535 18.7097 6.32622 18.5879 6.8676 18.4667C7.48312 18.3287 8.09917 18.1917 8.71469 18.0537C9.25973 17.9314 9.80425 17.8082 10.3498 17.6859C10.3811 17.6788 10.4145 17.6814 10.4589 17.6788L10.46 17.6783Z" fill="#202020"/>
  <path d="M34.1585 23.9749C34.4618 24.1267 34.763 24.282 35.069 24.4282C35.2183 24.4995 35.2841 24.6192 35.2809 24.7664C35.2778 24.9161 35.1885 25.0225 35.0397 25.0765C34.8988 25.128 34.7797 25.0684 34.6602 25.0088C34.2342 24.7964 33.8082 24.5835 33.3816 24.3722C32.894 24.1302 32.4059 23.8909 31.9183 23.6484C31.4703 23.4259 31.024 23.2002 30.576 22.9777C30.1067 22.7444 29.6358 22.5147 29.1664 22.2809C29.0239 22.2101 28.885 22.1317 28.7206 22.0441C28.6783 22.1999 28.6418 22.3369 28.6031 22.4734C28.506 22.8167 28.4063 23.1595 28.3103 23.5028C28.2565 23.6953 28.3249 23.842 28.5081 23.9856C28.6867 24.1251 28.8584 24.2739 29.0307 24.4205C29.3674 24.7068 29.7031 24.9945 30.0388 25.2823C30.1928 25.4147 30.3448 25.5492 30.4988 25.6816C30.8376 25.9724 31.1775 26.2612 31.5152 26.5525C31.6907 26.7038 31.8614 26.8606 32.0378 27.0114C32.3516 27.2798 32.6695 27.5446 32.9833 27.8136C33.1624 27.9669 33.3472 28.1166 33.5111 28.2842C33.7064 28.4838 33.6416 28.6952 33.449 28.8429C33.3555 28.9147 33.1331 28.877 33.0303 28.7863C32.9238 28.6921 32.8162 28.5989 32.7092 28.5052C32.5369 28.359 32.3646 28.2129 32.1929 28.0662C31.8535 27.7764 31.5137 27.4871 31.1764 27.1958C30.9274 26.9803 30.6825 26.7598 30.433 26.5454C30.1166 26.2734 29.7955 26.006 29.4786 25.7346C29.2411 25.5308 29.0072 25.323 28.7707 25.1183C28.4977 24.8825 28.2194 24.6518 27.9495 24.4124C27.6065 24.1078 27.5151 23.7335 27.6378 23.3001C27.7824 22.7867 27.9103 22.2687 28.0623 21.7574C28.1615 21.4243 28.54 21.2042 28.9179 21.3856C29.618 21.7212 30.3129 22.068 31.0088 22.4113C31.4505 22.6293 31.8901 22.8503 32.3312 23.0693C32.7974 23.3006 33.2637 23.5308 33.7299 23.7615C33.8729 23.8323 34.0154 23.9036 34.158 23.9749H34.1585Z" fill="#202020"/>
  <path d="M10.2715 22.0711C9.52804 22.4368 8.79818 22.7943 8.06989 23.1539C7.62822 23.3719 7.18812 23.5924 6.74697 23.8119C6.28076 24.0436 5.81455 24.2754 5.34886 24.5076C4.97297 24.695 4.59761 24.884 4.22119 25.0709C4.04891 25.1565 3.83382 25.0831 3.74924 24.9008C3.68346 24.7597 3.71896 24.5443 3.90638 24.4521C4.58612 24.119 5.26377 23.7818 5.94194 23.4467C6.40867 23.2165 6.87592 22.9873 7.34213 22.7561C7.80468 22.5264 8.26619 22.2947 8.72927 22.065C9.18138 21.8409 9.63402 21.6193 10.0867 21.3962C10.4223 21.2307 10.8416 21.4212 10.9298 21.7818C11.0582 22.3069 11.2154 22.8259 11.3621 23.3469C11.4801 23.7661 11.3537 24.2112 10.9731 24.4893C10.8061 24.6115 10.6594 24.7602 10.5022 24.8952C10.1665 25.1835 9.82927 25.4692 9.4941 25.758C9.3213 25.9067 9.15371 26.0605 8.98039 26.2087C8.66297 26.4802 8.34294 26.7486 8.02552 27.0195C7.86159 27.1596 7.70183 27.3042 7.53843 27.4448C7.20013 27.7356 6.85974 28.0244 6.52143 28.3162C6.34236 28.4706 6.1659 28.6269 5.99049 28.7853C5.87877 28.8862 5.66733 28.9233 5.5603 28.8566C5.39533 28.7532 5.32172 28.5801 5.40525 28.415C5.4538 28.3183 5.54621 28.2393 5.63026 28.1645C5.80568 28.0086 5.98944 27.8614 6.16851 27.7091C6.49637 27.4311 6.82423 27.1525 7.15053 26.8729C7.31133 26.7353 7.46847 26.5937 7.62875 26.4562C7.97018 26.1624 8.31318 25.87 8.65461 25.5767C8.80549 25.4468 8.9548 25.3154 9.1062 25.1855C9.44816 24.8921 9.79064 24.5993 10.1321 24.3059C10.2861 24.1735 10.4422 24.0426 10.5915 23.9051C10.7011 23.8037 10.722 23.6779 10.6813 23.5343C10.5591 23.0999 10.4437 22.6634 10.3252 22.2284C10.3111 22.1775 10.2913 22.1276 10.272 22.0726L10.2715 22.0711Z" fill="#202020"/>
  <path d="M12.5506 27.2024C12.3569 27.5477 12.1689 27.8839 11.9794 28.219C11.6646 28.7752 11.3472 29.3293 11.0334 29.886C10.8262 30.2532 10.6257 30.624 10.4189 30.9917C10.0989 31.5621 9.77732 32.1325 9.45363 32.7014C9.3748 32.84 9.17694 32.9327 9.001 32.8354C8.82924 32.7407 8.74362 32.5385 8.83237 32.3801C9.09184 31.9151 9.35862 31.4547 9.61965 30.9907C9.78619 30.6953 9.9449 30.3958 10.1114 30.1009C10.4236 29.5478 10.74 28.9972 11.0517 28.4441C11.2631 28.0698 11.4662 27.6914 11.6803 27.3185C11.8076 27.0965 11.9293 26.8673 12.087 26.6666C12.2979 26.3982 12.7521 26.4328 12.9912 26.6534C13.2856 26.9248 13.5702 27.2075 13.8787 27.4632C14.123 27.6654 14.2776 27.9129 14.3188 28.2098C14.3449 28.3983 14.3094 28.6005 14.2703 28.7904C14.1658 29.2947 14.0458 29.7958 13.9299 30.2975C13.8442 30.6688 13.7529 31.0391 13.6678 31.4109C13.5535 31.909 13.4438 32.4086 13.33 32.9067C13.2449 33.278 13.1556 33.6488 13.0674 34.0195C13.0068 34.2752 12.9505 34.5324 12.881 34.7861C12.8299 34.973 12.6482 35.0814 12.4884 35.0376C12.2765 34.9796 12.1642 34.7906 12.2112 34.5889C12.3532 33.9803 12.49 33.3707 12.631 32.7615C12.7171 32.3903 12.81 32.0205 12.8951 31.6492C13.0095 31.1506 13.117 30.651 13.2308 30.1523C13.3159 29.7811 13.4078 29.4108 13.495 29.04C13.5409 28.8449 13.5984 28.6509 13.625 28.4528C13.649 28.2776 13.5822 28.1278 13.4339 28.0076C13.2658 27.8717 13.1144 27.7153 12.9546 27.5691C12.8231 27.4484 12.6899 27.3297 12.55 27.2034L12.5506 27.2024Z" fill="#202020"/>
  <path d="M24.6902 28.3877C24.6657 28.0607 24.8113 27.7943 25.028 27.5733C25.2608 27.3365 25.5255 27.1302 25.7756 26.9092C25.8946 26.8037 26.0042 26.6866 26.1306 26.5903C26.3885 26.3947 26.8453 26.4513 27.0249 26.7604C27.2786 27.1969 27.5235 27.6385 27.7709 28.078C28.0977 28.6586 28.4235 29.2398 28.7503 29.8204C29.0328 30.322 29.3168 30.8232 29.5987 31.3249C29.7919 31.6687 29.9814 32.0145 30.1761 32.3572C30.3129 32.5982 30.1051 32.8981 29.842 32.8722C29.7089 32.8594 29.6133 32.782 29.5522 32.6751C29.3371 32.2987 29.132 31.9167 28.919 31.5393C28.5734 30.9281 28.222 30.32 27.8774 29.7088C27.6644 29.3314 27.4608 28.9489 27.2494 28.5705C27.0108 28.1437 26.7665 27.72 26.5279 27.2927C26.4851 27.2158 26.4506 27.228 26.3974 27.2769C26.1389 27.5147 25.8904 27.7643 25.6163 27.9833C25.3866 28.1671 25.3736 28.3749 25.4357 28.6296C25.5574 29.1262 25.6618 29.6268 25.7761 30.1249C25.8612 30.4967 25.9531 30.8665 26.0382 31.2383C26.1525 31.7364 26.2621 32.236 26.376 32.7341C26.4611 33.1059 26.5514 33.4762 26.638 33.8475C26.7017 34.1195 26.7675 34.3909 26.8234 34.6644C26.8537 34.8121 26.6882 35.0108 26.5232 35.0423C26.3739 35.0709 26.1588 34.9359 26.1259 34.7877C25.9578 34.0436 25.7949 33.2985 25.6237 32.5549C25.4968 32.0033 25.3564 31.4553 25.2284 30.9042C25.0572 30.1647 24.8917 29.4241 24.7267 28.6831C24.7053 28.5863 24.7022 28.4855 24.6902 28.3867V28.3877Z" fill="#202020"/>
  <path d="M18.7068 11.2266C18.31 11.2012 18.1017 10.9521 17.9624 10.6251C17.7838 10.207 17.6084 9.78732 17.433 9.36816C17.2069 8.82981 16.9845 8.28995 16.7564 7.75262C16.5434 7.25095 16.3231 6.75183 16.109 6.25067C16.0046 6.00569 15.9106 5.75613 15.8057 5.51115C15.7268 5.3278 15.8532 5.14597 15.9801 5.09198C16.167 5.01202 16.3669 5.07314 16.4442 5.24885C16.6446 5.70469 16.8368 6.16408 17.0325 6.62195C17.1897 6.98968 17.3489 7.35689 17.505 7.72512C17.6491 8.06432 17.789 8.40505 17.9326 8.74425C18.1054 9.15221 18.2798 9.55966 18.4536 9.96711C18.5215 10.126 18.5925 10.2834 18.6562 10.4433C18.6854 10.5172 18.7272 10.5436 18.8112 10.5426C19.1819 10.5375 19.5526 10.5375 19.9232 10.5426C20.0188 10.5442 20.0569 10.5126 20.0851 10.424C20.3054 9.73384 20.532 9.04525 20.7575 8.35667C20.9188 7.86518 21.0833 7.37522 21.2441 6.88323C21.4336 6.30211 21.6221 5.72098 21.8064 5.13833C21.8956 4.85567 22.1311 4.79149 22.366 4.90405C22.5012 4.96873 22.5513 5.14648 22.4939 5.3227C22.331 5.82183 22.1687 6.32095 22.0047 6.81957C21.7672 7.54177 21.5281 8.26295 21.2911 8.98515C21.1042 9.55456 20.9183 10.1245 20.733 10.6944C20.6322 11.0036 20.3414 11.2159 20.0334 11.2271C19.5912 11.2271 19.1485 11.2271 18.7063 11.2271L18.7068 11.2266Z" fill="#202020"/>
  <path d="M20.8203 21.1671C20.8971 20.7026 21.2145 20.4923 21.6567 20.4138C21.6687 20.4118 21.6823 20.4154 21.6943 20.4123C21.8885 20.3655 21.8806 20.367 21.8389 20.1791C21.7903 19.9595 21.7412 19.7385 21.7214 19.5154C21.6885 19.1538 21.8728 18.8823 22.1819 18.7163C22.5144 18.537 22.8689 18.3954 23.2177 18.2457C23.3414 18.1927 23.5476 18.2569 23.6118 18.3496C23.7068 18.4861 23.699 18.6852 23.581 18.8003C23.5288 18.8513 23.4562 18.8849 23.3884 18.9165C23.1279 19.0377 22.8642 19.1528 22.6032 19.274C22.4147 19.3616 22.3855 19.4451 22.444 19.7074C22.4748 19.8455 22.5129 19.9819 22.5416 20.12C22.5541 20.1796 22.5614 20.1948 22.6356 20.1765C23.3602 19.9962 24.0869 19.8251 24.8126 19.6489C25.0115 19.6005 25.153 19.6896 25.2276 19.9224C25.2673 20.0456 25.1561 20.2544 25.0188 20.2916C24.6513 20.3904 24.2822 20.4841 23.9131 20.5758C23.5194 20.6736 23.1253 20.7668 22.7149 20.8656C22.7321 20.9644 22.7468 21.0688 22.7697 21.1707C22.8078 21.3393 22.8522 21.5063 22.8929 21.6739C22.9248 21.8043 23.0141 21.8776 23.1472 21.8776C23.4677 21.8776 23.7893 21.8679 24.1094 21.8801C24.4602 21.8934 24.5474 22.1755 24.4174 22.4139C24.3662 22.5076 24.2754 22.558 24.1668 22.5591C23.7752 22.5621 23.3832 22.5703 22.9921 22.5565C22.7702 22.5489 22.5974 22.4175 22.4429 22.2682C22.2116 22.0447 22.185 21.7442 22.1187 21.4589C22.0921 21.3438 22.0733 21.2272 22.0399 21.1141C22.0315 21.0861 21.9757 21.0484 21.9469 21.053C21.8399 21.0688 21.7324 21.0922 21.6321 21.1299C21.5872 21.1467 21.558 21.2033 21.5215 21.2415C21.5215 21.6494 21.5215 22.0574 21.5215 22.4653C21.5121 22.4903 21.5021 22.5153 21.4927 22.5407C21.4358 22.6905 21.2787 22.7633 21.0803 22.7312C20.9806 22.7154 20.849 22.5692 20.8407 22.4653C20.8417 22.0584 20.8428 21.652 20.8422 21.245C20.8422 21.2196 20.8287 21.1941 20.8214 21.1686L20.8203 21.1671Z" fill="#202020"/>
  <path d="M14.7894 22.5509C14.6437 22.4969 14.5377 22.4053 14.5179 22.2474C14.4944 22.0625 14.5894 21.9209 14.7894 21.8679C15.1355 21.869 15.4817 21.8705 15.8283 21.87C15.8502 21.87 15.8722 21.8567 15.8941 21.8496C16.0544 21.8236 16.0742 21.7753 16.1149 21.6087C16.176 21.3607 16.224 21.1096 16.2794 20.8514C15.8842 20.7536 15.4817 20.6522 15.0781 20.5544C14.7351 20.4709 14.3905 20.3925 14.047 20.3095C13.8538 20.2626 13.7124 20.0431 13.7714 19.8653C13.834 19.6774 14 19.5878 14.2287 19.6453C14.9293 19.822 15.632 19.9901 16.3342 20.1602C16.365 20.1679 16.3989 20.1612 16.4386 20.1612C16.4819 19.9514 16.5253 19.7436 16.5676 19.5358C16.5926 19.4141 16.5462 19.3336 16.4287 19.2796C16.1196 19.1391 15.8121 18.9939 15.5057 18.8472C15.3611 18.778 15.3036 18.6562 15.3182 18.5029C15.3308 18.3685 15.4007 18.26 15.5375 18.2361C15.6378 18.2187 15.7583 18.2238 15.8502 18.262C16.175 18.3975 16.4908 18.5523 16.8108 18.699C17.0797 18.8223 17.1956 19.0504 17.2697 19.3143C17.3308 19.5307 17.2457 19.7288 17.2107 19.9331C17.1904 20.0528 17.1523 20.1694 17.1309 20.2891C17.1277 20.3084 17.1674 20.3477 17.1946 20.3568C17.3757 20.4174 17.5673 20.4551 17.7401 20.5325C18.0179 20.6568 18.1379 20.8972 18.1698 21.1845C18.1698 21.5929 18.1698 22.0014 18.1698 22.4099C18.1364 22.5881 18.02 22.7149 17.8806 22.7241C17.6676 22.7378 17.5564 22.6589 17.4707 22.4338C17.478 22.4083 17.4916 22.3823 17.4916 22.3569C17.4932 22.0004 17.4932 21.6444 17.4916 21.2878C17.4916 21.2619 17.4775 21.2359 17.4702 21.2104C17.407 21.1707 17.3486 21.1187 17.2797 21.0933C17.1867 21.0592 17.0865 21.0454 16.9696 21.0184C16.9361 21.1641 16.9048 21.3153 16.8667 21.4646C16.8197 21.65 16.7868 21.842 16.7127 22.0167C16.5905 22.3054 16.3493 22.4674 16.0377 22.5311C16.0225 22.5341 16.0089 22.5438 15.9943 22.5504C15.9724 22.5433 15.9499 22.5301 15.928 22.5301C15.5709 22.5285 15.2138 22.5285 14.8567 22.5301C14.8343 22.5301 14.8124 22.5433 14.7904 22.5504L14.7894 22.5509Z" fill="#202020"/>
  <path d="M15.317 25.7107C15.317 25.9384 15.3254 26.1661 15.3144 26.3932C15.305 26.5954 15.1735 26.7808 14.9323 26.766C14.7626 26.7559 14.6175 26.6204 14.6169 26.4533C14.6159 26.0102 14.6232 25.5676 14.6128 25.125C14.6096 25.0033 14.5814 24.8689 14.5204 24.765C14.4499 24.6453 14.3361 24.547 14.2301 24.4512C14.0677 24.3056 13.8933 24.1726 13.7284 24.03C13.531 23.8594 13.3431 23.6791 13.1431 23.5115C12.9155 23.3211 12.8158 23.0679 12.7422 22.797C12.6106 22.3126 12.4764 21.8293 12.3418 21.3454C12.2702 21.0888 12.1914 20.8341 12.122 20.5769C12.0713 20.3885 12.1773 20.2189 12.371 20.1633C12.5568 20.1099 12.7432 20.2036 12.798 20.392C12.9333 20.8591 13.0622 21.3276 13.1933 21.7957C13.2872 22.1318 13.3582 22.4761 13.4835 22.8011C13.5415 22.9518 13.6955 23.073 13.8218 23.1917C13.9837 23.3435 14.1622 23.4784 14.3324 23.6216C14.5219 23.7805 14.7156 23.9348 14.8973 24.1018C15.1218 24.3081 15.2716 24.5612 15.2899 24.8653C15.3066 25.1464 15.2935 25.4296 15.2935 25.7118C15.3019 25.7118 15.3102 25.7118 15.3186 25.7118L15.317 25.7107Z" fill="#202020"/>
  <path d="M24.5752 26.4558C24.5313 26.5337 24.4958 26.6188 24.441 26.6885C24.3491 26.8052 24.216 26.793 24.0933 26.7532C23.9419 26.7043 23.8719 26.6009 23.8714 26.4604C23.8709 25.9363 23.8599 25.4117 23.8756 24.8876C23.8845 24.5876 24.0406 24.3376 24.264 24.1354C24.429 23.9861 24.6065 23.8507 24.7756 23.706C25.0012 23.5135 25.2178 23.3103 25.4501 23.1264C25.6444 22.9726 25.7101 22.7618 25.7707 22.5443C25.9174 22.0192 26.062 21.4936 26.2087 20.969C26.2604 20.7841 26.3121 20.5992 26.3711 20.4169C26.4426 20.1964 26.6076 20.12 26.8488 20.1882C26.9929 20.229 27.0926 20.4317 27.0419 20.6089C26.8039 21.4457 26.5642 22.2825 26.3199 23.1173C26.2479 23.3628 26.0479 23.5217 25.8673 23.6877C25.7096 23.8323 25.5373 23.9617 25.3734 24.0997C25.1776 24.2642 24.9829 24.4287 24.7902 24.5968C24.6832 24.69 24.5924 24.7949 24.5752 24.9426C24.5752 25.4474 24.5752 25.9521 24.5752 26.4568V26.4558Z" fill="#202020"/>
  <path d="M21.2398 36.1568C21.1913 36.3401 21.1083 36.4899 20.8838 36.497C20.7073 36.5026 20.5361 36.3406 20.5361 36.1695C20.5361 35.5889 20.5471 35.0078 20.5314 34.4272C20.5241 34.1582 20.7883 33.8679 21.1025 33.8379C21.374 33.8119 21.6434 33.7727 21.9144 33.7426C22.0929 33.7228 22.2725 33.708 22.4516 33.6932C22.5701 33.6831 22.6891 33.68 22.8076 33.6678C23.1595 33.6321 23.4388 33.8567 23.5244 34.1796C23.6529 34.665 23.7891 35.1478 23.9149 35.6337C23.9583 35.8018 23.7907 36.0167 23.6184 36.0132C23.3887 36.0086 23.2686 35.9215 23.2096 35.7025C23.0979 35.2864 22.971 34.8738 22.8666 34.4557C22.8374 34.338 22.7711 34.3447 22.6907 34.3528C22.4761 34.3742 22.2615 34.3986 22.0475 34.4251C21.7854 34.4572 21.5244 34.4924 21.2628 34.526C21.2539 34.5448 21.2378 34.5637 21.2378 34.5825C21.2378 35.1076 21.2393 35.6322 21.2404 36.1573L21.2398 36.1568Z" fill="#202020"/>
  <path d="M18.4076 36.1749C18.3262 36.4096 18.2212 36.5018 18.0296 36.4886C17.8605 36.4769 17.7644 36.3704 17.7096 36.2227C17.7164 36.2008 17.7294 36.1784 17.7294 36.1565C17.7305 35.6385 17.7305 35.1201 17.7289 34.6021C17.7289 34.5736 17.7112 34.5451 17.7018 34.5165C17.4355 34.4834 17.1698 34.4483 16.9035 34.4187C16.7208 34.3984 16.537 34.3856 16.3543 34.3683C16.2692 34.3602 16.1846 34.3485 16.0891 34.3373C15.993 34.6861 15.8996 35.0289 15.8051 35.3717C15.7644 35.5189 15.7262 35.6671 15.6782 35.8117C15.6265 35.9671 15.3394 36.1137 15.1467 35.9375C15.0136 35.8163 14.9802 35.6879 15.0293 35.5209C15.1666 35.0508 15.2924 34.5777 15.4318 34.1081C15.5106 33.8417 15.7727 33.6492 16.0504 33.665C16.3804 33.6838 16.7083 33.7266 17.0377 33.7587C17.2935 33.7836 17.5504 33.8045 17.8056 33.833C18.1429 33.8707 18.3554 34.0383 18.4092 34.4152C18.4092 35.0019 18.4092 35.5886 18.4092 36.1754L18.4076 36.1749Z" fill="#202020"/>
  <path d="M22.7285 29.3725V29.1071C22.4037 29.1071 22.0842 29.1071 21.7647 29.1071C21.5998 29.1071 21.4457 28.9543 21.4306 28.7776C21.4181 28.6335 21.535 28.4741 21.689 28.4511C21.8263 28.4308 21.9668 28.4282 22.1062 28.4252C22.3098 28.4211 22.5134 28.4241 22.7311 28.4241C22.7206 28.2836 22.7191 28.1415 22.8355 28.0473C22.8914 28.0024 22.9718 27.9719 23.0443 27.9642C23.2469 27.9423 23.3555 28.0284 23.4343 28.2515C23.4343 29.0496 23.4343 29.8482 23.4343 30.6463C23.3957 30.7853 23.3356 30.8979 23.1733 30.9406C22.9639 30.9957 22.7347 30.8434 22.7316 30.632C22.729 30.4497 22.7285 30.2668 22.7274 30.0845C22.7086 30.0758 22.6893 30.0601 22.6705 30.0601C22.4737 30.0595 22.2774 30.0616 22.0806 30.0626C21.9281 30.0488 21.7887 29.9129 21.7814 29.7718C21.771 29.5614 21.865 29.4326 22.0534 29.3979C22.2461 29.3985 22.4382 29.4005 22.6308 29.3985C22.6637 29.3985 22.6966 29.3811 22.7295 29.372L22.7285 29.3725Z" fill="#202020"/>
  <path d="M16.2282 30.6715C16.1478 30.9068 15.963 31.0183 15.7646 30.9338C15.6529 30.8864 15.5631 30.8013 15.5469 30.6694C15.5469 29.8561 15.5469 29.0422 15.5469 28.2288C15.5808 28.0592 15.7244 27.9528 15.9071 27.9614C16.1259 27.9716 16.2042 28.0806 16.2334 28.4249C16.5388 28.4249 16.8447 28.4244 17.1512 28.4249C17.3209 28.4249 17.4749 28.5329 17.5208 28.6811C17.5574 28.7987 17.4749 28.9958 17.3496 29.0682C17.3068 29.0926 17.2509 29.1053 17.2003 29.1059C16.8808 29.1089 16.5607 29.1074 16.2266 29.1074V29.3722C16.2595 29.3814 16.2924 29.3982 16.3253 29.3987C16.5179 29.4007 16.71 29.3987 16.9027 29.3982C17.0718 29.4288 17.2024 29.5709 17.1987 29.7201C17.1945 29.8795 17.063 30.0308 16.9006 30.0628C16.685 30.0628 16.4694 30.0618 16.2532 30.0613C16.2438 30.0944 16.2261 30.127 16.2256 30.1601C16.2235 30.3307 16.2256 30.5014 16.2261 30.672L16.2282 30.6715Z" fill="#202020"/>
  <path d="M7.55528 9.84931C7.54119 9.70008 7.61167 9.59465 7.74949 9.54474C7.88889 9.49432 8.02932 9.50654 8.15097 9.60382C8.15723 9.60891 8.16193 9.61553 8.16819 9.62165C8.56862 10.0041 8.96853 10.3866 9.36948 10.7686C9.68376 11.0681 10.0001 11.366 10.3139 11.6665C10.4444 11.7913 10.4679 11.9579 10.3828 12.1224C10.3191 12.2451 10.163 12.3108 9.99231 12.2772C9.94845 12.2685 9.90408 12.2375 9.87067 12.2059C9.49791 11.854 9.12776 11.5 8.75657 11.146C8.39164 10.7982 8.0241 10.4528 7.66387 10.0999C7.6007 10.0383 7.56938 9.94608 7.52344 9.86815C7.5344 9.86204 7.54484 9.85593 7.55581 9.84931H7.55528Z" fill="#202020"/>
  <path d="M7.88239 15.3054C7.66312 15.2386 7.43341 15.1714 7.20474 15.0996C6.51143 14.8806 5.81864 14.659 5.12534 14.439C5.03397 14.41 4.93791 14.3927 4.85125 14.355C4.67374 14.2781 4.5829 14.0779 4.64399 13.9205C4.71603 13.7352 4.90659 13.6521 5.11385 13.7173C5.61713 13.8757 6.11988 14.0336 6.62263 14.193C7.07579 14.3367 7.52634 14.4894 7.98263 14.6219C8.15021 14.6703 8.22748 14.7787 8.25097 14.9193C8.2729 15.0507 8.19981 15.1684 8.08339 15.2427C8.03274 15.2753 7.96383 15.2814 7.88134 15.3059L7.88239 15.3054Z" fill="#202020"/>
  <path d="M17.7031 34.5156C17.7126 34.5441 17.7304 34.5727 17.7304 34.6012C17.7319 35.1192 17.7319 35.6376 17.7309 36.1556C17.7309 36.1775 17.7178 36.1999 17.711 36.2218C17.7094 35.714 17.7078 35.2063 17.7063 34.6985C17.7063 34.6374 17.7042 34.5767 17.7031 34.5156Z" fill="#202020"/>
  <path d="M21.8594 32.435C21.8855 32.4277 21.9116 32.4141 21.9377 32.4141C22.3799 32.4141 22.8216 32.4151 23.2637 32.4162C23.2371 32.4235 23.2105 32.4376 23.1839 32.4376C22.7422 32.4376 22.3005 32.4366 21.8594 32.4355V32.435Z" fill="#202020"/>
  <path d="M15.5156 32.4358C15.5381 32.4285 15.56 32.4148 15.5824 32.4148C16.0064 32.4138 16.4303 32.4138 16.8537 32.4148C16.8761 32.4148 16.8981 32.4285 16.9205 32.4358H15.5161H15.5156Z" fill="#202020"/>
  <path d="M16.9257 31.7292C16.8943 31.7365 16.863 31.7496 16.8317 31.7496C16.4036 31.7501 15.975 31.7496 15.5469 31.7486C15.5683 31.7407 15.5897 31.7266 15.6111 31.7266C16.0491 31.7266 16.4876 31.7281 16.9257 31.7292Z" fill="#202020"/>
  <path d="M23.2444 31.7486C22.8241 31.7491 22.4043 31.7501 21.9841 31.7496C21.9528 31.7496 21.9219 31.7365 21.8906 31.7297C22.3245 31.7287 22.7588 31.7271 23.1927 31.7266C23.2099 31.7266 23.2271 31.7407 23.2444 31.7486Z" fill="#202020"/>
  <path d="M18.7109 11.2266C19.1531 11.2266 19.5958 11.2266 20.038 11.2266C20.0114 11.2334 19.9843 11.2465 19.9576 11.247C19.5692 11.2486 19.1803 11.2486 18.7919 11.247C18.7652 11.247 18.7381 11.2339 18.7115 11.2266H18.7109Z" fill="#202020"/>
  <path d="M18.1562 22.3954C18.1562 21.9876 18.1562 21.5797 18.1562 21.1719C18.1641 21.1927 18.1783 21.2136 18.1783 21.2344C18.1798 21.6006 18.1798 21.9667 18.1783 22.3329C18.1783 22.3537 18.1641 22.3746 18.1562 22.3954Z" fill="#202020"/>
  <path d="M19.833 30.1206C19.8257 30.0626 19.8115 30.0046 19.8126 29.9467C19.8167 29.7351 19.8257 29.5235 19.833 29.3125C19.833 29.582 19.833 29.8511 19.833 30.1206Z" fill="#202020"/>
  <path d="M18.9844 29.3443C18.9912 29.4422 19.0048 29.5401 19.0038 29.6375C19.0022 29.7912 18.9912 29.9449 18.9844 30.0986C18.9844 29.847 18.9844 29.5954 18.9844 29.3438V29.3443Z" fill="#202020"/>
  <path d="M16.9105 29.3861C16.7178 29.3866 16.5252 29.3887 16.333 29.3866C16.3002 29.3866 16.2673 29.3688 16.2344 29.3594C16.4218 29.3604 16.6087 29.3604 16.7961 29.3636C16.8342 29.3641 16.8729 29.3777 16.911 29.3856L16.9105 29.3861Z" fill="#202020"/>
  <path d="M22.7464 29.3594C22.7135 29.3688 22.6806 29.3861 22.6477 29.3866C22.4551 29.3887 22.263 29.3866 22.0703 29.3861C22.1585 29.3782 22.2463 29.3667 22.335 29.3641C22.4723 29.3594 22.6096 29.3609 22.7469 29.3599L22.7464 29.3594Z" fill="#202020"/>
  <path d="M16.2633 30.0474C16.2607 30.0555 16.2607 30.0631 16.2633 30.0707C16.2617 30.2285 16.2617 30.3858 16.2581 30.5435C16.257 30.5811 16.2439 30.6181 16.236 30.6552C16.2355 30.4852 16.2329 30.3152 16.2355 30.1453C16.2355 30.1123 16.2533 30.0799 16.2633 30.0469V30.0474Z" fill="#202020"/>
  <path d="M28.5 11.8494C28.5407 11.7811 28.57 11.7017 28.6248 11.6461C28.8764 11.392 29.1338 11.1424 29.3922 10.8944C29.8062 10.4961 30.2218 10.0989 30.6394 9.70363C30.724 9.62367 30.8102 9.53759 30.9125 9.48564C31.0681 9.40721 31.2941 9.47953 31.3698 9.60788C31.4502 9.74335 31.3928 9.97662 31.2508 10.105C31.0842 10.2562 30.9182 10.4085 30.7559 10.5639C30.5533 10.7574 30.356 10.9555 30.1539 11.1496C29.8161 11.473 29.4763 11.7949 29.1374 12.1167C29.0205 12.2278 28.8853 12.2797 28.7308 12.2028C28.5934 12.1346 28.5157 12.023 28.5 11.8494Z" fill="#202020"/>
  <path d="M34.3367 13.9916C34.3356 14.1433 34.2234 14.2747 34.0469 14.3303C33.5092 14.5004 32.972 14.67 32.4342 14.8396C32.0114 14.973 31.5869 15.1034 31.1651 15.2409C30.9944 15.2964 30.7866 15.1823 30.7328 14.9975C30.6832 14.8263 30.7673 14.6526 30.9474 14.5946C31.6699 14.3613 32.393 14.1276 33.1166 13.8979C33.3755 13.8153 33.6407 13.7502 33.8981 13.6631C34.0871 13.5989 34.3612 13.7527 34.3372 13.9921L34.3367 13.9916Z" fill="#202020"/>
</svg>