<svg width="78" height="79" viewBox="0 0 78 79" fill="none" xmlns="http://www.w3.org/2000/svg">
<path d="M22.75 59.4915C15.6813 59.4525 11.8527 59.1406 9.35675 56.6413C6.5 53.7878 6.5 49.1891 6.5 39.998V26.998C6.5 17.807 6.5 13.2083 9.35675 10.3548C12.2102 7.49805 16.809 7.49805 26 7.49805H52C61.191 7.49805 65.7898 7.49805 68.6433 10.3548C70.2358 11.9473 70.941 14.0793 71.253 17.248M53.625 59.4915L56.29 59.4851C62.699 59.4168 66.274 59.0138 68.6433 56.6413C71.5 53.7878 71.5 49.1891 71.5 39.998V30.248M29.25 20.498H48.75M22.75 31.873H29.25M55.25 31.873H40.625" stroke="#1A0F0C" stroke-width="1.5" stroke-linecap="round"/>
<path d="M35.3926 46.3193C36.3986 45.4608 37.6777 44.9893 39.0001 44.9893C40.3226 44.9893 41.6017 45.4608 42.6076 46.3193C43.4949 47.0798 44.6031 47.5381 45.7699 47.6323C47.0868 47.737 48.3234 48.3075 49.2579 49.2414C50.1923 50.1753 50.7636 51.4115 50.8691 52.7284C50.9601 53.8984 51.4216 55.0035 52.1789 55.894C53.0356 56.8995 53.5061 58.1773 53.5061 59.4983C53.5061 60.8193 53.0356 62.0971 52.1789 63.1026C51.4199 63.9936 50.9615 65.1014 50.8691 66.2682C50.7642 67.5862 50.1928 68.8236 49.2576 69.7583C48.3224 70.6929 47.0847 71.2635 45.7666 71.3676C44.601 71.4606 43.4944 71.9189 42.6044 72.6773C41.5989 73.5341 40.3211 74.0046 39.0001 74.0046C37.6791 74.0046 36.4014 73.5341 35.3959 72.6773C34.5054 71.9171 33.3975 71.4576 32.2304 71.3643C30.914 71.2589 29.6782 70.6881 28.7444 69.7543C27.8106 68.8204 27.2398 67.5846 27.1344 66.2682C27.0411 65.101 26.5816 63.9932 25.8214 63.1026C24.9647 62.0971 24.4941 60.8193 24.4941 59.4983C24.4941 58.1773 24.9647 56.8995 25.8214 55.894C26.5816 55.0035 27.0411 53.8956 27.1344 52.7284C27.2398 51.412 27.8106 50.1762 28.7444 49.2424C29.6782 48.3085 30.914 47.7378 32.2304 47.6323C33.4004 47.5381 34.5021 47.0798 35.3926 46.3193Z" stroke="#1A0F0C" stroke-width="1.5"/>
<path d="M34.125 60.1479L36.9103 62.7479L43.875 56.2478" stroke="#1A0F0C" stroke-width="1.5" stroke-linecap="round" stroke-linejoin="round"/>
</svg>
