<svg width="30" height="33" viewBox="0 0 30 33" fill="none" xmlns="http://www.w3.org/2000/svg">
<path d="M29.9996 16.4132C29.9928 16.6434 29.9944 16.8739 29.9767 17.1029C29.9538 17.3939 29.9176 17.6841 29.8823 17.9738C29.8537 18.2104 29.8248 18.4473 29.7846 18.6818C29.7408 18.9362 29.689 19.1894 29.6307 19.4407C29.4989 20.0099 29.335 20.5708 29.1301 21.1181C28.9955 21.4783 28.8448 21.8329 28.6917 22.1859C28.5844 22.4327 28.4723 22.6792 28.3413 22.9145C28.1131 23.3243 27.882 23.7338 27.6273 24.1277C27.3729 24.5208 27.0957 24.9001 26.8144 25.2749C26.6348 25.5142 26.4295 25.734 26.2326 25.9666C26.4777 26.2079 26.7252 26.4571 26.9795 26.6984C27.0479 26.7632 27.037 26.7962 26.9763 26.855C26.7087 27.115 26.4455 27.3793 26.192 27.6314C25.9979 27.441 25.8079 27.2541 25.6174 27.0673C25.5583 27.0093 25.4985 26.9516 25.441 26.892C25.3992 26.8487 25.3638 26.8506 25.3196 26.8912C25.1714 27.0283 25.0251 27.1679 24.8704 27.2971C24.5851 27.5352 24.3002 27.7749 24.0029 27.9979C23.7188 28.2113 23.4235 28.4117 23.1241 28.6037C22.8441 28.7833 22.5551 28.9503 22.2646 29.1129C22.0143 29.2528 21.7583 29.3832 21.5004 29.5096C20.8133 29.8459 20.0997 30.1202 19.3659 30.336C18.8508 30.4879 18.3244 30.6047 17.7993 30.7208C17.5349 30.7792 17.2628 30.8059 16.9928 30.8377C16.6778 30.875 16.3616 30.9041 16.0453 30.9335C15.9192 30.945 15.7922 30.9478 15.6652 30.9545C15.658 30.9863 15.6443 31.0181 15.6443 31.0499C15.6427 31.3668 15.6435 31.6832 15.6435 32H14.3734C14.3734 31.6792 14.3738 31.3584 14.3726 31.0376C14.3726 31.0102 14.3597 30.9832 14.3533 30.9561C14.1576 30.9426 13.9619 30.9291 13.7666 30.9152C13.5934 30.9029 13.4195 30.8969 13.2475 30.875C13 30.8436 12.7528 30.8059 12.5073 30.7618C12.1682 30.7009 11.8275 30.6445 11.4927 30.5634C10.8571 30.41 10.2323 30.2207 9.62149 29.9846C9.03363 29.7572 8.46225 29.4977 7.90654 29.2023C7.40949 28.938 6.92972 28.6466 6.46683 28.3274C6.02523 28.0229 5.5977 27.7009 5.19548 27.3463C5.11432 27.2748 5.02953 27.2068 4.93229 27.1253C4.67192 27.3833 4.41917 27.6337 4.16884 27.8822C3.88677 27.6031 3.60108 27.3205 3.31418 27.0367C3.54563 26.8077 3.78109 26.5744 4.01696 26.3418C4.04991 26.3096 4.08205 26.2846 4.03504 26.2337C3.88154 26.068 3.72885 25.901 3.58179 25.7293C3.39937 25.5162 3.21252 25.3055 3.04617 25.0801C2.79744 24.743 2.55394 24.4008 2.32893 24.0482C2.09788 23.6865 1.88371 23.3132 1.67678 22.9372C1.53976 22.6879 1.42042 22.4279 1.30751 22.1668C1.15321 21.811 1.00414 21.4529 0.867521 21.0903C0.653755 20.5227 0.486198 19.9407 0.360429 19.3476C0.302568 19.0741 0.242295 18.8007 0.194479 18.5256C0.158717 18.3181 0.139832 18.1078 0.115321 17.8983C0.0888014 17.6733 0.0574597 17.4483 0.0405834 17.2225C0.0249126 17.0186 0.0261181 16.8135 0.0184835 16.6088C0.0180817 16.5933 0.00642906 16.5778 0 16.5623C0 16.2769 0 15.9911 0 15.7056C0.00642906 15.6901 0.0180817 15.675 0.0184835 15.6591C0.0261181 15.4544 0.0249126 15.2493 0.0405834 15.0454C0.0578615 14.8196 0.0883996 14.5946 0.115723 14.3696C0.13943 14.1728 0.160726 13.9753 0.194077 13.7801C0.242697 13.4951 0.288102 13.2089 0.35842 12.9286C0.48017 12.4421 0.608752 11.9571 0.755414 11.4773C0.848636 11.1716 0.967975 10.8719 1.09615 10.5786C1.29264 10.1302 1.49074 9.68137 1.71776 9.24769C2.02234 8.66494 2.3667 8.10325 2.7645 7.57655C3.02447 7.23271 3.29288 6.89442 3.5629 6.55813C3.68827 6.40191 3.82368 6.25284 3.96231 6.10775C4.01535 6.0521 4.0037 6.02388 3.95668 5.97816C3.66296 5.69036 3.37124 5.40018 3.0743 5.10602C3.09077 5.08694 3.10564 5.06747 3.12292 5.05037C3.36963 4.80551 3.61876 4.56302 3.86306 4.31577C3.92414 4.25416 3.96432 4.25177 4.0266 4.31418C4.3143 4.60397 4.60562 4.88938 4.88568 5.16645C5.22723 4.89415 5.56676 4.62345 5.90549 4.35274C6.41178 3.94808 6.95865 3.60145 7.51959 3.27906C8.10986 2.93959 8.72022 2.63629 9.36071 2.39699C9.67212 2.28052 9.9787 2.15013 10.2953 2.05076C10.7309 1.91441 11.1713 1.79158 11.6149 1.68266C11.9251 1.60634 12.2425 1.55784 12.5584 1.50577C12.8666 1.45489 13.1756 1.40878 13.4858 1.3738C13.7055 1.34915 13.9282 1.34796 14.1492 1.33206C14.2187 1.32729 14.2874 1.3094 14.3569 1.29747C14.3629 1.26528 14.3738 1.23268 14.3738 1.20048C14.3758 0.800984 14.3766 0.401486 14.3778 0.00198755C14.8005 0.00119253 15.2228 0.000397511 15.6455 0C15.6455 0.408641 15.6447 0.817282 15.6455 1.22592C15.6455 1.25494 15.6592 1.28356 15.6664 1.31258C15.9533 1.33206 16.2426 1.33603 16.5267 1.37459C17.0422 1.44495 17.5558 1.53161 18.0685 1.61906C18.7588 1.73672 19.4262 1.94263 20.0844 2.17438C20.4613 2.30715 20.8293 2.46655 21.1954 2.62755C21.5028 2.7631 21.8062 2.90938 22.1023 3.06719C22.4125 3.23216 22.7207 3.40388 23.0148 3.59469C23.4223 3.85864 23.8209 4.13729 24.2142 4.42191C24.4268 4.57574 24.6209 4.75462 24.8234 4.92277C24.9122 4.99631 24.9998 5.07104 25.0918 5.14856C25.3707 4.87308 25.6447 4.60238 25.9188 4.33167C25.9766 4.27443 26.0353 4.27523 26.0947 4.33406C26.3306 4.5674 26.5645 4.80233 26.8032 5.03248C26.8642 5.09132 26.8743 5.12431 26.8064 5.1891C26.5251 5.45782 26.2507 5.7333 25.971 6.00877C26.0791 6.1324 26.1872 6.24966 26.288 6.37249C26.5548 6.69686 26.8353 7.01209 27.08 7.35236C27.4011 7.79916 27.708 8.25788 27.9929 8.72774C28.2212 9.10498 28.416 9.50289 28.6109 9.89841C28.9292 10.5444 29.1811 11.217 29.3796 11.9074C29.505 12.3427 29.6086 12.7843 29.7075 13.2264C29.7786 13.5448 29.8312 13.8676 29.8807 14.1903C29.9116 14.3931 29.9261 14.599 29.9397 14.8037C29.963 15.1539 29.9803 15.5045 30 15.8551C30 16.0407 30 16.2264 30 16.4116L29.9996 16.4132ZM14.6422 30.0816C14.6723 30.0868 14.7025 30.0967 14.7326 30.0967C14.9102 30.0983 15.0878 30.0983 15.2654 30.0967C15.302 30.0967 15.3385 30.0868 15.3747 30.0816C15.6214 30.0681 15.8689 30.0586 16.1152 30.0391C16.3624 30.0196 16.6095 29.9938 16.8558 29.9632C17.1254 29.9298 17.3974 29.9039 17.6618 29.8459C18.1235 29.7445 18.5828 29.6296 19.0385 29.5052C19.5889 29.355 20.123 29.155 20.6445 28.9257C20.9772 28.779 21.3051 28.6192 21.6257 28.4486C21.9552 28.2737 22.2799 28.0877 22.5953 27.8893C23.0823 27.5833 23.5521 27.2521 23.9876 26.8769C24.2757 26.6284 24.565 26.3808 24.8439 26.122C25.046 25.9344 25.2337 25.7309 25.4241 25.5309C25.4924 25.4594 25.5503 25.3779 25.613 25.3012C25.6937 25.2105 25.7797 25.1239 25.8549 25.0289C26.114 24.7001 26.3816 24.3769 26.6227 24.0359C27.0025 23.4988 27.3428 22.9352 27.6281 22.3437C27.8386 21.9064 28.0319 21.4596 28.2067 21.0072C28.3606 20.6089 28.4964 20.2019 28.6073 19.7901C28.7254 19.352 28.8122 18.9056 28.8998 18.4604C28.9569 18.1698 28.9967 17.8753 29.0336 17.5811C29.0622 17.3553 29.0823 17.1279 29.0911 16.9006C29.104 16.5663 29.104 16.2316 29.1092 15.8972C29.104 15.8364 29.0963 15.7752 29.0935 15.7144C29.0851 15.528 29.0782 15.3411 29.0706 15.1543C29.0589 14.9929 29.0545 14.8303 29.0336 14.6697C28.9943 14.3664 28.9529 14.0631 28.8986 13.7622C28.8408 13.439 28.7833 13.1143 28.6969 12.7979C28.5736 12.3479 28.4293 11.9031 28.2838 11.459C28.1191 10.9562 27.9021 10.474 27.6683 9.99938C27.5678 9.79585 27.4589 9.5963 27.3456 9.39993C27.1925 9.1344 27.0446 8.86409 26.8711 8.61207C26.5982 8.21535 26.3166 7.8238 26.0184 7.44537C25.7612 7.11902 25.4912 6.79942 25.1991 6.50407C24.8463 6.1475 24.4678 5.81518 24.0925 5.48088C23.8924 5.30279 23.6818 5.13425 23.4649 4.97644C23.1876 4.7749 22.9047 4.57932 22.613 4.39845C22.2675 4.18459 21.9175 3.97431 21.555 3.78987C21.1323 3.57521 20.698 3.38242 20.262 3.19479C20.0117 3.08707 19.7489 3.00876 19.4913 2.91733C19.2004 2.82749 18.9127 2.72494 18.6178 2.6506C18.0154 2.49835 17.4083 2.36678 16.7883 2.30477C16.4917 2.27495 16.1956 2.23679 15.8987 2.21175C15.7058 2.19545 15.5109 2.19585 15.3172 2.18869C15.23 2.18313 15.1424 2.1724 15.0553 2.17279C14.9363 2.17359 14.817 2.18273 14.698 2.1883C14.4606 2.20181 14.2231 2.21334 13.986 2.22924C13.7405 2.24593 13.4938 2.25548 13.2503 2.28887C12.9144 2.33498 12.5781 2.38745 12.247 2.46019C11.7885 2.56116 11.3308 2.67008 10.8804 2.80086C10.0643 3.03738 9.27633 3.34903 8.52855 3.7525C8.15687 3.95324 7.78358 4.15279 7.42556 4.37619C6.94298 4.67711 6.47768 5.00347 6.04613 5.37434C5.78656 5.59735 5.52096 5.81479 5.27143 6.04852C4.85916 6.43609 4.46498 6.84195 4.1142 7.28597C3.88556 7.57536 3.65532 7.86395 3.43995 8.16288C2.97304 8.81003 2.56961 9.49494 2.23209 10.2168C2.11958 10.4577 2.00064 10.6974 1.90702 10.9459C1.74911 11.3656 1.60084 11.7898 1.46502 12.2171C1.37783 12.491 1.31555 12.7728 1.25045 13.0531C1.18737 13.3253 1.1287 13.5988 1.07928 13.8739C1.04311 14.0751 1.02302 14.279 1.00012 14.4821C0.983646 14.6276 0.970788 14.7739 0.961144 14.9198C0.941054 15.2258 0.924177 15.5319 0.906096 15.838C0.906096 16.0352 0.906096 16.2323 0.906096 16.4295C0.911319 16.5547 0.914935 16.6803 0.92257 16.8052C0.933821 16.9892 0.942259 17.174 0.961948 17.3573C0.996102 17.6749 1.02865 17.9929 1.07847 18.3085C1.13352 18.658 1.18777 19.0094 1.27737 19.3508C1.40676 19.8441 1.55101 20.3347 1.71937 20.816C1.86242 21.2247 2.03962 21.6222 2.21843 22.0173C2.34741 22.3015 2.49809 22.5766 2.65078 22.8497C2.80026 23.1172 2.95134 23.3859 3.12492 23.6384C3.39776 24.0351 3.67983 24.427 3.97798 24.8059C4.23514 25.1322 4.50717 25.4502 4.79769 25.748C5.11994 26.0783 5.4655 26.3872 5.80986 26.6956C6.02845 26.8916 6.25548 27.08 6.49215 27.2537C6.79351 27.4751 7.1025 27.6882 7.41913 27.8874C7.75304 28.0972 8.09499 28.2964 8.44296 28.482C8.7391 28.6402 9.04529 28.7818 9.35428 28.9145C9.68739 29.058 10.0233 29.1999 10.3681 29.3124C10.8426 29.4675 11.324 29.603 11.807 29.7302C12.0915 29.8053 12.3832 29.8562 12.6741 29.9039C12.9337 29.9465 13.1956 29.9755 13.4576 30.0001C13.7907 30.0315 14.1246 30.0526 14.4586 30.0772C14.5192 30.0816 14.5803 30.0796 14.641 30.0808L14.6422 30.0816Z" fill="#1A0F0C"/>
<path d="M15.641 32.0025C15.641 31.6857 15.6402 31.3693 15.6418 31.0524C15.6418 31.0206 15.6555 30.9888 15.6628 30.957C15.662 31.3056 15.6612 31.6543 15.66 32.0025H15.6406H15.641Z" fill="#1A0F0C"/>
<path d="M15.6622 1.31258C15.655 1.28356 15.6413 1.25494 15.6413 1.22592C15.6401 0.817282 15.6409 0.408641 15.6413 0C15.6473 0.0318008 15.659 0.0636017 15.659 0.0958C15.661 0.501658 15.6618 0.907119 15.6626 1.31298L15.6622 1.31258Z" fill="#1A0F0C"/>
<path d="M14.6406 30.0842H15.3731C15.3366 30.0895 15.3004 30.0995 15.2638 30.0995C15.0862 30.1011 14.9086 30.1011 14.731 30.0995C14.7009 30.0995 14.6708 30.0895 14.6406 30.0842Z" fill="#1A0F0C"/>
<path d="M15.3145 2.19068H14.6953C14.8143 2.18464 14.9336 2.17538 15.0525 2.17457C15.1397 2.17417 15.2273 2.18464 15.3145 2.19068Z" fill="#1A0F0C"/>
<path d="M0.90625 15.845C0.911484 15.9217 0.921953 15.9984 0.921147 16.0751C0.919939 16.1956 0.911484 16.316 0.90625 16.4365C0.90625 16.2393 0.90625 16.0421 0.90625 15.845Z" fill="#1A0F0C"/>
<path d="M13.0274 24.7712C13.1881 24.7625 13.3087 24.6675 13.4336 24.584C13.7386 24.3797 14.0436 24.175 14.3445 23.9651C14.5065 23.8522 14.5864 23.6872 14.6077 23.4936C14.6129 23.3732 14.6218 23.2527 14.6226 23.1323C14.6234 23.0556 14.6129 22.9789 14.6077 22.9025C14.5904 22.7161 14.4799 22.5674 14.4 22.4064C14.3646 22.3349 14.3196 22.2685 14.2859 22.1962C14.2071 22.0276 14.0641 21.9259 13.9138 21.8285C13.6856 21.6806 13.4525 21.5391 13.2347 21.3773C12.9109 21.1368 12.8333 20.8518 12.9599 20.4698C13.0728 20.1283 13.2098 19.7944 13.334 19.4565C13.4654 19.0984 13.5923 18.7386 13.7245 18.3809C13.774 18.2473 13.9347 18.194 14.0882 18.2366C14.1991 18.2676 14.2839 18.4421 14.2409 18.557C14.0496 19.0689 13.866 19.5833 13.6763 20.0957C13.6558 20.1506 13.6582 20.176 13.7133 20.2066C14.0179 20.376 14.316 20.5576 14.6246 20.719C14.799 20.8104 14.989 20.7961 15.1638 20.7019C15.4081 20.5699 15.648 20.4304 15.8907 20.2953C15.9635 20.2547 16.0394 20.2205 16.1113 20.1788C16.1555 20.1534 16.1748 20.1204 16.1527 20.0615C16.0189 19.7073 15.8895 19.3516 15.7597 18.9962C15.7055 18.8471 15.6516 18.6981 15.6002 18.5478C15.558 18.425 15.6187 18.2914 15.7356 18.2401C15.8686 18.1821 16.0318 18.223 16.0852 18.3439C16.1603 18.514 16.2214 18.6897 16.2861 18.8642C16.487 19.4048 16.6879 19.9455 16.886 20.4873C16.9933 20.7806 16.9415 21.0545 16.7285 21.2779C16.6156 21.3964 16.4601 21.4755 16.3215 21.5689C16.137 21.6933 15.9482 21.8114 15.7654 21.9378C15.6183 22.0395 15.5524 22.2033 15.4724 22.3524C15.3905 22.5054 15.3238 22.666 15.2526 22.8246C15.2458 22.8401 15.2546 22.8624 15.2563 22.8815C15.2506 23.0468 15.2438 23.2118 15.2406 23.3772C15.2398 23.4225 15.2506 23.4678 15.2563 23.5131C15.2342 23.6447 15.2892 23.7584 15.3768 23.8403C15.5006 23.9563 15.6428 24.0545 15.783 24.1523C16.0422 24.3324 16.3022 24.5109 16.569 24.6794C16.6461 24.7283 16.7466 24.7414 16.8362 24.7708C16.8603 24.776 16.884 24.7859 16.9081 24.7859C17.2316 24.7863 17.5546 24.7859 17.8781 24.7851C18.034 24.813 18.1059 24.8881 18.1067 25.0221C18.1075 25.1831 18.0376 25.2761 17.8966 25.3031C17.5563 25.3023 17.2163 25.3015 16.876 25.3015C16.8559 25.3015 16.8358 25.3119 16.8157 25.3174C16.5569 25.3015 16.3363 25.191 16.1286 25.0471C15.8923 24.8833 15.6537 24.7231 15.4182 24.5582C15.2559 24.4445 15.0738 24.3542 14.9601 24.1817C14.9521 24.1694 14.8934 24.169 14.8846 24.1813C14.7476 24.3753 14.5394 24.4814 14.3498 24.6102C14.089 24.7871 13.8286 24.964 13.5658 25.1377C13.4224 25.2323 13.2665 25.2967 13.0905 25.3015C13.0696 25.3019 13.0491 25.3119 13.0286 25.3174C13.0113 25.3119 12.9944 25.3015 12.9772 25.3015C12.6509 25.3007 12.3246 25.3007 11.9987 25.3015C11.9815 25.3015 11.9646 25.3119 11.9473 25.3174C11.8521 25.2789 11.7677 25.2244 11.7388 25.1218C11.6913 24.9525 11.7854 24.8181 11.9658 24.7855C12.2953 24.7859 12.6252 24.7867 12.9547 24.7863C12.9788 24.7863 13.0029 24.776 13.027 24.7708L13.0274 24.7712ZM16.3637 20.6514C16.297 20.6876 16.2375 20.7194 16.1784 20.7528C15.9365 20.8884 15.6958 21.0271 15.4523 21.1599C15.0907 21.357 14.719 21.3781 14.3506 21.1873C14.1042 21.0597 13.8692 20.9102 13.6281 20.7723C13.5743 20.7417 13.5168 20.7174 13.4629 20.6912C13.4119 20.8232 13.4883 20.8963 13.5718 20.9547C13.7896 21.107 14.0098 21.2564 14.2348 21.3976C14.439 21.5256 14.6202 21.6699 14.7291 21.8913C14.7841 22.0038 14.8536 22.1091 14.9236 22.2288C14.9878 22.1091 15.0357 21.9914 15.1084 21.8913C15.2008 21.7641 15.2968 21.6297 15.4206 21.5367C15.6995 21.3272 15.9964 21.1412 16.2857 20.9452C16.3958 20.8709 16.4215 20.7802 16.3637 20.6514Z" fill="#1A0F0C"/>
<path d="M21.4559 5.5636C21.3607 5.71743 21.2703 5.87445 21.1686 6.02391C20.8227 6.53352 20.4731 7.04075 20.1243 7.54876C19.8085 8.00868 19.4931 8.46821 19.1764 8.92733C19.0643 9.08951 18.9494 9.24971 18.8289 9.42064C19.1294 9.70844 19.4276 9.99385 19.7249 10.2797C19.8121 10.3635 19.9021 10.4458 19.9821 10.5365C20.0327 10.5937 20.0889 10.5941 20.1532 10.5861C20.3955 10.5555 20.637 10.513 20.8801 10.4971C21.1614 10.4792 21.3647 10.6152 21.5114 10.8513C21.7038 11.1621 21.9092 11.465 22.1016 11.7759C22.1977 11.9309 22.3387 12.0657 22.3588 12.2577C22.3697 12.3606 22.3837 12.4743 22.352 12.5689C22.2294 12.9366 22.09 13.2988 21.9558 13.6625C21.9224 13.7527 21.9317 13.7619 22.0438 13.7877C22.321 13.8513 22.5971 13.9209 22.8743 13.9849C23.3087 14.085 23.7439 14.182 24.1782 14.2822C24.4555 14.3462 24.7319 14.415 25.0092 14.479C25.4436 14.5791 25.8783 14.6773 26.3127 14.7767C26.3545 14.7862 26.3951 14.7998 26.436 14.8113C26.698 14.8721 26.9604 14.9329 27.2224 14.9937C27.2706 15.0049 27.3208 15.01 27.3666 15.0275C27.5013 15.0784 27.5571 15.2116 27.5298 15.3249C27.5021 15.439 27.4181 15.5562 27.2766 15.5355C27.0773 15.5065 26.8792 15.4664 26.6828 15.4219C26.2211 15.3173 25.7606 15.208 25.2997 15.0999C24.9324 15.0136 24.5656 14.9242 24.1979 14.8395C23.6547 14.7151 23.1106 14.5946 22.5674 14.4706C22.272 14.403 21.9743 14.3422 21.6834 14.2583C21.4628 14.1947 21.2872 13.9419 21.3884 13.6661C21.5327 13.2737 21.6693 12.8782 21.8148 12.4862C21.8417 12.4143 21.8352 12.3547 21.7971 12.2958C21.5359 11.8932 21.2747 11.4909 21.0087 11.0914C20.9866 11.058 20.9275 11.0266 20.889 11.0298C20.721 11.0449 20.5551 11.0779 20.3875 11.0954C20.1524 11.1196 19.9121 11.1685 19.7008 11.0071C19.6859 10.9956 19.6703 10.9848 19.657 10.9717C19.2371 10.5635 18.8172 10.1556 18.3985 9.7458C18.2526 9.6027 18.2322 9.3471 18.3487 9.17498C18.6593 8.71625 18.9687 8.25673 19.2817 7.79919C19.5931 7.34405 19.9081 6.89128 20.2211 6.43732C20.4731 6.07201 20.7238 5.7063 20.9762 5.34139C21.0248 5.27103 21.1686 5.23446 21.2719 5.26228C21.3744 5.28971 21.4459 5.37438 21.4523 5.47734C21.4543 5.50596 21.4547 5.53418 21.4555 5.5628L21.4559 5.5636Z" fill="#1A0F0C"/>
<path d="M8.04983 13.7997C7.91281 13.4268 7.77579 13.0611 7.6448 12.693C7.56645 12.4728 7.57328 12.2557 7.70548 12.0534C7.97751 11.6364 8.24793 11.2178 8.52438 10.8036C8.64091 10.6287 8.80846 10.5194 9.02705 10.5325C9.26493 10.5468 9.5016 10.5798 9.73867 10.6061C9.86162 10.6196 9.96288 10.6104 10.0637 10.5075C10.4133 10.1513 10.7778 9.80906 11.1446 9.45409C11.014 9.26249 10.8846 9.07287 10.7553 8.88366C10.5049 8.51755 10.2554 8.15145 10.0047 7.78574C9.68965 7.32582 9.37422 6.8659 9.05759 6.40717C8.89807 6.17621 8.73292 5.94924 8.57581 5.71709C8.47013 5.56087 8.49223 5.32872 8.75462 5.28062C8.85989 5.26115 8.95874 5.30964 9.02223 5.40306C9.28019 5.78188 9.53615 6.1623 9.79492 6.54073C10.1079 6.99827 10.423 7.45461 10.7376 7.91135C11.0297 8.3351 11.3226 8.75805 11.6143 9.18219C11.7522 9.38254 11.7204 9.63138 11.5649 9.79356C11.3797 9.98675 11.1864 10.1728 10.9943 10.3596C10.7806 10.5679 10.5656 10.7754 10.3478 10.9797C10.2462 11.0751 10.1248 11.1268 9.98136 11.1419C9.75353 11.1658 9.53495 11.1117 9.31314 11.0835C9.25086 11.0755 9.18697 11.0751 9.1259 11.0624C9.01218 11.039 8.95955 11.1101 8.90892 11.1888C8.66501 11.5688 8.4195 11.9481 8.17962 12.3305C8.15431 12.3706 8.14346 12.4374 8.15832 12.4811C8.29615 12.889 8.43156 13.2976 8.58666 13.6991C8.68551 13.9551 8.47937 14.2516 8.23869 14.3017C7.86018 14.3808 7.48528 14.4762 7.10838 14.5621C6.56794 14.6853 6.02709 14.805 5.48665 14.9278C5.05228 15.0268 4.61832 15.1289 4.18396 15.2283C3.73151 15.3317 3.27867 15.435 2.82542 15.5356C2.6888 15.5662 2.58031 15.5161 2.50356 15.3977C2.46338 15.3357 2.46579 15.1663 2.52607 15.1099C2.5771 15.0622 2.64741 15.0232 2.71572 15.0065C3.15491 14.9004 3.5957 14.801 4.03569 14.7C4.45197 14.6046 4.86825 14.5096 5.28494 14.415C5.75868 14.3073 6.23282 14.2004 6.70656 14.0926C7.12606 13.9972 7.54515 13.901 7.96505 13.8056C7.98916 13.8001 8.01488 13.8021 8.04903 13.8001L8.04983 13.7997Z" fill="#1A0F0C"/>
<path d="M26.2852 18.7118C26.5186 18.8302 26.7505 18.9515 26.986 19.0655C27.1009 19.1212 27.1515 19.2146 27.1491 19.3295C27.1467 19.4464 27.078 19.5294 26.9634 19.5716C26.855 19.6117 26.7633 19.5652 26.6713 19.5187C26.3434 19.3529 26.0156 19.1868 25.6873 19.0218C25.312 18.833 24.9363 18.6462 24.561 18.457C24.2162 18.2832 23.8727 18.1071 23.5279 17.9334C23.1667 17.7514 22.8042 17.5721 22.443 17.3896C22.3333 17.3344 22.2264 17.2732 22.0999 17.2048C22.0673 17.3264 22.0392 17.4334 22.0095 17.5399C21.9347 17.8078 21.858 18.0753 21.784 18.3433C21.7427 18.4935 21.7953 18.608 21.9363 18.7201C22.0737 18.829 22.2059 18.9451 22.3385 19.0596C22.5977 19.283 22.8561 19.5076 23.1144 19.7322C23.233 19.8355 23.3499 19.9405 23.4685 20.0438C23.7292 20.2708 23.9908 20.4962 24.2508 20.7236C24.3858 20.8416 24.5172 20.9641 24.653 21.0817C24.8945 21.2912 25.1392 21.4979 25.3807 21.7078C25.5185 21.8274 25.6608 21.9443 25.7869 22.0751C25.9372 22.2309 25.8874 22.3959 25.7391 22.5112C25.6672 22.5672 25.496 22.5378 25.4169 22.467C25.3349 22.3935 25.2521 22.3208 25.1697 22.2476C25.0371 22.1335 24.9045 22.0194 24.7723 21.905C24.5112 21.6788 24.2496 21.453 23.99 21.2256C23.7983 21.0575 23.6099 20.8853 23.4178 20.718C23.1743 20.5057 22.9272 20.297 22.6833 20.0852C22.5005 19.9262 22.3205 19.764 22.1384 19.6042C21.9283 19.4201 21.7141 19.24 21.5064 19.0532C21.2424 18.8155 21.1721 18.5233 21.2665 18.1851C21.3778 17.7844 21.4762 17.3801 21.5932 16.981C21.6695 16.721 21.9608 16.5493 22.2518 16.6908C22.7906 16.9528 23.3254 17.2235 23.861 17.4914C24.201 17.6615 24.5393 17.8341 24.8788 18.005C25.2376 18.1855 25.5965 18.3651 25.9553 18.5452C26.0654 18.6005 26.1751 18.6561 26.2848 18.7118H26.2852Z" fill="#1A0F0C"/>
<path d="M7.90273 17.2215C7.33055 17.5069 6.76881 17.7859 6.20827 18.0666C5.86834 18.2367 5.52961 18.4088 5.19007 18.5802C4.83125 18.761 4.47243 18.9419 4.11401 19.1232C3.8247 19.2694 3.53579 19.4169 3.24608 19.5628C3.11349 19.6296 2.94794 19.5723 2.88284 19.43C2.83221 19.3199 2.85954 19.1518 3.00379 19.0798C3.52695 18.8199 4.04851 18.5567 4.57047 18.2951C4.92969 18.1155 5.28932 17.9366 5.64814 17.7561C6.00415 17.5768 6.35936 17.396 6.71577 17.2167C7.06374 17.0418 7.41212 16.8689 7.76049 16.6948C8.01886 16.5656 8.34152 16.7142 8.40942 16.9957C8.50827 17.4055 8.62922 17.8106 8.74213 18.2172C8.83294 18.5444 8.7357 18.8918 8.44277 19.1089C8.31419 19.2043 8.20128 19.3203 8.08034 19.4257C7.82197 19.6507 7.56239 19.8737 7.30443 20.099C7.17143 20.2151 7.04244 20.3352 6.90904 20.4508C6.66474 20.6627 6.41842 20.8722 6.17412 21.0837C6.04795 21.193 5.92499 21.3059 5.79922 21.4156C5.53885 21.6426 5.27686 21.868 5.01649 22.0957C4.87866 22.2162 4.74285 22.3382 4.60784 22.4619C4.52185 22.5406 4.35912 22.5696 4.27674 22.5175C4.14977 22.4368 4.09311 22.3017 4.1574 22.1729C4.19477 22.0973 4.26589 22.0357 4.33059 21.9773C4.4656 21.8556 4.60704 21.7408 4.74486 21.6219C4.9972 21.4049 5.24954 21.1874 5.50068 20.9692C5.62443 20.8619 5.74538 20.7514 5.86874 20.644C6.13153 20.4147 6.39552 20.1865 6.65831 19.9575C6.77443 19.8562 6.88935 19.7536 7.00588 19.6522C7.26907 19.4233 7.53266 19.1947 7.79545 18.9657C7.91398 18.8624 8.03413 18.7602 8.14905 18.6529C8.23343 18.5738 8.2495 18.4756 8.21816 18.3635C8.12413 18.0244 8.03533 17.6838 7.94412 17.3443C7.93327 17.3045 7.918 17.2656 7.90313 17.2227L7.90273 17.2215Z" fill="#1A0F0C"/>
<path d="M9.65468 21.2279C9.50561 21.4974 9.36095 21.7598 9.21509 22.0213C8.9728 22.4554 8.72849 22.8879 8.487 23.3224C8.32748 23.609 8.17318 23.8984 8.01406 24.1854C7.76775 24.6306 7.52023 25.0758 7.27111 25.5198C7.21043 25.6279 7.05814 25.7003 6.92273 25.6244C6.79053 25.5504 6.72464 25.3926 6.79294 25.269C6.99265 24.9061 7.19798 24.5467 7.39888 24.1846C7.52706 23.954 7.64922 23.7203 7.77739 23.4901C8.01768 23.0584 8.26118 22.6287 8.50107 22.197C8.6638 21.9049 8.82011 21.6095 8.98485 21.3185C9.0829 21.1452 9.17652 20.9663 9.29787 20.8097C9.4602 20.6002 9.80978 20.6273 9.99381 20.7994C10.2204 21.0113 10.4394 21.2319 10.6769 21.4314C10.865 21.5892 10.9839 21.7824 11.0156 22.0142C11.0357 22.1613 11.0084 22.3191 10.9783 22.4673C10.8979 22.8609 10.8055 23.252 10.7163 23.6436C10.6504 23.9334 10.5801 24.2223 10.5146 24.5125C10.4266 24.9013 10.3422 25.2913 10.2546 25.68C10.1891 25.9698 10.1204 26.2592 10.0525 26.5486C10.0059 26.7481 9.96247 26.9489 9.90903 27.1468C9.86965 27.2927 9.72982 27.3774 9.60686 27.3432C9.44373 27.2979 9.35734 27.1504 9.3935 26.993C9.50279 26.518 9.60807 26.0422 9.71656 25.5667C9.78286 25.2769 9.85438 24.9883 9.91988 24.6986C10.0079 24.3094 10.0907 23.9194 10.1782 23.5303C10.2437 23.2405 10.3145 22.9515 10.3816 22.6621C10.4169 22.5099 10.4611 22.3584 10.4816 22.2038C10.5001 22.067 10.4487 21.9502 10.3346 21.8564C10.2052 21.7502 10.0886 21.6282 9.96569 21.5141C9.86443 21.4199 9.76197 21.3273 9.65428 21.2287L9.65468 21.2279Z" fill="#1A0F0C"/>
<path d="M19.0021 22.153C18.9832 21.8978 19.0953 21.6899 19.262 21.5174C19.4413 21.3325 19.645 21.1715 19.8374 20.999C19.9291 20.9167 20.0134 20.8253 20.1107 20.7502C20.3092 20.5975 20.6608 20.6416 20.799 20.8829C20.9943 21.2236 21.1827 21.5682 21.3732 21.9113C21.6247 22.3645 21.8755 22.818 22.127 23.2712C22.3444 23.6627 22.563 24.0539 22.7799 24.4454C22.9286 24.7137 23.0745 24.9837 23.2244 25.2512C23.3296 25.4392 23.1697 25.6733 22.9672 25.6531C22.8647 25.6431 22.7912 25.5827 22.7442 25.4992C22.5786 25.2055 22.4207 24.9073 22.2568 24.6128C21.9908 24.1358 21.7204 23.6611 21.4552 23.1841C21.2912 22.8896 21.1345 22.591 20.9718 22.2957C20.7881 21.9626 20.6001 21.6318 20.4165 21.2983C20.3835 21.2383 20.357 21.2478 20.316 21.286C20.1171 21.4716 19.9258 21.6664 19.7149 21.8374C19.5381 21.9809 19.528 22.143 19.5759 22.3418C19.6695 22.7294 19.7499 23.1201 19.8378 23.5089C19.9033 23.7991 19.9741 24.0877 20.0396 24.3778C20.1276 24.7666 20.2119 25.1566 20.2995 25.5453C20.365 25.8355 20.4345 26.1245 20.5012 26.4143C20.5503 26.6266 20.6009 26.8384 20.6439 27.0519C20.6672 27.1672 20.5398 27.3222 20.4128 27.3469C20.2979 27.3691 20.1324 27.2638 20.1071 27.1481C19.9777 26.5673 19.8523 25.9858 19.7205 25.4054C19.6229 24.9749 19.5148 24.5472 19.4163 24.1171C19.2845 23.5399 19.1572 22.9619 19.0302 22.3835C19.0137 22.308 19.0113 22.2293 19.0021 22.1522V22.153Z" fill="#1A0F0C"/>
<path d="M14.3923 8.7635C14.0869 8.74363 13.9266 8.54925 13.8193 8.29404C13.6819 7.96769 13.5469 7.64014 13.4119 7.31299C13.2379 6.89282 13.0667 6.47146 12.8911 6.05208C12.7272 5.66054 12.5576 5.27098 12.3929 4.87983C12.3125 4.68862 12.2402 4.49384 12.1594 4.30264C12.0988 4.15954 12.196 4.01762 12.2936 3.97549C12.4375 3.91308 12.5914 3.96078 12.6508 4.09792C12.8051 4.45369 12.953 4.81225 13.1037 5.16961C13.2246 5.45661 13.3472 5.74322 13.4673 6.03062C13.5782 6.29536 13.6859 6.5613 13.7964 6.82604C13.9294 7.14444 14.0636 7.46245 14.1974 7.78046C14.2497 7.90448 14.3043 8.02731 14.3533 8.15213C14.3758 8.20977 14.408 8.23044 14.4727 8.22965C14.758 8.22567 15.0433 8.22567 15.3286 8.22965C15.4021 8.23084 15.4314 8.20619 15.4531 8.13703C15.6227 7.5984 15.7971 7.06097 15.9707 6.52353C16.0948 6.13993 16.2214 5.75753 16.3451 5.37353C16.491 4.91997 16.6361 4.46641 16.7779 4.01166C16.8466 3.79104 17.0278 3.74096 17.2086 3.82881C17.3127 3.87929 17.3513 4.01802 17.3071 4.15556C17.1817 4.54512 17.0568 4.93468 16.9306 5.32384C16.7478 5.88752 16.5637 6.45039 16.3813 7.01406C16.2375 7.45848 16.0944 7.90329 15.9518 8.34811C15.8742 8.5894 15.6504 8.75516 15.4133 8.7639C15.073 8.7639 14.7323 8.7639 14.3919 8.7639L14.3923 8.7635Z" fill="#1A0F0C"/>
<path d="M16.0156 16.5187C16.0747 16.1562 16.319 15.992 16.6593 15.9308C16.6686 15.9292 16.679 15.932 16.6883 15.9296C16.8377 15.893 16.8317 15.8942 16.7996 15.7475C16.7622 15.5762 16.7244 15.4037 16.7092 15.2296C16.6838 14.9473 16.8257 14.7355 17.0636 14.6059C17.3195 14.466 17.5924 14.3554 17.8608 14.2386C17.956 14.1972 18.1147 14.2473 18.1641 14.3197C18.2373 14.4262 18.2312 14.5816 18.1404 14.6715C18.1002 14.7112 18.0444 14.7375 17.9922 14.7621C17.7917 14.8567 17.5887 14.9465 17.3878 15.0412C17.2428 15.1095 17.2203 15.1747 17.2653 15.3794C17.289 15.4872 17.3183 15.5937 17.3404 15.7014C17.3501 15.7479 17.3557 15.7598 17.4127 15.7455C17.9705 15.6048 18.5298 15.4713 19.0883 15.3337C19.2414 15.296 19.3503 15.3655 19.4078 15.5472C19.4383 15.6434 19.3527 15.8064 19.247 15.8354C18.9642 15.9125 18.6801 15.9856 18.396 16.0572C18.093 16.1335 17.7896 16.2063 17.4738 16.2834C17.4871 16.3605 17.4983 16.442 17.516 16.5215C17.5453 16.6531 17.5795 16.7834 17.6108 16.9142C17.6353 17.016 17.7041 17.0732 17.8065 17.0732C18.0532 17.0732 18.3008 17.0657 18.5471 17.0752C18.8171 17.0855 18.8842 17.3058 18.7841 17.4918C18.7448 17.5649 18.6748 17.6043 18.5913 17.6051C18.2899 17.6075 17.9881 17.6138 17.6872 17.6031C17.5164 17.5971 17.3834 17.4946 17.2645 17.3781C17.0865 17.2036 17.066 16.9691 17.0149 16.7465C16.9944 16.6566 16.98 16.5656 16.9543 16.4774C16.9478 16.4555 16.9048 16.4261 16.8827 16.4297C16.8004 16.442 16.7176 16.4603 16.6404 16.4897C16.6059 16.5028 16.5834 16.5469 16.5553 16.5767C16.5553 16.8951 16.5553 17.2135 16.5553 17.532C16.548 17.5514 16.5404 17.5709 16.5332 17.5908C16.4894 17.7077 16.3684 17.7645 16.2157 17.7395C16.139 17.7271 16.0377 17.613 16.0313 17.532C16.0321 17.2143 16.0329 16.8971 16.0325 16.5795C16.0325 16.5596 16.0221 16.5398 16.0164 16.5199L16.0156 16.5187Z" fill="#1A0F0C"/>
<path d="M11.3721 17.5912C11.26 17.549 11.1784 17.4775 11.1631 17.3543C11.1451 17.21 11.2182 17.0995 11.3721 17.0581C11.6385 17.0589 11.9049 17.0601 12.1717 17.0597C12.1886 17.0597 12.2055 17.0494 12.2223 17.0438C12.3457 17.0235 12.361 16.9858 12.3923 16.8558C12.4393 16.6622 12.4763 16.4662 12.5189 16.2647C12.2147 16.1884 11.9049 16.1093 11.5943 16.0329C11.3303 15.9677 11.0651 15.9065 10.8007 15.8417C10.652 15.8052 10.5431 15.6338 10.5885 15.4951C10.6368 15.3484 10.7645 15.2785 10.9405 15.3234C11.4798 15.4613 12.0206 15.5925 12.5611 15.7253C12.5848 15.7312 12.6109 15.7261 12.6414 15.7261C12.6748 15.5623 12.7081 15.4001 12.7407 15.2379C12.76 15.1429 12.7242 15.0801 12.6338 15.038C12.3959 14.9283 12.1592 14.815 11.9234 14.7005C11.8121 14.6464 11.7679 14.5514 11.7791 14.4318C11.7888 14.3268 11.8426 14.2422 11.9479 14.2235C12.025 14.21 12.1179 14.2139 12.1886 14.2437C12.4385 14.3495 12.6816 14.4703 12.9279 14.5848C13.1349 14.681 13.2241 14.8591 13.2811 15.065C13.3281 15.2339 13.2626 15.3886 13.2357 15.548C13.22 15.6414 13.1907 15.7324 13.1742 15.8258C13.1718 15.8409 13.2024 15.8716 13.2233 15.8787C13.3627 15.926 13.5101 15.9554 13.6432 16.0158C13.8569 16.1128 13.9493 16.3005 13.9738 16.5247C13.9738 16.8435 13.9738 17.1623 13.9738 17.4811C13.9481 17.6202 13.8585 17.7192 13.7512 17.7263C13.5873 17.7371 13.5017 17.6755 13.4358 17.4998C13.4414 17.4799 13.4519 17.4596 13.4519 17.4397C13.4531 17.1615 13.4531 16.8836 13.4519 16.6054C13.4519 16.5851 13.441 16.5648 13.4354 16.5449C13.3868 16.5139 13.3418 16.4734 13.2887 16.4535C13.2172 16.4269 13.1401 16.4161 13.0501 16.3951C13.0244 16.5088 13.0002 16.6268 12.9709 16.7433C12.9347 16.888 12.9094 17.0378 12.8524 17.1742C12.7584 17.3996 12.5727 17.526 12.3328 17.5757C12.3212 17.5781 12.3107 17.5856 12.2995 17.5908C12.2826 17.5852 12.2653 17.5749 12.2484 17.5749C11.9736 17.5737 11.6988 17.5737 11.4239 17.5749C11.4066 17.5749 11.3898 17.5852 11.3729 17.5908L11.3721 17.5912Z" fill="#1A0F0C"/>
<path d="M11.7813 20.0615C11.7813 20.2392 11.7877 20.4169 11.7793 20.5942C11.7721 20.752 11.6708 20.8967 11.4852 20.8852C11.3546 20.8772 11.2429 20.7715 11.2425 20.6411C11.2417 20.2953 11.2473 19.9498 11.2393 19.6044C11.2368 19.5094 11.2151 19.4044 11.1681 19.3234C11.1139 19.2299 11.0263 19.1532 10.9447 19.0785C10.8198 18.9648 10.6856 18.861 10.5586 18.7497C10.4067 18.6166 10.262 18.4759 10.1081 18.3451C9.93295 18.1964 9.8562 17.9988 9.79955 17.7874C9.69829 17.4093 9.59502 17.0321 9.49135 16.6545C9.4363 16.4541 9.37563 16.2554 9.32219 16.0546C9.28321 15.9075 9.36478 15.7752 9.51386 15.7318C9.6569 15.6901 9.80035 15.7632 9.84254 15.9103C9.94661 16.2748 10.0459 16.6406 10.1467 17.0059C10.219 17.2682 10.2737 17.5369 10.3701 17.7906C10.4147 17.9082 10.5333 18.0028 10.6305 18.0954C10.7551 18.2139 10.8925 18.3192 11.0235 18.4309C11.1693 18.555 11.3184 18.6754 11.4582 18.8058C11.631 18.9668 11.7463 19.1644 11.7604 19.4017C11.7733 19.6211 11.7632 19.8421 11.7632 20.0623C11.7697 20.0623 11.7761 20.0623 11.7825 20.0623L11.7813 20.0615Z" fill="#1A0F0C"/>
<path d="M18.9121 20.6543C18.8783 20.7151 18.851 20.7815 18.8088 20.8359C18.7381 20.927 18.6356 20.9174 18.5412 20.8864C18.4247 20.8483 18.3708 20.7676 18.3704 20.6579C18.37 20.2488 18.3616 19.8394 18.3736 19.4303C18.3805 19.1962 18.5006 19.001 18.6726 18.8432C18.7996 18.7267 18.9362 18.621 19.0664 18.5081C19.24 18.3579 19.4067 18.1992 19.5855 18.0557C19.735 17.9357 19.7856 17.7711 19.8322 17.6014C19.9451 17.1916 20.0565 16.7813 20.1694 16.3719C20.2091 16.2276 20.2489 16.0833 20.2943 15.941C20.3494 15.7689 20.4764 15.7092 20.662 15.7625C20.7729 15.7943 20.8496 15.9525 20.8107 16.0909C20.6274 16.744 20.443 17.3971 20.255 18.0486C20.1995 18.2402 20.0456 18.3642 19.9066 18.4938C19.7852 18.6067 19.6526 18.7077 19.5265 18.8154C19.3758 18.9438 19.2259 19.0722 19.0776 19.2034C18.9953 19.2761 18.9253 19.358 18.9121 19.4733C18.9121 19.8672 18.9121 20.2611 18.9121 20.6551V20.6543Z" fill="#1A0F0C"/>
<path d="M16.3423 28.2341C16.3049 28.3772 16.241 28.4941 16.0682 28.4996C15.9324 28.504 15.8006 28.3776 15.8006 28.244C15.8006 27.7909 15.809 27.3373 15.797 26.8842C15.7914 26.6743 15.9947 26.4477 16.2366 26.4242C16.4455 26.404 16.6529 26.3734 16.8614 26.3499C16.9988 26.3344 17.137 26.3229 17.2749 26.3114C17.3661 26.3034 17.4577 26.301 17.5489 26.2915C17.8197 26.2636 18.0347 26.439 18.1006 26.691C18.1994 27.0698 18.3043 27.4466 18.4012 27.8259C18.4345 27.957 18.3055 28.1248 18.1729 28.122C17.9961 28.1184 17.9037 28.0505 17.8583 27.8795C17.7723 27.5548 17.6747 27.2328 17.5943 26.9064C17.5718 26.8146 17.5208 26.8198 17.4589 26.8261C17.2938 26.8428 17.1286 26.8619 16.9639 26.8826C16.7622 26.9076 16.5612 26.935 16.3599 26.9613C16.3531 26.976 16.3406 26.9907 16.3406 27.0054C16.3406 27.4152 16.3419 27.8247 16.3427 28.2345L16.3423 28.2341Z" fill="#1A0F0C"/>
<path d="M14.1635 28.2482C14.1009 28.4315 14.0201 28.5034 13.8726 28.4931C13.7424 28.4839 13.6685 28.4009 13.6263 28.2856C13.6315 28.2685 13.6416 28.251 13.6416 28.2339C13.6424 27.8296 13.6424 27.425 13.6412 27.0207C13.6412 26.9984 13.6275 26.9762 13.6203 26.9539C13.4154 26.9281 13.2108 26.9007 13.0059 26.8776C12.8653 26.8617 12.7238 26.8518 12.5832 26.8382C12.5177 26.8319 12.4526 26.8227 12.3791 26.814C12.3051 27.0863 12.2332 27.3538 12.1605 27.6213C12.1292 27.7362 12.0998 27.8519 12.0629 27.9648C12.0231 28.086 11.8021 28.2005 11.6538 28.063C11.5513 27.9684 11.5256 27.8682 11.5634 27.7378C11.6691 27.3709 11.7659 27.0016 11.8732 26.6351C11.9339 26.4272 12.1356 26.277 12.3493 26.2893C12.6033 26.304 12.8556 26.3374 13.1092 26.3624C13.3061 26.3819 13.5038 26.3982 13.7003 26.4205C13.9598 26.4499 14.1234 26.5807 14.1648 26.8748C14.1648 27.3327 14.1648 27.7907 14.1648 28.2486L14.1635 28.2482Z" fill="#1A0F0C"/>
<path d="M17.4918 22.9244V22.7173C17.2419 22.7173 16.996 22.7173 16.7501 22.7173C16.6231 22.7173 16.5045 22.5981 16.4929 22.4602C16.4833 22.3477 16.5733 22.2232 16.6918 22.2054C16.7975 22.1895 16.9056 22.1875 17.0128 22.1851C17.1696 22.1819 17.3263 22.1843 17.4938 22.1843C17.4858 22.0746 17.4846 21.9637 17.5742 21.8901C17.6172 21.8551 17.6791 21.8313 17.7349 21.8253C17.8908 21.8082 17.9744 21.8754 18.0351 22.0495C18.0351 22.6724 18.0351 23.2957 18.0351 23.9186C18.0053 24.0271 17.9591 24.115 17.8342 24.1484C17.673 24.1913 17.4966 24.0725 17.4942 23.9075C17.4922 23.7652 17.4918 23.6225 17.491 23.4802C17.4765 23.4734 17.4617 23.4611 17.4472 23.4611C17.2957 23.4607 17.1446 23.4623 16.9932 23.4631C16.8758 23.4523 16.7685 23.3462 16.7629 23.2361C16.7549 23.0719 16.8272 22.9714 16.9723 22.9443C17.1205 22.9447 17.2684 22.9463 17.4167 22.9447C17.442 22.9447 17.4673 22.9312 17.4926 22.9241L17.4918 22.9244Z" fill="#1A0F0C"/>
<path d="M12.4931 23.9383C12.4312 24.1219 12.289 24.209 12.1363 24.143C12.0503 24.106 11.9812 24.0397 11.9688 23.9367C11.9688 23.3019 11.9688 22.6667 11.9688 22.0318C11.9949 21.8995 12.1054 21.8164 12.246 21.8231C12.4144 21.8311 12.4746 21.9162 12.4971 22.1849C12.7322 22.1849 12.9677 22.1845 13.2035 22.1849C13.3341 22.1849 13.4527 22.2691 13.488 22.3848C13.5161 22.4766 13.4527 22.6305 13.3562 22.6869C13.3233 22.706 13.2803 22.7159 13.2413 22.7163C12.9954 22.7187 12.7491 22.7175 12.4919 22.7175V22.9242C12.5172 22.9314 12.5425 22.9445 12.5679 22.9449C12.7161 22.9465 12.864 22.9449 13.0123 22.9445C13.1425 22.9684 13.2429 23.0793 13.2401 23.1957C13.2369 23.3202 13.1356 23.4382 13.0107 23.4633C12.8447 23.4633 12.6788 23.4625 12.5124 23.4621C12.5052 23.4879 12.4915 23.5134 12.4911 23.5392C12.4895 23.6724 12.4911 23.8055 12.4915 23.9387L12.4931 23.9383Z" fill="#1A0F0C"/>
<path d="M5.81357 7.6723C5.80272 7.55583 5.85697 7.47355 5.96305 7.43459C6.07033 7.39524 6.17842 7.40478 6.27205 7.4807C6.27687 7.48468 6.28048 7.48984 6.28531 7.49461C6.5935 7.79314 6.90129 8.09167 7.20988 8.38981C7.45178 8.62354 7.69528 8.85609 7.93677 9.09062C8.03723 9.18801 8.05531 9.31799 7.98981 9.44639C7.94079 9.54219 7.82065 9.59347 7.68925 9.56723C7.6555 9.56048 7.62135 9.53623 7.59563 9.51158C7.30873 9.2369 7.02384 8.96063 6.73815 8.68436C6.45728 8.41286 6.1744 8.14335 5.89715 7.86788C5.84853 7.81978 5.82442 7.74783 5.78906 7.68701C5.7975 7.68224 5.80554 7.67747 5.81398 7.6723H5.81357Z" fill="#1A0F0C"/>
<path d="M6.06177 11.9497C5.893 11.8977 5.71621 11.8452 5.54021 11.7891C5.0066 11.6182 4.47339 11.4453 3.93978 11.2736C3.86946 11.2509 3.79552 11.2374 3.72882 11.208C3.5922 11.148 3.52229 10.9917 3.5693 10.8689C3.62475 10.7242 3.77141 10.6594 3.93094 10.7103C4.31829 10.8339 4.70524 10.9572 5.09218 11.0816C5.44096 11.1937 5.78773 11.3129 6.13892 11.4163C6.2679 11.454 6.32737 11.5387 6.34545 11.6484C6.36233 11.751 6.30607 11.8428 6.21647 11.9008C6.17749 11.9263 6.12445 11.9311 6.06096 11.9501L6.06177 11.9497Z" fill="#1A0F0C"/>
<path d="M13.6172 26.9512C13.6244 26.9734 13.6381 26.9957 13.6381 27.018C13.6393 27.4222 13.6393 27.8269 13.6385 28.2312C13.6385 28.2482 13.6285 28.2657 13.6232 28.2828C13.622 27.8865 13.6208 27.4902 13.6196 27.0939C13.6196 27.0462 13.618 26.9989 13.6172 26.9512Z" fill="#1A0F0C"/>
<path d="M16.8203 25.3227C16.8404 25.3171 16.8605 25.3066 16.8806 25.3066C17.2209 25.3066 17.5609 25.3074 17.9012 25.3083C17.8807 25.3139 17.8602 25.3248 17.8397 25.3248C17.4998 25.3248 17.1598 25.324 16.8203 25.3231V25.3227Z" fill="#1A0F0C"/>
<path d="M11.9453 25.3234C11.9626 25.3177 11.9795 25.3072 11.9967 25.3072C12.323 25.3064 12.6493 25.3064 12.9752 25.3072C12.9924 25.3072 13.0093 25.3177 13.0266 25.3234H11.9457H11.9453Z" fill="#1A0F0C"/>
<path d="M13.0299 24.7708C13.0058 24.7765 12.9817 24.7865 12.9576 24.7865C12.6281 24.7869 12.2982 24.7865 11.9688 24.7857C11.9852 24.7797 12.0017 24.7688 12.0182 24.7688C12.3553 24.7688 12.6928 24.77 13.0299 24.7708Z" fill="#1A0F0C"/>
<path d="M17.8857 24.7857C17.5622 24.7861 17.2391 24.7869 16.9157 24.7865C16.8916 24.7865 16.8679 24.7765 16.8438 24.7712C17.1777 24.7704 17.512 24.7692 17.8459 24.7688C17.8591 24.7688 17.8724 24.7797 17.8857 24.7857Z" fill="#1A0F0C"/>
<path d="M14.3906 8.76025C14.731 8.76025 15.0717 8.76025 15.412 8.76025C15.3915 8.76549 15.3707 8.77555 15.3502 8.77596C15.0512 8.77716 14.7519 8.77716 14.4529 8.77596C14.4324 8.77596 14.4115 8.76589 14.391 8.76025H14.3906Z" fill="#1A0F0C"/>
<path d="M13.9688 17.4794C13.9688 17.1606 13.9688 16.8418 13.9688 16.5229C13.9748 16.5392 13.9857 16.5555 13.9857 16.5718C13.9869 16.858 13.9869 17.1443 13.9857 17.4305C13.9857 17.4468 13.9748 17.4631 13.9688 17.4794Z" fill="#1A0F0C"/>
<path d="M15.2579 23.5066C15.2523 23.4613 15.2414 23.416 15.2422 23.3707C15.2455 23.2053 15.2523 23.04 15.2579 22.875C15.2579 23.0857 15.2579 23.296 15.2579 23.5066Z" fill="#1A0F0C"/>
<path d="M14.6016 22.8986C14.6068 22.9753 14.6173 23.052 14.6165 23.1284C14.6153 23.2488 14.6068 23.3692 14.6016 23.4897C14.6016 23.2925 14.6016 23.0954 14.6016 22.8982V22.8986Z" fill="#1A0F0C"/>
<path d="M13.0125 22.9344C12.8643 22.9348 12.716 22.9364 12.5681 22.9348C12.5428 22.9348 12.5175 22.9211 12.4922 22.9138C12.6364 22.9146 12.7803 22.9146 12.9245 22.917C12.9539 22.9174 12.9836 22.9279 13.0129 22.9339L13.0125 22.9344Z" fill="#1A0F0C"/>
<path d="M17.4969 22.9138C17.4716 22.9211 17.4463 22.9344 17.421 22.9348C17.2727 22.9364 17.1248 22.9348 16.9766 22.9344C17.0445 22.9283 17.112 22.9195 17.1803 22.9174C17.286 22.9138 17.3916 22.915 17.4973 22.9142L17.4969 22.9138Z" fill="#1A0F0C"/>
<path d="M12.5144 23.4521C12.5124 23.4584 12.5124 23.4644 12.5144 23.4703C12.5132 23.594 12.5132 23.7172 12.5104 23.8408C12.5096 23.8702 12.4995 23.8993 12.4935 23.9283C12.4931 23.7951 12.4911 23.6619 12.4931 23.5288C12.4931 23.5029 12.5068 23.4775 12.5144 23.4517V23.4521Z" fill="#1A0F0C"/>
<path d="M21.9297 9.24327C21.961 9.19001 21.9835 9.128 22.0257 9.08467C22.2194 8.88631 22.4175 8.69153 22.6164 8.49794C22.935 8.18709 23.2549 7.87703 23.5763 7.56856C23.6414 7.50615 23.7077 7.43897 23.7865 7.39843C23.9062 7.33721 24.0802 7.39366 24.1385 7.49383C24.2003 7.59957 24.1562 7.78163 24.0469 7.8818C23.9187 7.99986 23.7909 8.11872 23.6659 8.23996C23.51 8.39101 23.3581 8.54564 23.2026 8.69709C22.9427 8.94951 22.6811 9.20074 22.4203 9.45197C22.3303 9.53862 22.2262 9.57917 22.1073 9.51915C22.0016 9.46588 21.9417 9.37883 21.9297 9.24327Z" fill="#1A0F0C"/>
<path d="M26.4174 10.9297C26.4166 11.0481 26.3302 11.1507 26.1944 11.194C25.7805 11.3268 25.367 11.4592 24.9531 11.5915C24.6277 11.6957 24.301 11.7974 23.9763 11.9048C23.8449 11.9481 23.685 11.8591 23.6436 11.7148C23.6055 11.5812 23.6702 11.4456 23.8088 11.4003C24.3649 11.2183 24.9214 11.0358 25.4783 10.8565C25.6776 10.7921 25.8817 10.7413 26.0798 10.6733C26.2253 10.6232 26.4363 10.7432 26.4178 10.9301L26.4174 10.9297Z" fill="#1A0F0C"/>
</svg>
