<svg width="28" height="28" viewBox="0 0 28 28" fill="none" xmlns="http://www.w3.org/2000/svg">
<path d="M28 14.0041C28.0015 11.6743 27.4211 9.38101 26.3115 7.33219C25.202 5.28336 23.5983 3.54386 21.6459 2.27147C19.6936 0.999075 17.4543 0.234047 15.1313 0.0457746C12.8083 -0.142498 10.4751 0.251943 8.3432 1.19332C6.2113 2.1347 4.34823 3.59322 2.92298 5.4366C1.49772 7.27999 0.555371 9.4499 0.181405 11.7495C-0.192561 14.0491 0.0136888 16.4057 0.781446 18.6055C1.5492 20.8052 2.85418 22.7786 4.578 24.3466C4.61341 24.3907 4.65601 24.4285 4.704 24.4585C7.26557 26.7396 10.5765 28 14.007 28C17.4375 28 20.7484 26.7396 23.31 24.4585L23.422 24.3466C24.8656 23.0381 26.0189 21.4417 26.8074 19.6603C27.5959 17.879 28.0022 15.9521 28 14.0041ZM1.12 14.0041C1.11983 11.8879 1.64146 9.8043 2.63872 7.93762C3.63599 6.07093 5.07815 4.47875 6.83759 3.30195C8.59704 2.12515 10.6195 1.40002 12.7261 1.19071C14.8327 0.981406 16.9584 1.29438 18.9151 2.10194C20.8718 2.9095 22.5993 4.18676 23.9446 5.82068C25.2899 7.45461 26.2117 9.39483 26.6282 11.4697C27.0447 13.5445 26.9433 15.69 26.3328 17.7163C25.7222 19.7426 24.6215 21.5872 23.128 23.087C21.7378 20.7588 19.5085 19.0511 16.898 18.3146C18.1103 17.6685 19.0718 16.6358 19.6295 15.3807C20.1873 14.1256 20.3093 12.7201 19.9762 11.3877C19.6431 10.0554 18.874 8.87251 17.7911 8.02728C16.7083 7.18204 15.3738 6.72293 14 6.72293C12.6261 6.72293 11.2917 7.18204 10.2089 8.02728C9.12603 8.87251 8.35691 10.0554 8.02381 11.3877C7.6907 12.7201 7.81272 14.1256 8.37047 15.3807C8.92821 16.6358 9.88968 17.6685 11.102 18.3146C8.49153 19.0511 6.26223 20.7588 4.872 23.087C2.4706 20.6734 1.1218 17.4083 1.12 14.0041ZM14 17.9228C13.0032 17.9228 12.0287 17.6273 11.1999 17.0737C10.3711 16.5201 9.72511 15.7332 9.34364 14.8126C8.96218 13.892 8.86237 12.8789 9.05684 11.9016C9.25131 10.9243 9.73132 10.0266 10.4362 9.32195C11.141 8.61733 12.0391 8.13749 13.0167 7.94308C13.9944 7.74868 15.0078 7.84846 15.9287 8.22979C16.8497 8.61112 17.6368 9.25689 18.1906 10.0854C18.7444 10.914 19.04 11.8881 19.04 12.8845C19.04 14.2208 18.509 15.5023 17.5638 16.4471C16.6186 17.392 15.3367 17.9228 14 17.9228ZM5.726 23.8567C6.5575 22.3961 7.76109 21.1817 9.21439 20.3369C10.6677 19.4921 12.3188 19.047 14 19.047C15.6811 19.047 17.3323 19.4921 18.7856 20.3369C20.2389 21.1817 21.4425 22.3961 22.274 23.8567C19.9587 25.8076 17.0281 26.8776 14 26.8776C10.9719 26.8776 8.0413 25.8076 5.726 23.8567Z" fill="#83746E"/>
</svg>
