<svg xmlns="http://www.w3.org/2000/svg" width="61" height="64" viewBox="0 0 61 64" fill="none">
  <path d="M60.0017 32.7833C59.988 33.243 59.9912 33.7035 59.9559 34.1608C59.9101 34.742 59.8377 35.3216 59.767 35.9004C59.71 36.3729 59.6521 36.8461 59.5717 37.3145C59.4841 37.8227 59.3805 38.3284 59.2639 38.8302C59.0003 39.9672 58.6724 41.0875 58.2626 42.1808C57.9933 42.9001 57.6919 43.6084 57.3857 44.3134C57.1712 44.8065 56.947 45.2987 56.685 45.7688C56.2285 46.5874 55.7664 47.4052 55.2568 48.192C54.7481 48.9772 54.1936 49.7347 53.631 50.4834C53.2718 50.9614 52.8611 51.4004 52.4673 51.8649C52.9576 52.3469 53.4526 52.8447 53.9613 53.3266C54.098 53.4561 54.0763 53.5219 53.9549 53.6395C53.4197 54.1587 52.8933 54.6867 52.3861 55.1901C51.998 54.8098 51.6178 54.4366 51.2369 54.0634C51.1188 53.9475 50.999 53.8324 50.8841 53.7133C50.8005 53.6268 50.7298 53.6307 50.6414 53.7117C50.3448 53.9856 50.0523 54.2643 49.7429 54.5224C49.1723 54.998 48.6025 55.4767 48.0078 55.9221C47.4396 56.3485 46.8489 56.7487 46.2502 57.1322C45.69 57.491 45.1122 57.8245 44.5311 58.1493C44.0304 58.4287 43.5185 58.6892 43.0025 58.9416C41.6283 59.6133 40.201 60.1612 38.7335 60.5923C37.7032 60.8956 36.6504 61.129 35.6 61.3609C35.0712 61.4776 34.5271 61.5308 33.987 61.5943C33.3569 61.6689 32.7245 61.7269 32.092 61.7857C31.8396 61.8087 31.5857 61.8142 31.3317 61.8277C31.3172 61.8913 31.2899 61.9548 31.2899 62.0183C31.2867 62.6511 31.2883 63.2831 31.2883 63.9159H28.7479C28.7479 63.2752 28.7487 62.6344 28.7463 61.9937C28.7463 61.9389 28.7206 61.8849 28.7077 61.8309C28.3164 61.8039 27.925 61.7769 27.5344 61.7491C27.188 61.7245 26.84 61.7126 26.4961 61.6689C26.001 61.6062 25.5067 61.5308 25.0157 61.4427C24.3374 61.3212 23.6559 61.2084 22.9864 61.0465C21.715 60.74 20.4653 60.3621 19.2438 59.8904C18.068 59.4363 16.9252 58.9178 15.8137 58.3279C14.8196 57.7999 13.86 57.2179 12.9342 56.5804C12.051 55.9722 11.1959 55.329 10.3914 54.6208C10.2291 54.4779 10.0595 54.3421 9.865 54.1794C9.34422 54.6947 8.83872 55.1949 8.33803 55.6911C7.77386 55.1337 7.20245 54.5692 6.62863 54.0023C7.09155 53.545 7.56249 53.0789 8.03425 52.6144C8.10015 52.5501 8.16444 52.5001 8.07041 52.3985C7.76341 52.0674 7.45802 51.7339 7.16388 51.3909C6.79901 50.9654 6.42531 50.5445 6.09259 50.0944C5.59512 49.4211 5.1081 48.7374 4.65805 48.0332C4.19594 47.3107 3.76759 46.5651 3.3537 45.814C3.07965 45.3162 2.84096 44.7969 2.61513 44.2753C2.30652 43.5647 2.00836 42.8493 1.73511 42.1252C1.30756 40.9914 0.972435 39.829 0.720888 38.6444C0.60516 38.0982 0.48461 37.5519 0.388974 37.0025C0.317448 36.588 0.279676 36.168 0.230652 35.7496C0.17761 35.3002 0.114924 34.8508 0.0811702 34.3998C0.0498273 33.9925 0.0522383 33.5828 0.0369686 33.1739C0.036165 33.143 0.0128587 33.112 0 33.081C0 32.511 0 31.9401 0 31.37C0.0128587 31.339 0.036165 31.3089 0.0369686 31.2771C0.0522383 30.8682 0.0498273 30.4585 0.0811702 30.0512C0.115728 29.6002 0.176806 29.1508 0.231456 28.7015C0.278872 28.3084 0.321466 27.9138 0.388171 27.524C0.485414 26.9547 0.576228 26.383 0.71687 25.8233C0.960381 24.8515 1.21755 23.8828 1.51089 22.9245C1.69734 22.3139 1.93603 21.7153 2.1924 21.1293C2.58539 20.2337 2.9816 19.3373 3.43567 18.4711C4.04485 17.3071 4.73359 16.1852 5.52922 15.1332C6.04919 14.4464 6.58604 13.7707 7.1261 13.099C7.37685 12.787 7.64768 12.4892 7.92495 12.1994C8.03103 12.0883 8.00773 12.0319 7.9137 11.9406C7.32622 11.3658 6.74275 10.7862 6.14885 10.1986C6.1818 10.1605 6.21153 10.1216 6.24609 10.0875C6.73954 9.59838 7.23781 9.11406 7.72644 8.6202C7.8486 8.49714 7.92897 8.49237 8.05353 8.61703C8.62896 9.19584 9.21162 9.76591 9.77177 10.3193C10.4549 9.77544 11.134 9.23474 11.8115 8.69404C12.8241 7.88577 13.9179 7.19343 15.0398 6.54951C16.2204 5.87146 17.4412 5.26565 18.7222 4.78768C19.345 4.55504 19.9582 4.29462 20.5915 4.09612C21.4627 3.82379 22.3435 3.57845 23.2308 3.3609C23.8512 3.20846 24.4861 3.11159 25.1178 3.00758C25.7342 2.90595 26.3522 2.81385 26.9726 2.74398C27.4122 2.69476 27.8575 2.69237 28.2995 2.66062C28.4385 2.65109 28.5759 2.61536 28.715 2.59154C28.727 2.52723 28.7487 2.46212 28.7487 2.39781C28.7527 1.59986 28.7544 0.801916 28.7568 0.00396988C29.6022 0.00238193 30.4469 0.000793976 31.2923 0C31.2923 0.816208 31.2907 1.63242 31.2923 2.44862C31.2923 2.50658 31.3197 2.56375 31.3341 2.62171C31.9079 2.66062 32.4866 2.66856 33.0548 2.74557C34.0859 2.8861 35.113 3.05919 36.1384 3.23387C37.5191 3.46888 38.854 3.88016 40.1704 4.34305C40.9243 4.60824 41.6604 4.92662 42.3926 5.24818C43.0074 5.51893 43.6141 5.81111 44.2064 6.12632C44.8269 6.45582 45.4433 6.79882 46.0316 7.17993C46.8465 7.70713 47.6437 8.26371 48.4305 8.83219C48.8556 9.13946 49.2438 9.49675 49.6489 9.83261C49.8265 9.97949 50.0017 10.1288 50.1857 10.2836C50.7435 9.73336 51.2916 9.19266 51.8397 8.65196C51.9554 8.53763 52.0727 8.53922 52.1917 8.65673C52.6634 9.12279 53.1311 9.59203 53.6085 10.0517C53.7307 10.1693 53.7508 10.2352 53.615 10.3646C53.0524 10.9013 52.5035 11.4515 51.9441 12.0017C52.1603 12.2487 52.3765 12.4829 52.5782 12.7282C53.1119 13.3761 53.6728 14.0057 54.1623 14.6854C54.8044 15.5778 55.4184 16.4941 55.9882 17.4325C56.4447 18.186 56.8344 18.9808 57.2242 19.7708C57.8607 21.061 58.3646 22.4044 58.7616 23.7836C59.0124 24.653 59.2197 25.5351 59.4174 26.418C59.5597 27.054 59.665 27.6987 59.7638 28.3434C59.8257 28.7483 59.8546 29.1596 59.8819 29.5685C59.9286 30.268 59.9631 30.9683 60.0025 31.6685C60.0025 32.0393 60.0025 32.4101 60.0025 32.7801L60.0017 32.7833ZM29.2856 60.0842C29.3459 60.0945 29.4061 60.1143 29.4664 60.1143C29.8216 60.1175 30.1768 60.1175 30.5321 60.1143C30.6052 60.1143 30.6783 60.0945 30.7507 60.0842C31.2441 60.0572 31.7392 60.0381 32.2318 59.9992C32.7261 59.9603 33.2203 59.9087 33.713 59.8476C34.2522 59.7809 34.7963 59.7293 35.3251 59.6133C36.2485 59.4109 37.1671 59.1814 38.0785 58.9329C39.1795 58.6328 40.2476 58.2334 41.2907 57.7753C41.9562 57.4823 42.612 57.1631 43.2533 56.8225C43.9123 56.4732 44.5617 56.1016 45.1925 55.7054C46.1666 55.094 47.1061 54.4326 47.9772 53.6831C48.5535 53.1869 49.1321 52.6922 49.6898 52.1754C50.0941 51.8006 50.4694 51.3941 50.8503 50.9947C50.987 50.8518 51.1027 50.689 51.2281 50.5358C51.3896 50.3548 51.5616 50.1817 51.7119 49.9919C52.2302 49.3353 52.7655 48.6898 53.2477 48.0086C54.0071 46.9359 54.6878 45.8101 55.2584 44.6286C55.6796 43.7552 56.0661 42.8628 56.4157 41.9593C56.7235 41.1637 56.9952 40.3507 57.217 39.5281C57.4533 38.6532 57.6269 37.7615 57.802 36.8723C57.9162 36.2919 57.9957 35.7035 58.0697 35.116C58.1267 34.665 58.1669 34.2109 58.1846 33.7567C58.2103 33.089 58.2103 32.4204 58.2208 31.7527C58.2103 31.6312 58.195 31.509 58.1894 31.3875C58.1725 31.0151 58.1589 30.6419 58.1436 30.2688C58.1203 29.9464 58.1115 29.6217 58.0697 29.3009C57.9909 28.6951 57.9081 28.0893 57.7996 27.4883C57.6839 26.8428 57.569 26.1941 57.3962 25.5621C57.1495 24.6633 56.861 23.7748 56.57 22.888C56.2405 21.8836 55.8065 20.9205 55.3388 19.9725C55.1379 19.566 54.9201 19.1674 54.6935 18.7752C54.3873 18.2448 54.0915 17.7049 53.7443 17.2015C53.1987 16.4091 52.6353 15.627 52.039 14.8712C51.5246 14.2193 50.9846 13.581 50.4003 12.991C49.6947 12.2788 48.9376 11.6151 48.187 10.9473C47.7868 10.5916 47.3656 10.255 46.9317 9.93979C46.3771 9.53725 45.8114 9.14661 45.2279 8.78535C44.5367 8.35819 43.8368 7.93818 43.1118 7.56977C42.2664 7.14102 41.3976 6.75595 40.5256 6.38119C40.025 6.16602 39.4994 6.00961 38.9842 5.82699C38.4024 5.64755 37.8269 5.44271 37.237 5.29424C36.0324 4.99014 34.818 4.72734 33.578 4.60348C32.9849 4.54393 32.3926 4.46771 31.7986 4.41769C31.4129 4.38513 31.0231 4.38593 30.6357 4.37163C30.4613 4.36052 30.2861 4.33908 30.1117 4.33988C29.8739 4.34146 29.6352 4.35972 29.3973 4.37084C28.9223 4.39784 28.4474 4.42086 27.9732 4.45262C27.4822 4.48597 26.9887 4.50502 26.5017 4.57172C25.8298 4.66382 25.1571 4.76862 24.4949 4.91392C23.5779 5.11559 22.6626 5.33314 21.7617 5.59436C20.1294 6.06677 18.5534 6.68925 17.0578 7.49514C16.3144 7.8961 15.5678 8.29467 14.8517 8.74089C13.8865 9.34193 12.9559 9.99378 12.0928 10.7346C11.5736 11.18 11.0424 11.6143 10.5433 12.0811C9.71873 12.8553 8.93033 13.6659 8.22873 14.5528C7.77145 15.1308 7.31095 15.7072 6.88018 16.3043C5.94632 17.5969 5.13944 18.9649 4.46436 20.4068C4.23934 20.8879 4.00145 21.3667 3.8142 21.8629C3.49836 22.7014 3.2018 23.5485 2.93017 24.4021C2.75577 24.9491 2.6312 25.5121 2.50101 26.0718C2.37483 26.6157 2.2575 27.1619 2.15865 27.7114C2.08632 28.1131 2.04613 28.5204 2.00032 28.9261C1.96737 29.2167 1.94166 29.5089 1.92237 29.8003C1.88219 30.4117 1.84843 31.023 1.81227 31.6344C1.81227 32.0282 1.81227 32.422 1.81227 32.8158C1.82271 33.0659 1.82995 33.3168 1.84522 33.5661C1.86772 33.9338 1.8846 34.303 1.92398 34.669C1.99229 35.3034 2.05738 35.9385 2.15704 36.569C2.26714 37.2669 2.37564 37.9688 2.55485 38.6508C2.81363 39.6361 3.10215 40.6159 3.43889 41.5774C3.72499 42.3936 4.07941 43.1876 4.43704 43.9768C4.69502 44.5445 4.99639 45.0939 5.30178 45.6394C5.60075 46.1737 5.90292 46.7104 6.25011 47.2146C6.7958 48.007 7.35997 48.7899 7.95629 49.5465C8.47064 50.1984 9.01472 50.8335 9.59577 51.4282C10.2403 52.088 10.9315 52.705 11.6202 53.3211C12.0574 53.7125 12.5115 54.0889 12.9848 54.4358C13.5876 54.8781 14.2056 55.3036 14.8389 55.7014C15.5067 56.1206 16.1907 56.5184 16.8866 56.8892C17.4789 57.2052 18.0913 57.4879 18.7093 57.7531C19.3756 58.0397 20.0474 58.3231 20.737 58.5478C21.6861 58.8575 22.6489 59.1282 23.6149 59.3823C24.1839 59.5324 24.7674 59.634 25.3492 59.7293C25.8684 59.8142 26.3924 59.8722 26.9164 59.9214C27.5826 59.9841 28.2505 60.0262 28.9183 60.0754C29.0397 60.0842 29.1618 60.0802 29.2832 60.0826L29.2856 60.0842Z" fill="#E0E0E0"/>
  <path d="M31.2821 63.9114C31.2821 63.2786 31.2804 62.6466 31.2837 62.0138C31.2837 61.9503 31.311 61.8868 31.3255 61.8232C31.3239 62.5196 31.3223 63.2159 31.3199 63.9114H31.2812H31.2821Z" fill="#E0E0E0"/>
  <path d="M31.3244 2.62171C31.3099 2.56375 31.2825 2.50658 31.2825 2.44862C31.2801 1.63242 31.2817 0.816208 31.2825 0C31.2946 0.0635181 31.318 0.127036 31.318 0.191348C31.322 1.002 31.3236 1.81185 31.3252 2.6225L31.3244 2.62171Z" fill="#E0E0E0"/>
  <path d="M29.2812 60.0869H30.7463C30.6732 60.0974 30.6009 60.1175 30.5277 60.1175C30.1725 60.1207 29.8173 60.1207 29.4621 60.1175C29.4018 60.1175 29.3415 60.0974 29.2812 60.0869Z" fill="#E0E0E0"/>
  <path d="M30.6369 4.36744H29.3984C29.6363 4.35536 29.875 4.33684 30.1129 4.33523C30.2873 4.33442 30.4625 4.35536 30.6369 4.36744Z" fill="#E0E0E0"/>
  <path d="M1.8125 31.6465C1.82297 31.7997 1.84391 31.953 1.8423 32.1062C1.83988 32.3468 1.82297 32.5873 1.8125 32.8279C1.8125 32.4341 1.8125 32.0403 1.8125 31.6465Z" fill="#E0E0E0"/>
  <path d="M26.0627 49.4681C26.3841 49.4506 26.6252 49.2609 26.8752 49.0941C27.4852 48.686 28.0952 48.2771 28.6971 47.8579C29.021 47.6324 29.1809 47.3029 29.2235 46.9163C29.2339 46.6757 29.2516 46.4351 29.2532 46.1945C29.2548 46.0413 29.2339 45.8881 29.2235 45.7356C29.1889 45.3633 28.9679 45.0663 28.808 44.7447C28.7373 44.6018 28.6473 44.4692 28.5798 44.3247C28.4222 43.9881 28.1361 43.7848 27.8356 43.5903C27.3791 43.2949 26.913 43.0123 26.4774 42.6891C25.8296 42.2088 25.6745 41.6395 25.9277 40.8765C26.1535 40.1945 26.4275 39.5275 26.6759 38.8526C26.9387 38.1373 27.1926 37.4187 27.457 36.7041C27.5559 36.4374 27.8774 36.331 28.1844 36.4159C28.4062 36.4779 28.5757 36.8264 28.4898 37.0559C28.1072 38.0785 27.7399 39.1059 27.3606 40.1294C27.3196 40.2389 27.3244 40.2897 27.4345 40.3509C28.0437 40.6891 28.64 41.052 29.2573 41.3743C29.606 41.5569 29.9862 41.5283 30.3358 41.3402C30.8244 41.0766 31.3042 40.7979 31.7896 40.5279C31.9351 40.4469 32.087 40.3787 32.2308 40.2953C32.3192 40.2445 32.3578 40.1786 32.3136 40.0611C32.046 39.3536 31.7872 38.643 31.5276 37.9332C31.4191 37.6355 31.3114 37.3377 31.2086 37.0376C31.1242 36.7923 31.2455 36.5255 31.4794 36.4231C31.7454 36.3072 32.0717 36.3889 32.1786 36.6303C32.3289 36.9701 32.451 37.3211 32.5804 37.6696C32.9822 38.7494 33.3841 39.8292 33.7803 40.9114C33.9949 41.4974 33.8912 42.0444 33.4652 42.4906C33.2394 42.7272 32.9284 42.8853 32.6511 43.0718C32.2823 43.3204 31.9045 43.5562 31.5389 43.8086C31.2447 44.0119 31.1129 44.339 30.953 44.6368C30.789 44.9424 30.6556 45.2632 30.5134 45.58C30.4997 45.611 30.5174 45.6554 30.5206 45.6935C30.5094 46.0238 30.4957 46.3533 30.4893 46.6836C30.4877 46.7741 30.5094 46.8647 30.5206 46.9552C30.4764 47.218 30.5865 47.4451 30.7617 47.6086C31.0092 47.8405 31.2937 48.0366 31.5742 48.2319C32.0926 48.5916 32.6126 48.9481 33.1462 49.2847C33.3005 49.3824 33.5014 49.4086 33.6806 49.4673C33.7289 49.4776 33.7763 49.4975 33.8245 49.4975C34.4714 49.4983 35.1176 49.4975 35.7645 49.4959C36.0764 49.5515 36.2202 49.7015 36.2218 49.9691C36.2234 50.2907 36.0836 50.4765 35.8015 50.5305C35.1208 50.5289 34.4409 50.5273 33.7602 50.5273C33.72 50.5273 33.6798 50.5479 33.6396 50.559C33.1221 50.5273 32.6809 50.3065 32.2654 50.0191C31.7928 49.692 31.3154 49.372 30.8445 49.0425C30.5198 48.8155 30.1558 48.6352 29.9283 48.2906C29.9122 48.266 29.7949 48.2652 29.7772 48.2898C29.5032 48.6773 29.0869 48.8893 28.7075 49.1465C28.186 49.4999 27.6652 49.8532 27.1396 50.2002C26.8527 50.3891 26.5409 50.5177 26.1889 50.5273C26.1471 50.5281 26.1061 50.5479 26.0651 50.559C26.0305 50.5479 25.9968 50.5273 25.9622 50.5273C25.3096 50.5257 24.6571 50.5257 24.0053 50.5273C23.9707 50.5273 23.937 50.5479 23.9024 50.559C23.712 50.482 23.5432 50.3732 23.4853 50.1684C23.3905 49.8302 23.5786 49.5618 23.9394 49.4967C24.5984 49.4975 25.2582 49.4991 25.9172 49.4983C25.9654 49.4983 26.0137 49.4776 26.0619 49.4673L26.0627 49.4681ZM32.7355 41.2393C32.6021 41.3116 32.4832 41.3751 32.365 41.4418C31.8812 41.7125 31.3998 41.9896 30.9128 42.2548C30.1895 42.6486 29.4461 42.6907 28.7092 42.3096C28.2165 42.0547 27.7464 41.7562 27.2642 41.4807C27.1565 41.4196 27.0415 41.3711 26.9339 41.3187C26.8318 41.5823 26.9845 41.7284 27.1516 41.8451C27.5872 42.1492 28.0276 42.4478 28.4777 42.7296C28.886 42.9853 29.2484 43.2735 29.4662 43.7157C29.5763 43.9404 29.7153 44.1508 29.8552 44.3898C29.9838 44.1508 30.0794 43.9158 30.2249 43.7157C30.4097 43.4617 30.6018 43.1933 30.8493 43.0075C31.4071 42.5891 32.001 42.2175 32.5796 41.8261C32.7998 41.6776 32.8512 41.4966 32.7355 41.2393Z" fill="#E0E0E0"/>
  <path d="M42.9121 11.1046C42.7217 11.4119 42.5408 11.7255 42.3375 12.0241C41.6455 13.0419 40.9464 14.0551 40.2488 15.0698C39.6171 15.9884 38.9862 16.9062 38.3529 17.8233C38.1287 18.1472 37.8989 18.4672 37.6578 18.8086C38.2589 19.3834 38.8552 19.9535 39.4499 20.5244C39.6243 20.6919 39.8043 20.8563 39.9643 21.0373C40.0655 21.1516 40.178 21.1524 40.3066 21.1365C40.7912 21.0754 41.2742 20.9904 41.7605 20.9587C42.323 20.923 42.7297 21.1945 43.023 21.6661C43.408 22.287 43.8187 22.892 44.2036 23.5129C44.3957 23.8226 44.6778 24.0917 44.718 24.4752C44.7397 24.6809 44.7678 24.9079 44.7043 25.0969C44.4592 25.8313 44.1803 26.5546 43.9119 27.2811C43.8452 27.4614 43.8637 27.4796 44.0879 27.5312C44.6424 27.6583 45.1945 27.7972 45.7491 27.925C46.6178 28.1251 47.4882 28.3188 48.357 28.5189C48.9115 28.6468 49.4644 28.7841 50.0189 28.9119C50.8877 29.112 51.7573 29.3081 52.626 29.5066C52.7096 29.5257 52.7908 29.5527 52.8728 29.5757C53.3967 29.6972 53.9215 29.8187 54.4455 29.9401C54.542 29.9624 54.6424 29.9727 54.734 30.0076C55.0033 30.1093 55.115 30.3752 55.0603 30.6015C55.0049 30.8294 54.8369 31.0636 54.554 31.0223C54.1554 30.9644 53.7592 30.8842 53.3662 30.7953C52.4428 30.5864 51.5218 30.3681 50.6 30.1521C49.8654 29.9798 49.1317 29.8012 48.3963 29.6321C47.3098 29.3836 46.2216 29.143 45.1351 28.8953C44.5444 28.7603 43.9488 28.6388 43.367 28.4713C42.9258 28.3443 42.5746 27.8393 42.7771 27.2883C43.0656 26.5046 43.3389 25.7146 43.6298 24.9317C43.6836 24.788 43.6708 24.6689 43.5944 24.5514C43.0721 23.7471 42.5497 22.9436 42.0176 22.1457C41.9734 22.079 41.8553 22.0163 41.7781 22.0226C41.4422 22.0528 41.1103 22.1187 40.7752 22.1536C40.305 22.2021 39.8244 22.2997 39.4017 21.9774C39.372 21.9543 39.3406 21.9329 39.3141 21.9067C38.4743 21.0913 37.6344 20.2767 36.797 19.4581C36.5053 19.1722 36.4643 18.6617 36.6974 18.3179C37.3186 17.4017 37.9374 16.4838 38.5635 15.57C39.1863 14.6609 39.8164 13.7565 40.4425 12.8498C40.9464 12.1201 41.4478 11.3897 41.9525 10.6608C42.0498 10.5203 42.3375 10.4472 42.544 10.5028C42.749 10.5576 42.892 10.7267 42.9049 10.9324C42.9089 10.9895 42.9097 11.0459 42.9113 11.1031L42.9121 11.1046Z" fill="#E0E0E0"/>
  <path d="M16.1079 27.5552C15.8339 26.8105 15.5598 26.08 15.2978 25.3448C15.1411 24.9049 15.1548 24.4714 15.4192 24.0673C15.9633 23.2344 16.5041 22.3983 17.0571 21.571C17.2901 21.2217 17.6253 21.0033 18.0625 21.0295C18.5382 21.0581 19.0116 21.124 19.4857 21.1764C19.7317 21.2034 19.9342 21.1851 20.1359 20.9795C20.8351 20.2681 21.564 19.5845 22.2978 18.8755C22.0366 18.4928 21.7778 18.114 21.519 17.7361C21.0183 17.0049 20.5193 16.2736 20.0178 15.5431C19.3877 14.6245 18.7568 13.7059 18.1235 12.7896C17.8045 12.3283 17.4742 11.875 17.1599 11.4113C16.9486 11.0993 16.9928 10.6356 17.5176 10.5395C17.7281 10.5006 17.9258 10.5975 18.0528 10.7841C18.5688 11.5407 19.0807 12.3005 19.5983 13.0564C20.2243 13.9703 20.8544 14.8818 21.4837 15.794C22.0679 16.6404 22.6538 17.4852 23.2373 18.3324C23.5129 18.7326 23.4494 19.2296 23.1384 19.5535C22.7679 19.9394 22.3814 20.311 21.9972 20.6841C21.5697 21.1002 21.1397 21.5146 20.7041 21.9227C20.5008 22.1133 20.2581 22.2165 19.9712 22.2467C19.5155 22.2943 19.0783 22.1863 18.6347 22.13C18.5101 22.1141 18.3823 22.1133 18.2602 22.0879C18.0327 22.041 17.9274 22.1832 17.8262 22.3404C17.3384 23.0994 16.8473 23.8569 16.3675 24.6207C16.3169 24.7009 16.2952 24.8343 16.3249 24.9216C16.6006 25.7362 16.8714 26.5524 17.1816 27.3543C17.3793 27.8657 16.9671 28.458 16.4857 28.558C15.7286 28.716 14.9788 28.9066 14.225 29.0781C13.144 29.3242 12.0623 29.5632 10.9814 29.8085C10.1126 30.0062 9.24464 30.2103 8.37587 30.4088C7.47095 30.6152 6.56522 30.8216 5.65868 31.0225C5.38543 31.0836 5.16844 30.9836 5.01494 30.747C4.93458 30.6231 4.9394 30.2849 5.05995 30.1722C5.16202 30.0769 5.30266 29.9991 5.43928 29.9657C6.31769 29.7537 7.19931 29.5552 8.07932 29.3536C8.91192 29.163 9.74452 28.9733 10.5779 28.7843C11.5254 28.5691 12.4738 28.3555 13.4213 28.1404C14.2603 27.9498 15.0985 27.7577 15.9384 27.5671C15.9866 27.556 16.038 27.56 16.1063 27.556L16.1079 27.5552Z" fill="#E0E0E0"/>
  <path d="M52.5786 37.3729C53.0455 37.6095 53.5092 37.8517 53.9802 38.0795C54.21 38.1907 54.3113 38.3773 54.3065 38.6067C54.3017 38.8402 54.1642 39.0061 53.9352 39.0903C53.7182 39.1705 53.535 39.0776 53.3509 38.9847C52.6951 38.6536 52.0393 38.3217 51.3827 37.9922C50.6321 37.6151 49.8807 37.2419 49.1301 36.864C48.4405 36.517 47.7534 36.1653 47.0638 35.8183C46.3413 35.4547 45.6164 35.0966 44.8939 34.7321C44.6745 34.6218 44.4608 34.4995 44.2076 34.3629C44.1425 34.6059 44.0863 34.8195 44.0268 35.0323C43.8773 35.5674 43.7238 36.1017 43.5759 36.6369C43.4932 36.937 43.5984 37.1657 43.8805 37.3896C44.1554 37.6071 44.4198 37.839 44.685 38.0676C45.2034 38.5139 45.7201 38.9624 46.2369 39.411C46.474 39.6175 46.7078 39.8271 46.9449 40.0335C47.4665 40.4869 47.9897 40.9371 48.5096 41.3912C48.7797 41.627 49.0425 41.8716 49.3141 42.1066C49.7971 42.525 50.2865 42.9379 50.7695 43.3571C51.0452 43.5961 51.3297 43.8295 51.5821 44.0907C51.8826 44.402 51.783 44.7315 51.4864 44.9617C51.3426 45.0737 51.0002 45.0149 50.8419 44.8736C50.6779 44.7267 50.5124 44.5814 50.3476 44.4353C50.0824 44.2075 49.8172 43.9796 49.5528 43.7509C49.0304 43.2991 48.5072 42.8482 47.9881 42.394C47.6047 42.0582 47.2278 41.7144 46.8436 41.3801C46.3566 40.9561 45.8624 40.5393 45.3745 40.1161C45.0089 39.7985 44.6488 39.4746 44.2848 39.1554C43.8644 38.7878 43.4361 38.4281 43.0206 38.0549C42.4926 37.5801 42.3519 36.9966 42.5408 36.3209C42.7634 35.5206 42.9603 34.7131 43.1942 33.9159C43.3469 33.3967 43.9295 33.0537 44.5114 33.3363C45.5891 33.8596 46.6588 34.4003 47.7301 34.9354C48.41 35.2752 49.0867 35.6198 49.7658 35.9612C50.4834 36.3217 51.2011 36.6806 51.9188 37.0402C52.139 37.1506 52.3584 37.2617 52.5778 37.3729H52.5786Z" fill="#E0E0E0"/>
  <path d="M15.8059 34.3963C14.6615 34.9663 13.5379 35.5237 12.4168 36.0843C11.7369 36.4241 11.0594 36.7679 10.3803 37.1101C9.66266 37.4713 8.94499 37.8326 8.22812 38.1946C7.64948 38.4868 7.07164 38.7814 6.4922 39.0728C6.22699 39.2062 5.89588 39.0918 5.76569 38.8076C5.66443 38.5877 5.71907 38.2518 6.00759 38.1081C7.05396 37.5888 8.09712 37.0632 9.14108 36.5408C9.85956 36.1819 10.5788 35.8246 11.2965 35.4642C12.0086 35.1061 12.719 34.7448 13.4319 34.3867C14.1278 34.0374 14.8246 33.692 15.5214 33.3442C16.0381 33.0862 16.6835 33.3832 16.8193 33.9453C17.017 34.7639 17.2589 35.5729 17.4847 36.3852C17.6664 37.0386 17.4719 37.7326 16.886 38.1661C16.6288 38.3566 16.403 38.5885 16.1611 38.7989C15.6443 39.2483 15.1252 39.6937 14.6092 40.1439C14.3432 40.3757 14.0852 40.6155 13.8184 40.8465C13.3298 41.2697 12.8371 41.6881 12.3485 42.1105C12.0962 42.3289 11.8502 42.5544 11.5987 42.7735C11.0779 43.2269 10.5539 43.6771 10.0332 44.132C9.75749 44.3726 9.48586 44.6163 9.21582 44.8633C9.04384 45.0205 8.71835 45.0784 8.5536 44.9744C8.29965 44.8132 8.18633 44.5433 8.31491 44.286C8.38966 44.1352 8.5319 44.0121 8.66129 43.8954C8.93133 43.6524 9.21422 43.423 9.48987 43.1856C9.99458 42.7521 10.4993 42.3178 11.0016 41.8819C11.2491 41.6675 11.491 41.4468 11.7377 41.2324C12.2633 40.7743 12.7913 40.3185 13.3169 39.8612C13.5492 39.6587 13.779 39.4539 14.0121 39.2514C14.5385 38.7941 15.0657 38.3376 15.5913 37.8802C15.8284 37.6738 16.0687 37.4697 16.2985 37.2554C16.4673 37.0974 16.4994 36.9013 16.4368 36.6774C16.2487 36.0001 16.0711 35.3197 15.8887 34.6416C15.867 34.5622 15.8364 34.4844 15.8067 34.3986L15.8059 34.3963Z" fill="#E0E0E0"/>
  <path d="M19.3096 42.4138C19.0114 42.9521 18.7221 43.4761 18.4304 43.9986C17.9458 44.8656 17.4572 45.7294 16.9741 46.5972C16.6551 47.1697 16.3465 47.7477 16.0282 48.321C15.5356 49.2102 15.0405 50.0995 14.5423 50.9863C14.4209 51.2023 14.1163 51.3468 13.8455 51.1952C13.5811 51.0475 13.4493 50.7323 13.5859 50.4853C13.9853 49.7604 14.396 49.0427 14.7978 48.3194C15.0542 47.8589 15.2985 47.392 15.5549 46.9323C16.0355 46.07 16.5225 45.2118 17.0023 44.3495C17.3278 43.7659 17.6404 43.176 17.9699 42.5948C18.166 42.2486 18.3532 41.8913 18.5959 41.5785C18.9206 41.1601 19.6198 41.2141 19.9879 41.5579C20.4412 41.9811 20.8792 42.4217 21.3541 42.8203C21.7302 43.1355 21.9681 43.5214 22.0316 43.9843C22.0718 44.278 22.0171 44.5932 21.9569 44.8894C21.7961 45.6754 21.6113 46.4567 21.4329 47.2388C21.3011 47.8176 21.1604 48.3948 21.0294 48.9744C20.8534 49.7509 20.6847 50.5298 20.5095 51.3063C20.3785 51.8851 20.241 52.4631 20.1052 53.0412C20.012 53.4397 19.9252 53.8407 19.8183 54.2361C19.7396 54.5275 19.4599 54.6966 19.214 54.6283C18.8877 54.5378 18.7149 54.2432 18.7872 53.9288C19.0058 52.98 19.2164 52.0296 19.4334 51.08C19.566 50.5012 19.709 49.9248 19.84 49.346C20.016 48.5687 20.1816 47.7898 20.3568 47.0125C20.4878 46.4337 20.6292 45.8565 20.7634 45.2784C20.8342 44.9744 20.9226 44.6718 20.9635 44.363C21.0005 44.0899 20.8976 43.8564 20.6694 43.6691C20.4106 43.4571 20.1776 43.2133 19.9316 42.9854C19.7291 42.7973 19.5242 42.6123 19.3088 42.4154L19.3096 42.4138Z" fill="#E0E0E0"/>
  <path d="M38.0041 44.2615C37.9664 43.7518 38.1906 43.3365 38.5241 42.9919C38.8826 42.6227 39.29 42.3012 39.675 41.9566C39.8582 41.7922 40.027 41.6096 40.2215 41.4596C40.6185 41.1547 41.3217 41.2428 41.5981 41.7248C41.9887 42.4052 42.3656 43.0936 42.7466 43.7788C43.2497 44.6839 43.7512 45.5898 44.2543 46.495C44.689 47.277 45.1262 48.0583 45.5602 48.8404C45.8576 49.3763 46.1493 49.9154 46.4491 50.4498C46.6596 50.8253 46.3398 51.293 45.9347 51.2525C45.7298 51.2326 45.5827 51.1119 45.4887 50.9452C45.1576 50.3585 44.8417 49.763 44.5138 49.1746C43.9818 48.2219 43.4409 47.2739 42.9105 46.3211C42.5826 45.7328 42.2692 45.1365 41.9437 44.5465C41.5764 43.8812 41.2003 43.2206 40.833 42.5545C40.7671 42.4346 40.7141 42.4536 40.6321 42.5299C40.2343 42.9006 39.8518 43.2897 39.4298 43.6311C39.0762 43.9177 39.0561 44.2417 39.1518 44.6387C39.339 45.4128 39.4998 46.1933 39.6758 46.9698C39.8068 47.5494 39.9482 48.1258 40.0792 48.7054C40.2552 49.4819 40.424 50.2608 40.5992 51.0373C40.7302 51.6169 40.8692 52.1941 41.0026 52.7729C41.1007 53.1969 41.2019 53.6201 41.2879 54.0465C41.3345 54.2767 41.0798 54.5864 40.8258 54.6356C40.596 54.6801 40.2649 54.4697 40.2142 54.2386C39.9554 53.0786 39.7047 51.917 39.4411 50.7578C39.2458 49.898 39.0296 49.0436 38.8327 48.1846C38.5691 47.0317 38.3144 45.8773 38.0604 44.722C38.0275 44.5712 38.0226 44.414 38.0041 44.2599V44.2615Z" fill="#E0E0E0"/>
  <path d="M28.7848 17.5112C28.174 17.4715 27.8534 17.0833 27.6388 16.5736C27.3639 15.9217 27.0939 15.2675 26.8239 14.614C26.4759 13.7748 26.1335 12.9332 25.7823 12.0955C25.4544 11.3135 25.1153 10.5354 24.7858 9.7541C24.6251 9.37219 24.4804 8.98314 24.3189 8.60124C24.1975 8.31541 24.392 8.03196 24.5873 7.9478C24.875 7.82314 25.1828 7.91842 25.3017 8.19234C25.6103 8.90295 25.9061 9.61912 26.2075 10.3329C26.4494 10.9062 26.6945 11.4786 26.9348 12.0527C27.1566 12.5814 27.372 13.1126 27.593 13.6414C27.859 14.2774 28.1274 14.9126 28.395 15.5477C28.4995 15.7955 28.6088 16.0408 28.7069 16.2901C28.7519 16.4052 28.8162 16.4465 28.9456 16.4449C29.5162 16.437 30.0868 16.437 30.6574 16.4449C30.8044 16.4473 30.8631 16.3981 30.9065 16.2599C31.2456 15.1841 31.5944 14.1106 31.9416 13.0372C32.19 12.271 32.4431 11.5072 32.6906 10.7402C32.9824 9.83429 33.2725 8.92836 33.5562 8.02005C33.6936 7.57939 34.0561 7.47935 34.4177 7.65482C34.6259 7.75566 34.703 8.03275 34.6146 8.30747C34.3639 9.08557 34.1139 9.86366 33.8616 10.641C33.4959 11.7668 33.1278 12.8911 32.763 14.017C32.4753 14.9046 32.1892 15.7931 31.9039 16.6815C31.7487 17.1635 31.3011 17.4946 30.8269 17.512C30.1462 17.512 29.4647 17.512 28.784 17.512L28.7848 17.5112Z" fill="#E0E0E0"/>
  <path d="M32.0312 33.0089C32.1494 32.2848 32.638 31.9569 33.3187 31.8346C33.3372 31.8314 33.3581 31.837 33.3766 31.8322C33.6756 31.7592 33.6635 31.7616 33.5992 31.4686C33.5245 31.1264 33.4489 30.7818 33.4184 30.434C33.3677 29.8703 33.6514 29.4471 34.1272 29.1883C34.6391 28.9088 35.1848 28.6881 35.7217 28.4547C35.9122 28.3721 36.2296 28.4721 36.3285 28.6166C36.4747 28.8294 36.4627 29.1399 36.281 29.3193C36.2007 29.3987 36.089 29.4511 35.9845 29.5003C35.5835 29.6893 35.1776 29.8687 34.7758 30.0577C34.4856 30.1943 34.4406 30.3245 34.5307 30.7334C34.5781 30.9485 34.6367 31.1613 34.6809 31.3765C34.7002 31.4694 34.7115 31.4932 34.8256 31.4646C35.9411 31.1835 37.0598 30.9168 38.1769 30.6421C38.4831 30.5666 38.7009 30.7056 38.8158 31.0684C38.8769 31.2606 38.7057 31.5861 38.4943 31.6441C37.9285 31.7981 37.3604 31.9442 36.7922 32.0871C36.1862 32.2395 35.5794 32.3848 34.9478 32.5389C34.9743 32.6929 34.9968 32.8557 35.0321 33.0145C35.0908 33.2773 35.1591 33.5377 35.2218 33.7989C35.2708 34.0022 35.4083 34.1165 35.6132 34.1165C36.1066 34.1165 36.6017 34.1014 37.0943 34.1205C37.6344 34.1411 37.7686 34.581 37.5685 34.9526C37.4897 35.0986 37.3499 35.1773 37.1827 35.1788C36.58 35.1836 35.9764 35.1963 35.3745 35.1749C35.0329 35.163 34.7669 34.9581 34.529 34.7255C34.173 34.3769 34.132 33.9085 34.03 33.4639C33.989 33.2844 33.96 33.1026 33.9086 32.9263C33.8958 32.8827 33.8098 32.8239 33.7656 32.8311C33.6008 32.8557 33.4353 32.8922 33.281 32.9509C33.2118 32.9771 33.1668 33.0653 33.1106 33.1248C33.1106 33.7608 33.1106 34.3968 33.1106 35.0327C33.0961 35.0717 33.0808 35.1106 33.0664 35.1503C32.9788 35.3837 32.7369 35.4972 32.4315 35.4472C32.278 35.4226 32.0755 35.1947 32.0626 35.0327C32.0642 34.3984 32.0658 33.7648 32.065 33.1304C32.065 33.0907 32.0441 33.051 32.0329 33.0113L32.0312 33.0089Z" fill="#E0E0E0"/>
  <path d="M22.7442 35.1427C22.52 35.0586 22.3569 34.9157 22.3263 34.6695C22.2902 34.3813 22.4364 34.1606 22.7442 34.078C23.2771 34.0796 23.8099 34.082 24.3435 34.0812C24.3773 34.0812 24.411 34.0605 24.4448 34.0494C24.6915 34.0089 24.7221 33.9335 24.7847 33.6739C24.8788 33.2872 24.9527 32.8958 25.0379 32.4932C24.4295 32.3408 23.8099 32.1828 23.1887 32.0303C22.6607 31.9001 22.1302 31.7779 21.6014 31.6484C21.3041 31.5754 21.0863 31.2332 21.1771 30.9561C21.2735 30.6631 21.5291 30.5234 21.8811 30.6131C22.9596 30.8886 24.0414 31.1506 25.1223 31.4158C25.1697 31.4277 25.2219 31.4174 25.283 31.4174C25.3497 31.0903 25.4164 30.7663 25.4815 30.4424C25.5201 30.2526 25.4486 30.1272 25.2677 30.043C24.792 29.8239 24.3186 29.5976 23.8469 29.3689C23.6243 29.261 23.5358 29.0712 23.5584 28.8322C23.5776 28.6226 23.6853 28.4535 23.8959 28.4162C24.0502 28.3892 24.2358 28.3971 24.3773 28.4567C24.8772 28.6679 25.3634 28.9092 25.856 29.1379C26.2699 29.33 26.4483 29.6857 26.5625 30.097C26.6565 30.4345 26.5255 30.7433 26.4716 31.0617C26.4403 31.2483 26.3816 31.4301 26.3487 31.6167C26.3439 31.6469 26.4049 31.708 26.4467 31.7223C26.7256 31.8168 27.0205 31.8755 27.2866 31.9962C27.7141 32.1899 27.899 32.5647 27.948 33.0125C27.948 33.6493 27.948 34.286 27.948 34.9228C27.8965 35.2007 27.7173 35.3984 27.5027 35.4127C27.1748 35.4341 27.0037 35.3111 26.8719 34.9601C26.8831 34.9204 26.904 34.8799 26.904 34.8402C26.9064 34.2844 26.9064 33.7295 26.904 33.1737C26.904 33.1332 26.8823 33.0927 26.8711 33.053C26.7738 32.9911 26.6838 32.9101 26.5777 32.8704C26.4347 32.8172 26.2804 32.7957 26.1003 32.7537C26.0489 32.9807 26.0007 33.2165 25.942 33.4492C25.8697 33.7382 25.8191 34.0375 25.7049 34.3098C25.5169 34.76 25.1456 35.0125 24.6658 35.1118C24.6425 35.1165 24.6216 35.1316 24.5991 35.1419C24.5653 35.1308 24.5308 35.1102 24.497 35.1102C23.9473 35.1078 23.3976 35.1078 22.8479 35.1102C22.8134 35.1102 22.7796 35.1308 22.7458 35.1419L22.7442 35.1427Z" fill="#E0E0E0"/>
  <path d="M23.5628 40.0697C23.5628 40.4246 23.5757 40.7795 23.5588 41.1336C23.5443 41.4488 23.3418 41.7378 22.9705 41.7148C22.7093 41.6989 22.4859 41.4877 22.4851 41.2273C22.4835 40.5365 22.4947 39.8466 22.4787 39.1566C22.4738 38.9668 22.4304 38.7572 22.3364 38.5952C22.2279 38.4087 22.0527 38.2554 21.8896 38.1062C21.6396 37.8791 21.3712 37.6719 21.1173 37.4495C20.8135 37.1836 20.5242 36.9025 20.2163 36.6413C19.8659 36.3443 19.7125 35.9497 19.5991 35.5273C19.3966 34.7723 19.1901 34.0188 18.9827 33.2645C18.8726 32.8643 18.7513 32.4673 18.6444 32.0664C18.5664 31.7726 18.7296 31.5082 19.0277 31.4217C19.3138 31.3383 19.6007 31.4844 19.6851 31.7782C19.8933 32.5062 20.0918 33.2367 20.2935 33.9664C20.4382 34.4904 20.5475 35.0271 20.7403 35.5337C20.8295 35.7687 21.0666 35.9577 21.2611 36.1427C21.5103 36.3793 21.7851 36.5897 22.0471 36.8128C22.3388 37.0605 22.637 37.3011 22.9167 37.5615C23.2622 37.8831 23.4929 38.2777 23.521 38.7517C23.5467 39.1899 23.5266 39.6314 23.5266 40.0713C23.5395 40.0713 23.5524 40.0713 23.5652 40.0713L23.5628 40.0697Z" fill="#E0E0E0"/>
  <path d="M37.8242 41.2449C37.7567 41.3663 37.702 41.4989 37.6177 41.6077C37.4762 41.7895 37.2713 41.7705 37.0824 41.7085C36.8494 41.6323 36.7417 41.4711 36.7409 41.252C36.7401 40.435 36.7232 39.6172 36.7473 38.8002C36.761 38.3326 37.0013 37.9427 37.3452 37.6275C37.5992 37.3949 37.8724 37.1837 38.1328 36.9582C38.48 36.6581 38.8135 36.3413 39.1712 36.0546C39.4701 35.8149 39.5714 35.4861 39.6646 35.1471C39.8904 34.3285 40.113 33.5091 40.3389 32.6913C40.4184 32.4031 40.498 32.1149 40.5888 31.8307C40.6989 31.4869 40.9529 31.3678 41.3242 31.4742C41.546 31.5377 41.6995 31.8537 41.6215 32.13C41.2551 33.4345 40.8862 34.739 40.5101 36.0403C40.3992 36.423 40.0913 36.6708 39.8133 36.9296C39.5706 37.1551 39.3054 37.3568 39.053 37.5719C38.7516 37.8284 38.4519 38.0848 38.1553 38.3468C37.9906 38.4921 37.8507 38.6557 37.8242 38.886C37.8242 39.6728 37.8242 40.4596 37.8242 41.2464V41.2449Z" fill="#E0E0E0"/>
  <path d="M32.6846 56.3999C32.6098 56.6857 32.482 56.9191 32.1365 56.9302C31.8648 56.939 31.6012 56.6865 31.6012 56.4197C31.6012 55.5146 31.6181 54.6087 31.594 53.7035C31.5827 53.2843 31.9894 52.8317 32.4732 52.7849C32.8911 52.7444 33.3058 52.6833 33.7229 52.6364C33.9977 52.6055 34.2742 52.5824 34.5499 52.5594C34.7323 52.5435 34.9155 52.5388 35.098 52.5197C35.6396 52.4641 36.0696 52.8143 36.2014 53.3177C36.3991 54.0743 36.6089 54.827 36.8025 55.5845C36.8692 55.8465 36.6113 56.1815 36.3461 56.176C35.9924 56.1688 35.8076 56.0331 35.7168 55.6916C35.5448 55.043 35.3495 54.3998 35.1888 53.748C35.1438 53.5646 35.0417 53.5749 34.9179 53.5876C34.5876 53.621 34.2573 53.6591 33.9278 53.7004C33.5244 53.7504 33.1225 53.8052 32.7199 53.8576C32.7062 53.8869 32.6813 53.9163 32.6813 53.9457C32.6813 54.7643 32.6837 55.5821 32.6854 56.4007L32.6846 56.3999Z" fill="#E0E0E0"/>
  <path d="M28.3273 56.428C28.2019 56.7941 28.0404 56.9378 27.7455 56.9171C27.4851 56.8989 27.3372 56.7329 27.2528 56.5027C27.2633 56.4685 27.2833 56.4336 27.2833 56.3995C27.285 55.592 27.285 54.7837 27.2825 53.9762C27.2825 53.9318 27.2552 53.8873 27.2408 53.8429C26.8309 53.7912 26.4218 53.7365 26.012 53.6904C25.7307 53.6587 25.4478 53.6388 25.1665 53.6118C25.0355 53.5991 24.9053 53.5808 24.7582 53.5634C24.6104 54.1073 24.4665 54.6416 24.321 55.1759C24.2584 55.4054 24.1997 55.6364 24.1257 55.8619C24.0462 56.1041 23.6042 56.3328 23.3076 56.058C23.1027 55.8691 23.0512 55.669 23.1268 55.4086C23.3382 54.6757 23.5318 53.9381 23.7464 53.2061C23.8678 52.7908 24.2712 52.4907 24.6988 52.5153C25.2067 52.5447 25.7114 52.6114 26.2185 52.6614C26.6123 52.7003 27.0077 52.7329 27.4007 52.7773C27.9199 52.8361 28.2469 53.0973 28.3297 53.6849C28.3297 54.5995 28.3297 55.5142 28.3297 56.4288L28.3273 56.428Z" fill="#E0E0E0"/>
  <path d="M34.9837 45.7864V45.3728C34.4838 45.3728 33.992 45.3728 33.5001 45.3728C33.2462 45.3728 33.0091 45.1346 32.9858 44.8591C32.9665 44.6344 33.1465 44.3859 33.3836 44.3501C33.595 44.3184 33.8112 44.3144 34.0257 44.3096C34.3392 44.3033 34.6526 44.308 34.9877 44.308C34.9716 44.0889 34.9692 43.8674 35.1485 43.7205C35.2344 43.6506 35.3582 43.603 35.4699 43.5911C35.7817 43.5569 35.9489 43.6911 36.0703 44.0389C36.0703 45.283 36.0703 46.528 36.0703 47.7722C36.0108 47.9889 35.9184 48.1644 35.6684 48.2311C35.3462 48.3168 34.9933 48.0794 34.9885 47.7499C34.9845 47.4657 34.9837 47.1807 34.9821 46.8964C34.9532 46.8829 34.9234 46.8583 34.8945 46.8583C34.5915 46.8575 34.2893 46.8607 33.9864 46.8623C33.7517 46.8408 33.5371 46.6288 33.5259 46.4089C33.5098 46.081 33.6544 45.8801 33.9446 45.8261C34.2411 45.8269 34.5369 45.8301 34.8334 45.8269C34.8841 45.8269 34.9347 45.7999 34.9853 45.7856L34.9837 45.7864Z" fill="#E0E0E0"/>
  <path d="M24.9863 47.8115C24.8625 48.1783 24.578 48.3522 24.2726 48.2204C24.1006 48.1465 23.9624 48.0139 23.9375 47.8083C23.9375 46.5403 23.9375 45.2715 23.9375 44.0035C23.9897 43.7391 24.2107 43.5732 24.492 43.5867C24.8288 43.6026 24.9493 43.7725 24.9943 44.3092C25.4645 44.3092 25.9354 44.3084 26.4072 44.3092C26.6684 44.3092 26.9054 44.4775 26.9762 44.7086C27.0324 44.892 26.9054 45.1993 26.7126 45.312C26.6467 45.3501 26.5607 45.37 26.4827 45.3708C25.9909 45.3755 25.4982 45.3732 24.9839 45.3732V45.786C25.0345 45.8003 25.0851 45.8265 25.1358 45.8273C25.4323 45.8305 25.7281 45.8273 26.0246 45.8265C26.285 45.8742 26.4859 46.0957 26.4803 46.3283C26.4739 46.5768 26.2713 46.8126 26.0214 46.8627C25.6895 46.8627 25.3576 46.8611 25.0249 46.8603C25.0104 46.9119 24.9831 46.9627 24.9823 47.0143C24.9791 47.2803 24.9823 47.5463 24.9831 47.8122L24.9863 47.8115Z" fill="#E0E0E0"/>
  <path d="M11.635 15.3317C11.6133 15.0991 11.7218 14.9347 11.9339 14.8569C12.1485 14.7783 12.3647 14.7974 12.5519 14.949C12.5616 14.957 12.5688 14.9673 12.5785 14.9768C13.1949 15.5731 13.8105 16.1694 14.4277 16.7648C14.9115 17.2317 15.3985 17.6962 15.8815 18.1646C16.0824 18.3591 16.1186 18.6188 15.9876 18.8752C15.8896 19.0666 15.6493 19.169 15.3865 19.1166C15.319 19.1031 15.2507 19.0547 15.1992 19.0054C14.6254 18.4568 14.0556 17.905 13.4842 17.3532C12.9224 16.8109 12.3567 16.2726 11.8021 15.7223C11.7049 15.6263 11.6567 15.4826 11.5859 15.3611C11.6028 15.3516 11.6189 15.342 11.6358 15.3317H11.635Z" fill="#E0E0E0"/>
  <path d="M12.1159 23.8754C11.7784 23.7714 11.4248 23.6666 11.0728 23.5547C10.0055 23.2132 8.93904 22.8679 7.87177 22.5249C7.73113 22.4796 7.58325 22.4526 7.44985 22.3939C7.1766 22.274 7.03676 21.9619 7.13079 21.7166C7.2417 21.4276 7.53503 21.2982 7.85409 21.3998C8.62882 21.6467 9.40275 21.8929 10.1767 22.1414C10.8743 22.3653 11.5678 22.6035 12.2702 22.8099C12.5282 22.8853 12.6472 23.0545 12.6833 23.2736C12.7171 23.4784 12.6046 23.6618 12.4253 23.7778C12.3474 23.8286 12.2413 23.8381 12.1143 23.8762L12.1159 23.8754Z" fill="#E0E0E0"/>
  <path d="M27.2266 53.8369C27.2411 53.8814 27.2684 53.9258 27.2684 53.9703C27.2709 54.7778 27.2709 55.586 27.2692 56.3935C27.2692 56.4277 27.2491 56.4626 27.2386 56.4967C27.2362 55.7051 27.2338 54.9135 27.2314 54.122C27.2314 54.0267 27.2282 53.9322 27.2266 53.8369Z" fill="#E0E0E0"/>
  <path d="M33.6484 50.5693C33.6886 50.558 33.7288 50.5371 33.769 50.5371C34.4497 50.5371 35.1296 50.5387 35.8103 50.5403C35.7693 50.5516 35.7283 50.5733 35.6873 50.5733C35.0074 50.5733 34.3275 50.5717 33.6484 50.5701V50.5693Z" fill="#E0E0E0"/>
  <path d="M23.8984 50.5705C23.933 50.5593 23.9667 50.5383 24.0013 50.5383C24.6539 50.5367 25.3065 50.5367 25.9582 50.5383C25.9928 50.5383 26.0265 50.5593 26.0611 50.5705H23.8992H23.8984Z" fill="#E0E0E0"/>
  <path d="M26.06 49.4738C26.0118 49.485 25.9635 49.5052 25.9153 49.5052C25.2563 49.506 24.5965 49.5052 23.9375 49.5036C23.9705 49.4915 24.0034 49.4697 24.0364 49.4697C24.7106 49.4697 25.3857 49.4721 26.06 49.4738Z" fill="#E0E0E0"/>
  <path d="M35.7714 49.5036C35.1245 49.5044 34.4783 49.506 33.8314 49.5052C33.7831 49.5052 33.7357 49.485 33.6875 49.4746C34.3553 49.473 35.024 49.4705 35.6918 49.4697C35.7184 49.4697 35.7449 49.4915 35.7714 49.5036Z" fill="#E0E0E0"/>
  <path d="M28.7812 17.4961C29.462 17.4961 30.1435 17.4961 30.8242 17.4961C30.7832 17.5066 30.7414 17.5267 30.7004 17.5275C30.1025 17.5299 29.5037 17.5299 28.9058 17.5275C28.8648 17.5275 28.823 17.5074 28.7821 17.4961H28.7812Z" fill="#E0E0E0"/>
  <path d="M27.9375 34.9123C27.9375 34.2755 27.9375 33.6387 27.9375 33.002C27.9496 33.0345 27.9713 33.0671 27.9713 33.0996C27.9737 33.6713 27.9737 34.2429 27.9713 34.8146C27.9713 34.8472 27.9496 34.8797 27.9375 34.9123Z" fill="#E0E0E0"/>
  <path d="M30.5081 46.9491C30.4968 46.8586 30.475 46.7681 30.4766 46.6776C30.4831 46.3473 30.4968 46.017 30.5081 45.6875C30.5081 46.1083 30.5081 46.5283 30.5081 46.9491Z" fill="#E0E0E0"/>
  <path d="M29.2109 45.7352C29.2214 45.8884 29.2423 46.0416 29.2407 46.1941C29.2383 46.4347 29.2214 46.6752 29.2109 46.9158C29.2109 46.522 29.2109 46.1282 29.2109 45.7344V45.7352Z" fill="#E0E0E0"/>
  <path d="M26.0173 45.8145C25.7208 45.8153 25.4242 45.8185 25.1285 45.8153C25.0778 45.8153 25.0272 45.7879 24.9766 45.7734C25.2651 45.775 25.5528 45.775 25.8413 45.7799C25.9 45.7807 25.9594 45.8016 26.0181 45.8137L26.0173 45.8145Z" fill="#E0E0E0"/>
  <path d="M35.0017 45.7734C34.9511 45.7879 34.9004 45.8145 34.8498 45.8153C34.5532 45.8185 34.2575 45.8153 33.9609 45.8145C34.0968 45.8024 34.2318 45.7847 34.3684 45.7807C34.5798 45.7734 34.7911 45.7759 35.0025 45.7742L35.0017 45.7734Z" fill="#E0E0E0"/>
  <path d="M25.021 46.8485C25.017 46.8612 25.017 46.8731 25.021 46.885C25.0186 47.1319 25.0186 47.378 25.013 47.625C25.0113 47.6837 24.9912 47.7417 24.9791 47.7996C24.9783 47.5337 24.9743 47.2677 24.9783 47.0017C24.9783 46.9501 25.0057 46.8993 25.021 46.8477V46.8485Z" fill="#E0E0E0"/>
  <path d="M43.8594 18.4692C43.9221 18.3628 43.9671 18.2389 44.0515 18.1524C44.4388 17.7562 44.835 17.3671 45.2328 16.9805C45.8701 16.3596 46.5099 15.7403 47.1528 15.1242C47.283 14.9995 47.4156 14.8653 47.5731 14.7843C47.8126 14.6621 48.1606 14.7748 48.2771 14.9749C48.4009 15.1861 48.3125 15.5497 48.0939 15.7498C47.8375 15.9856 47.582 16.223 47.332 16.4652C47.0202 16.7669 46.7164 17.0758 46.4054 17.3783C45.8854 17.8824 45.3622 18.3842 44.8407 18.886C44.6606 19.0591 44.4525 19.1401 44.2146 19.0202C44.0032 18.9138 43.8835 18.7399 43.8594 18.4692Z" fill="#E0E0E0"/>
  <path d="M52.8428 21.8376C52.8412 22.0742 52.6684 22.2791 52.3967 22.3656C51.569 22.6308 50.742 22.8952 49.9142 23.1596C49.2633 23.3676 48.6099 23.5709 47.9605 23.7853C47.6977 23.8718 47.3778 23.694 47.2951 23.4057C47.2187 23.139 47.3481 22.8682 47.6254 22.7777C48.7377 22.4141 49.8507 22.0496 50.9646 21.6916C51.3632 21.5629 51.7715 21.4613 52.1677 21.3255C52.4586 21.2255 52.8806 21.4653 52.8436 21.8384L52.8428 21.8376Z" fill="#E0E0E0"/>
</svg>