<svg xmlns="http://www.w3.org/2000/svg" width="20" height="19" viewBox="0 0 20 19" fill="none">
  <path d="M19.4716 1.33136C19.2663 1.16307 19.0187 1.05286 18.7551 1.01241C18.4915 0.971961 18.2218 1.00278 17.9745 1.10161L0.91095 7.91227C0.635211 8.0243 0.400457 8.2166 0.237851 8.46363C0.0752446 8.71067 -0.00752238 9.00077 0.000537366 9.2954C0.00859711 9.59004 0.107102 9.87529 0.282976 10.1133C0.45885 10.3513 0.703774 10.5307 0.985234 10.6279L4.66709 11.8915L6.6623 18.4131C6.66611 18.4263 6.67849 18.4347 6.6842 18.447C6.70476 18.499 6.73478 18.5469 6.77277 18.5882C6.8305 18.652 6.90502 18.6986 6.98801 18.7229C6.99753 18.7266 7.0042 18.7351 7.01372 18.737H7.01944L7.02229 18.7379C7.09597 18.7536 7.17254 18.7497 7.24419 18.7266C7.25181 18.7248 7.25943 18.7248 7.268 18.7219C7.33681 18.6981 7.39907 18.6587 7.44991 18.6071C7.45562 18.6005 7.46514 18.5995 7.47086 18.5939L10.3403 15.4621L14.5279 18.6683C14.7822 18.8651 15.0955 18.9715 15.4184 18.9715C16.1174 18.9715 16.7203 18.4875 16.8641 17.8123L19.9707 2.72965C20.0234 2.4736 20.0048 2.20821 19.9169 1.96179C19.829 1.71537 19.6751 1.49809 19.4716 1.33136ZM7.70324 13.1297L7.02991 16.366L5.62517 11.7729L12.5917 8.18533L7.83276 12.8915C7.76686 12.9566 7.72181 13.0395 7.70324 13.1297ZM15.9307 17.6231C15.9129 17.7085 15.8731 17.7879 15.8152 17.8537C15.7573 17.9195 15.6833 17.9694 15.6003 17.9988C15.5192 18.0296 15.4315 18.0391 15.3457 18.0262C15.2598 18.0133 15.1789 17.9785 15.1108 17.9253L10.5746 14.4517C10.4798 14.3794 10.3609 14.345 10.2415 14.3555C10.1222 14.3659 10.0113 14.4205 9.93082 14.5082L7.93371 16.6843L8.60608 13.4574L15.4527 6.68723C15.5328 6.6077 15.5816 6.50245 15.5902 6.39047C15.5988 6.2785 15.5666 6.16718 15.4995 6.0766C15.4324 5.98602 15.3347 5.92215 15.2241 5.89651C15.1135 5.87086 14.9973 5.88514 14.8965 5.93677L5.02708 11.0196L1.29666 9.7371C1.19775 9.70481 1.11148 9.64283 1.04986 9.5598C0.988242 9.47677 0.954333 9.37681 0.952854 9.27383C0.948109 9.16994 0.976182 9.06717 1.03318 8.97977C1.09018 8.89237 1.17328 8.82468 1.27094 8.78608L18.3317 1.97542C18.4191 1.9387 18.5151 1.92682 18.609 1.94112C18.7029 1.95543 18.7909 1.99535 18.8631 2.0564C18.9349 2.11383 18.9891 2.18985 19.0197 2.27598C19.0503 2.36211 19.0561 2.45496 19.0364 2.54415L15.9307 17.6231Z" fill="#E0E0E0"/>
</svg>