<svg width="42" height="22" viewBox="0 0 42 22" fill="none" xmlns="http://www.w3.org/2000/svg">
<path d="M30.6667 10.7031C30.6667 11.4395 31.2636 12.0365 32 12.0365C32.7364 12.0365 33.3333 11.4395 33.3333 10.7031C33.3333 9.96675 32.7364 9.36979 32 9.36979C31.2636 9.36979 30.6667 9.96675 30.6667 10.7031ZM-134 10.9531H32V10.4531H-134V10.9531Z" fill="black"/>
<ellipse cx="32" cy="11.1954" rx="10" ry="10.5157" fill="#E0E0E0"/>
<path d="M41.9997 11.0915C41.9952 11.2425 41.9963 11.3938 41.9845 11.5441C41.9692 11.735 41.9451 11.9255 41.9215 12.1156C41.9025 12.2709 41.8832 12.4263 41.8564 12.5802C41.8272 12.7472 41.7927 12.9134 41.7538 13.0782C41.666 13.4518 41.5567 13.8199 41.42 14.1791C41.3303 14.4154 41.2299 14.6481 41.1278 14.8798C41.0563 15.0418 40.9815 15.2035 40.8942 15.358C40.742 15.6269 40.588 15.8956 40.4182 16.1541C40.2486 16.4121 40.0638 16.661 39.8763 16.907C39.7565 17.064 39.6196 17.2083 39.4884 17.3609C39.6518 17.5192 39.8168 17.6828 39.9864 17.8411C40.0319 17.8837 40.0247 17.9053 39.9842 17.9439C39.8058 18.1145 39.6304 18.288 39.4613 18.4534C39.3319 18.3284 39.2052 18.2058 39.0783 18.0832C39.0389 18.0451 38.999 18.0073 38.9607 17.9682C38.9328 17.9397 38.9092 17.941 38.8798 17.9677C38.7809 18.0577 38.6834 18.1492 38.5803 18.234C38.3901 18.3903 38.2002 18.5476 38.0019 18.6939C37.8125 18.834 37.6157 18.9655 37.4161 19.0915C37.2294 19.2094 37.0368 19.3189 36.8431 19.4256C36.6762 19.5175 36.5056 19.603 36.3336 19.686C35.8755 19.9067 35.3998 20.0867 34.9106 20.2283C34.5672 20.328 34.2163 20.4047 33.8662 20.4808C33.6899 20.5192 33.5086 20.5367 33.3285 20.5575C33.1185 20.5821 32.9077 20.6011 32.6969 20.6204C32.6128 20.628 32.5281 20.6298 32.4435 20.6342C32.4386 20.6551 32.4295 20.676 32.4295 20.6968C32.4285 20.9048 32.429 21.1124 32.429 21.3203H31.5822C31.5822 21.1098 31.5825 20.8993 31.5817 20.6888C31.5817 20.6708 31.5731 20.653 31.5689 20.6353C31.4384 20.6264 31.3079 20.6175 31.1778 20.6084C31.0623 20.6003 30.9463 20.5964 30.8317 20.5821C30.6666 20.5615 30.5019 20.5367 30.3382 20.5077C30.1121 20.4678 29.885 20.4308 29.6618 20.3775C29.238 20.2768 28.8215 20.1527 28.4143 19.9977C28.0224 19.8485 27.6415 19.6782 27.271 19.4843C26.9397 19.3109 26.6198 19.1196 26.3112 18.9102C26.0168 18.7103 25.7318 18.499 25.4637 18.2663C25.4095 18.2194 25.353 18.1748 25.2882 18.1213C25.1146 18.2906 24.9461 18.455 24.7792 18.618C24.5912 18.4349 24.4007 18.2494 24.2095 18.0631C24.3638 17.9129 24.5207 17.7597 24.678 17.6071C24.6999 17.586 24.7214 17.5696 24.69 17.5362C24.5877 17.4274 24.4859 17.3178 24.3879 17.2051C24.2662 17.0653 24.1417 16.9271 24.0308 16.7792C23.865 16.5579 23.7026 16.3333 23.5526 16.1019C23.3986 15.8646 23.2558 15.6196 23.1179 15.3728C23.0265 15.2093 22.9469 15.0387 22.8717 14.8673C22.7688 14.6338 22.6694 14.3987 22.5783 14.1608C22.4358 13.7883 22.3241 13.4064 22.2403 13.0172C22.2017 12.8377 22.1615 12.6582 22.1297 12.4777C22.1058 12.3416 22.0932 12.2036 22.0769 12.0661C22.0592 11.9184 22.0383 11.7708 22.0271 11.6226C22.0166 11.4888 22.0174 11.3542 22.0123 11.2198C22.0121 11.2097 22.0043 11.1995 22 11.1893C22 11.002 22 10.8144 22 10.6271C22.0043 10.617 22.0121 10.6071 22.0123 10.5966C22.0174 10.4623 22.0166 10.3277 22.0271 10.1938C22.0386 10.0457 22.0589 9.89802 22.0771 9.75037C22.093 9.62124 22.1072 9.49159 22.1294 9.3635C22.1618 9.17646 22.1921 8.98864 22.2389 8.80473C22.3201 8.48543 22.4058 8.16717 22.5036 7.85231C22.5658 7.6517 22.6453 7.45501 22.7308 7.26249C22.8618 6.96823 22.9938 6.67371 23.1452 6.38911C23.3482 6.00668 23.5778 5.63807 23.843 5.29242C24.0163 5.06678 24.1953 4.84478 24.3753 4.62408C24.4588 4.52156 24.5491 4.42374 24.6415 4.32852C24.6769 4.292 24.6691 4.27348 24.6378 4.24348C24.442 4.05461 24.2475 3.86418 24.0495 3.67114C24.0605 3.65862 24.0704 3.64584 24.0819 3.63462C24.2464 3.47393 24.4125 3.3148 24.5754 3.15254C24.6161 3.1121 24.6429 3.11054 24.6844 3.15149C24.8762 3.34167 25.0704 3.52897 25.2571 3.71079C25.4848 3.5321 25.7112 3.35445 25.937 3.1768C26.2745 2.91124 26.6391 2.68376 27.0131 2.4722C27.4066 2.24942 27.8135 2.05038 28.2405 1.89334C28.4481 1.8169 28.6525 1.73134 28.8636 1.66612C29.1539 1.57664 29.4475 1.49604 29.7433 1.42456C29.9501 1.37447 30.1617 1.34265 30.3722 1.30847C30.5777 1.27508 30.7837 1.24482 30.9905 1.22187C31.137 1.20569 31.2854 1.20491 31.4328 1.19448C31.4791 1.19135 31.5249 1.17961 31.5713 1.17178C31.5753 1.15065 31.5825 1.12926 31.5825 1.10813C31.5839 0.845958 31.5844 0.583788 31.5852 0.321617C31.867 0.321095 32.1485 0.320573 32.4303 0.320312C32.4303 0.588483 32.4298 0.856654 32.4303 1.12482C32.4303 1.14387 32.4395 1.16265 32.4443 1.18169C32.6355 1.19448 32.8284 1.19708 33.0178 1.22239C33.3615 1.26856 33.7038 1.32543 34.0456 1.38282C34.5059 1.46004 34.9508 1.59517 35.3896 1.74725C35.6409 1.83438 35.8862 1.93899 36.1303 2.04464C36.3352 2.13359 36.5374 2.22959 36.7349 2.33316C36.9417 2.44142 37.1471 2.55411 37.3432 2.67933C37.6148 2.85254 37.8806 3.03541 38.1428 3.22219C38.2845 3.32314 38.4139 3.44053 38.5489 3.55088C38.6081 3.59914 38.6665 3.64818 38.7279 3.69905C38.9138 3.51827 39.0965 3.34062 39.2792 3.16297C39.3177 3.12541 39.3569 3.12593 39.3965 3.16454C39.5537 3.31767 39.7096 3.47184 39.8688 3.62288C39.9095 3.66149 39.9162 3.68314 39.8709 3.72566C39.6834 3.90201 39.5004 4.08279 39.314 4.26357C39.3861 4.3447 39.4581 4.42165 39.5253 4.50226C39.7032 4.71513 39.8902 4.92199 40.0533 5.1453C40.2674 5.43851 40.472 5.73955 40.662 6.04789C40.8141 6.29546 40.944 6.55658 41.0739 6.81614C41.2861 7.24005 41.4541 7.68144 41.5864 8.13456C41.67 8.42021 41.7391 8.71003 41.805 9.00012C41.8524 9.20907 41.8875 9.42089 41.9204 9.63272C41.9411 9.76576 41.9507 9.90089 41.9598 10.0352C41.9754 10.2651 41.9869 10.4951 42 10.7252C42 10.8471 42 10.9689 42 11.0904L41.9997 11.0915ZM31.7615 20.0614C31.7815 20.0648 31.8016 20.0713 31.8217 20.0713C31.9401 20.0723 32.0585 20.0723 32.1769 20.0713C32.2013 20.0713 32.2257 20.0648 32.2498 20.0614C32.4143 20.0525 32.5793 20.0462 32.7435 20.0335C32.9082 20.0207 33.073 20.0037 33.2372 19.9836C33.4169 19.9617 33.5983 19.9448 33.7746 19.9067C34.0823 19.8402 34.3885 19.7648 34.6923 19.6831C35.0593 19.5845 35.4153 19.4533 35.763 19.3028C35.9848 19.2065 36.2034 19.1016 36.4172 18.9897C36.6368 18.875 36.8533 18.7529 37.0636 18.6227C37.3882 18.4218 37.7014 18.2045 37.9917 17.9583C38.1838 17.7952 38.3767 17.6327 38.5626 17.4629C38.6973 17.3398 38.8224 17.2062 38.9494 17.075C38.995 17.028 39.0335 16.9745 39.0753 16.9242C39.1292 16.8647 39.1865 16.8078 39.2366 16.7455C39.4094 16.5298 39.5878 16.3177 39.7485 16.0939C40.0016 15.7414 40.2285 15.3715 40.4187 14.9833C40.5591 14.6964 40.6879 14.4032 40.8045 14.1063C40.9071 13.8449 40.9976 13.5778 41.0715 13.3075C41.1503 13.0201 41.2082 12.7271 41.2666 12.4349C41.3046 12.2443 41.3311 12.0509 41.3558 11.8579C41.3748 11.7097 41.3882 11.5605 41.3941 11.4113C41.4026 11.1919 41.4026 10.9723 41.4061 10.7529C41.4026 10.713 41.3975 10.6728 41.3957 10.6329C41.39 10.5105 41.3855 10.3879 41.3804 10.2653C41.3726 10.1594 41.3697 10.0527 41.3558 9.94732C41.3295 9.74828 41.3019 9.54924 41.2657 9.35177C41.2272 9.13968 41.1889 8.92655 41.1313 8.7189C41.049 8.4236 40.9529 8.13169 40.8559 7.84031C40.7461 7.51031 40.6014 7.19388 40.4455 6.8824C40.3785 6.74884 40.3059 6.61789 40.2304 6.48902C40.1283 6.31476 40.0298 6.13737 39.914 5.97198C39.7321 5.71164 39.5444 5.45468 39.3456 5.20634C39.1742 4.99217 38.9941 4.78243 38.7994 4.58861C38.5642 4.35461 38.3119 4.13653 38.0617 3.91714C37.9283 3.80027 37.7879 3.68966 37.6432 3.5861C37.4584 3.45384 37.2698 3.32549 37.0753 3.2068C36.845 3.06645 36.6116 2.92845 36.37 2.80741C36.0882 2.66654 35.7986 2.54002 35.508 2.4169C35.3411 2.3462 35.1659 2.29481 34.9942 2.23481C34.8003 2.17585 34.6085 2.10855 34.4118 2.05977C34.0103 1.95986 33.6055 1.87351 33.1922 1.83282C32.9945 1.81325 32.7971 1.78821 32.5991 1.77177C32.4705 1.76108 32.3406 1.76134 32.2115 1.75664C32.1534 1.75299 32.095 1.74595 32.0368 1.74621C31.9575 1.74673 31.878 1.75273 31.7987 1.75638C31.6404 1.76525 31.4821 1.77282 31.324 1.78325C31.1603 1.79421 30.9959 1.80047 30.8335 1.82238C30.6096 1.85264 30.3854 1.88708 30.1646 1.93481C29.859 2.00107 29.5539 2.07255 29.2536 2.15838C28.7095 2.31359 28.1842 2.51811 27.6857 2.78289C27.4379 2.91463 27.1891 3.04558 26.9504 3.19219C26.6287 3.38967 26.3185 3.60384 26.0308 3.84723C25.8577 3.99357 25.6806 4.13627 25.5143 4.28965C25.2394 4.544 24.9767 4.81034 24.7428 5.10173C24.5904 5.29164 24.4369 5.48103 24.2933 5.6772C23.982 6.10189 23.7131 6.55137 23.4881 7.0251C23.4131 7.18318 23.3338 7.34049 23.2713 7.50353C23.1661 7.779 23.0672 8.05735 22.9767 8.33778C22.9186 8.51752 22.877 8.70247 22.8336 8.88638C22.7916 9.06507 22.7525 9.24455 22.7195 9.42507C22.6954 9.55707 22.682 9.69089 22.6667 9.82419C22.6558 9.91967 22.6472 10.0157 22.6408 10.1114C22.6274 10.3123 22.6161 10.5131 22.6041 10.714C22.6041 10.8434 22.6041 10.9728 22.6041 11.1022C22.6075 11.1844 22.61 11.2668 22.615 11.3487C22.6225 11.4695 22.6282 11.5908 22.6413 11.711C22.6641 11.9195 22.6858 12.1282 22.719 12.3353C22.7557 12.5646 22.7918 12.7952 22.8516 13.0193C22.9378 13.343 23.034 13.6649 23.1462 13.9808C23.2416 14.249 23.3597 14.5099 23.479 14.7692C23.5649 14.9557 23.6654 15.1362 23.7672 15.3154C23.8668 15.491 23.9676 15.6673 24.0833 15.833C24.2652 16.0933 24.4532 16.3505 24.652 16.5992C24.8234 16.8133 25.0048 17.022 25.1985 17.2174C25.4133 17.4342 25.6437 17.6369 25.8732 17.8393C26.019 17.9679 26.1703 18.0916 26.3281 18.2056C26.529 18.3509 26.735 18.4907 26.9461 18.6214C27.1687 18.7591 27.3967 18.8898 27.6286 19.0116C27.8261 19.1155 28.0302 19.2083 28.2362 19.2955C28.4583 19.3896 28.6822 19.4828 28.912 19.5566C29.2284 19.6583 29.5493 19.7473 29.8713 19.8308C30.061 19.8801 30.2554 19.9135 30.4494 19.9448C30.6224 19.9727 30.7971 19.9917 30.9718 20.0079C31.1938 20.0285 31.4164 20.0423 31.639 20.0585C31.6795 20.0614 31.7202 20.0601 31.7607 20.0608L31.7615 20.0614Z" fill="#202020"/>
<path d="M32.43 21.3174C32.43 21.1095 32.4294 20.9019 32.4305 20.694C32.4305 20.6731 32.4396 20.6522 32.4445 20.6313C32.4439 20.8601 32.4434 21.0889 32.4426 21.3174H32.4297H32.43Z" fill="#202020"/>
<path d="M32.4441 1.18169C32.4392 1.16265 32.4301 1.14387 32.4301 1.12482C32.4293 0.856654 32.4298 0.588483 32.4301 0.320312C32.4341 0.341182 32.4419 0.362051 32.4419 0.383181C32.4433 0.649526 32.4438 0.915609 32.4443 1.18195L32.4441 1.18169Z" fill="#202020"/>
<path d="M31.7578 20.0632H32.2462C32.2218 20.0667 32.1977 20.0734 32.1733 20.0734C32.0549 20.0745 31.9365 20.0745 31.8181 20.0734C31.798 20.0734 31.7779 20.0667 31.7578 20.0632Z" fill="#202020"/>
<path d="M32.2097 1.75519H31.7969C31.8762 1.75116 31.9557 1.74499 32.035 1.74445C32.0931 1.74418 32.1515 1.75116 32.2097 1.75519Z" fill="#202020"/>
<path d="M22.6016 10.717C22.6051 10.7672 22.612 10.8173 22.6115 10.8675C22.6107 10.9462 22.6051 11.025 22.6016 11.1037C22.6016 10.9748 22.6016 10.8459 22.6016 10.717Z" fill="#202020"/>
<path d="M30.6875 16.5766C30.7947 16.5708 30.875 16.5085 30.9583 16.4537C31.1617 16.3196 31.365 16.1853 31.5656 16.0475C31.6736 15.9734 31.7269 15.8652 31.7411 15.7381C31.7446 15.6591 31.7505 15.58 31.751 15.501C31.7515 15.4507 31.7446 15.4003 31.7411 15.3502C31.7296 15.2279 31.6559 15.1303 31.6026 15.0247C31.579 14.9777 31.549 14.9341 31.5265 14.8867C31.474 14.7761 31.3786 14.7093 31.2785 14.6454C31.1263 14.5483 30.9709 14.4554 30.8257 14.3493C30.6098 14.1914 30.5581 14.0044 30.6425 13.7537C30.7178 13.5296 30.8091 13.3105 30.8919 13.0888C30.9795 12.8537 31.0642 12.6176 31.1523 12.3829C31.1852 12.2952 31.2924 12.2603 31.3947 12.2882C31.4687 12.3085 31.5252 12.423 31.4965 12.4984C31.369 12.8344 31.2466 13.172 31.1201 13.5082C31.1065 13.5442 31.1081 13.5609 31.1448 13.581C31.3478 13.6922 31.5466 13.8114 31.7523 13.9173C31.8686 13.9773 31.9953 13.9679 32.1118 13.9061C32.2747 13.8195 32.4346 13.7279 32.5964 13.6392C32.6449 13.6126 32.6955 13.5902 32.7435 13.5628C32.773 13.5461 32.7858 13.5244 32.7711 13.4858C32.6819 13.2534 32.5956 13.0199 32.5091 12.7867C32.4729 12.6889 32.437 12.591 32.4027 12.4924C32.3746 12.4118 32.4151 12.3242 32.493 12.2905C32.5817 12.2524 32.6904 12.2793 32.7261 12.3586C32.7762 12.4703 32.8169 12.5856 32.86 12.7001C32.994 13.0549 33.1279 13.4096 33.26 13.7652C33.3315 13.9577 33.2969 14.1375 33.1549 14.2841C33.0797 14.3618 32.976 14.4137 32.8836 14.475C32.7606 14.5567 32.6347 14.6341 32.5128 14.7171C32.4148 14.7839 32.3709 14.8914 32.3176 14.9892C32.2629 15.0896 32.2184 15.195 32.171 15.2991C32.1665 15.3093 32.1724 15.3239 32.1734 15.3364C32.1697 15.4449 32.1651 15.5532 32.163 15.6617C32.1625 15.6914 32.1697 15.7212 32.1734 15.7509C32.1587 15.8373 32.1954 15.9119 32.2538 15.9656C32.3363 16.0418 32.4311 16.1062 32.5246 16.1704C32.6974 16.2886 32.8707 16.4057 33.0486 16.5163C33.1 16.5484 33.167 16.557 33.2267 16.5763C33.2428 16.5797 33.2586 16.5862 33.2747 16.5862C33.4903 16.5865 33.7057 16.5862 33.9213 16.5857C34.0253 16.6039 34.0732 16.6532 34.0738 16.7412C34.0743 16.8468 34.0277 16.9079 33.9337 16.9256C33.7068 16.9251 33.4801 16.9245 33.2533 16.9245C33.2399 16.9245 33.2265 16.9313 33.2131 16.935C33.0406 16.9245 32.8935 16.852 32.755 16.7576C32.5975 16.6501 32.4384 16.545 32.2814 16.4367C32.1732 16.3621 32.0518 16.3029 31.976 16.1897C31.9707 16.1816 31.9315 16.1813 31.9257 16.1894C31.8343 16.3167 31.6955 16.3864 31.5691 16.4709C31.3953 16.587 31.2217 16.7031 31.0465 16.8171C30.9508 16.8792 30.8469 16.9214 30.7296 16.9245C30.7157 16.9248 30.702 16.9313 30.6883 16.935C30.6768 16.9313 30.6656 16.9245 30.654 16.9245C30.4365 16.924 30.219 16.924 30.0018 16.9245C29.9902 16.9245 29.979 16.9313 29.9675 16.935C29.904 16.9097 29.8477 16.8739 29.8284 16.8066C29.7968 16.6955 29.8595 16.6073 29.9798 16.5859C30.1995 16.5862 30.4194 16.5867 30.639 16.5865C30.6551 16.5865 30.6712 16.5797 30.6873 16.5763L30.6875 16.5766ZM32.9117 13.8729C32.8672 13.8967 32.8276 13.9175 32.7882 13.9395C32.627 14.0284 32.4665 14.1194 32.3042 14.2066C32.0631 14.336 31.8153 14.3498 31.5696 14.2246C31.4054 14.1408 31.2487 14.0428 31.088 13.9522C31.0521 13.9321 31.0138 13.9162 30.9779 13.899C30.9439 13.9856 30.9948 14.0336 31.0505 14.072C31.1957 14.1719 31.3425 14.27 31.4925 14.3626C31.6286 14.4466 31.7494 14.5413 31.822 14.6866C31.8587 14.7604 31.905 14.8295 31.9516 14.908C31.9945 14.8295 32.0264 14.7523 32.0749 14.6866C32.1365 14.6031 32.2005 14.5149 32.283 14.4539C32.4689 14.3164 32.6669 14.1943 32.8597 14.0657C32.9331 14.0169 32.9503 13.9575 32.9117 13.8729Z" fill="#202020"/>
<path d="M36.3013 3.97164C36.2379 4.07259 36.1776 4.17563 36.1098 4.27372C35.8792 4.60815 35.6461 4.94102 35.4136 5.2744C35.2031 5.57622 34.9928 5.87779 34.7817 6.17909C34.7069 6.28552 34.6303 6.39065 34.55 6.50282C34.7503 6.69169 34.9491 6.87899 35.1473 7.06655C35.2055 7.1216 35.2655 7.1756 35.3188 7.23507C35.3525 7.27264 35.39 7.2729 35.4329 7.26768C35.5944 7.2476 35.7554 7.21968 35.9175 7.20925C36.105 7.19751 36.2405 7.28673 36.3383 7.44168C36.4666 7.64568 36.6035 7.84446 36.7318 8.04845C36.7958 8.15019 36.8899 8.23863 36.9033 8.36463C36.9105 8.43219 36.9199 8.5068 36.8987 8.56888C36.817 8.81018 36.7241 9.04783 36.6346 9.28653C36.6124 9.34574 36.6185 9.35174 36.6933 9.3687C36.8781 9.41044 37.0621 9.45609 37.247 9.49809C37.5365 9.56383 37.8266 9.62748 38.1162 9.69322C38.3011 9.73522 38.4854 9.78035 38.6702 9.82235C38.9598 9.88808 39.2496 9.95252 39.5392 10.0177C39.567 10.024 39.5941 10.0329 39.6214 10.0404C39.7961 10.0803 39.971 10.1203 40.1457 10.1602C40.1778 10.1675 40.2113 10.1709 40.2418 10.1823C40.3316 10.2157 40.3688 10.3031 40.3506 10.3775C40.3321 10.4523 40.2761 10.5293 40.1818 10.5157C40.049 10.4967 39.9169 10.4703 39.7859 10.4411C39.4781 10.3725 39.1711 10.3008 38.8639 10.2298C38.619 10.1732 38.3745 10.1145 38.1293 10.059C37.7672 9.9773 37.4045 9.89826 37.0423 9.81687C36.8454 9.77252 36.6469 9.73261 36.453 9.67757C36.3059 9.63583 36.1888 9.46992 36.2563 9.28887C36.3525 9.0314 36.4436 8.77184 36.5406 8.51462C36.5585 8.46741 36.5542 8.42828 36.5288 8.38967C36.3547 8.12541 36.1805 7.86141 36.0032 7.59924C35.9885 7.57733 35.9491 7.55672 35.9234 7.55881C35.8114 7.56872 35.7008 7.59037 35.5891 7.60185C35.4324 7.61776 35.2722 7.64985 35.1313 7.54394C35.1213 7.53637 35.1109 7.52933 35.1021 7.52072C34.8221 7.25281 34.5422 6.98516 34.2631 6.71621C34.1658 6.6223 34.1522 6.45456 34.2299 6.34161C34.4369 6.04057 34.6432 5.739 34.8519 5.43875C35.0595 5.14006 35.2695 4.84293 35.4782 4.54502C35.6461 4.30528 35.8133 4.06529 35.9815 3.82581C36.0139 3.77964 36.1098 3.75564 36.1787 3.7739C36.247 3.7919 36.2947 3.84746 36.2989 3.91503C36.3003 3.93381 36.3005 3.95233 36.3011 3.97111L36.3013 3.97164Z" fill="#202020"/>
<path d="M27.364 9.37674C27.2726 9.13205 27.1813 8.89206 27.0939 8.65049C27.0417 8.50597 27.0462 8.36354 27.1344 8.23076C27.3157 7.95711 27.496 7.68242 27.6803 7.4106C27.758 7.29581 27.8697 7.22408 28.0154 7.23268C28.174 7.24208 28.3318 7.26373 28.4898 7.28094C28.5718 7.28981 28.6393 7.28381 28.7066 7.21625C28.9396 6.98251 29.1826 6.75791 29.4271 6.52495C29.3401 6.39922 29.2538 6.27478 29.1676 6.15061C29.0007 5.91035 28.8343 5.6701 28.6672 5.4301C28.4572 5.12828 28.2469 4.82645 28.0358 4.52541C27.9294 4.37385 27.8193 4.2249 27.7146 4.07255C27.6442 3.97003 27.6589 3.81768 27.8338 3.78612C27.904 3.77334 27.9699 3.80516 28.0122 3.86647C28.1842 4.11507 28.3548 4.36472 28.5273 4.61306C28.736 4.91332 28.946 5.2128 29.1558 5.51253C29.3505 5.79062 29.5458 6.06818 29.7403 6.34652C29.8322 6.478 29.811 6.6413 29.7073 6.74773C29.5839 6.87451 29.455 6.9966 29.327 7.11921C29.1844 7.2559 29.0411 7.39207 28.8959 7.52616C28.8282 7.58877 28.7473 7.62268 28.6516 7.63259C28.4998 7.64824 28.354 7.61277 28.2062 7.59424C28.1646 7.58903 28.122 7.58877 28.0813 7.58042C28.0055 7.56503 27.9704 7.61172 27.9367 7.66337C27.7741 7.91276 27.6104 8.16163 27.4505 8.41258C27.4336 8.43893 27.4264 8.48276 27.4363 8.51145C27.5282 8.7791 27.6184 9.04727 27.7218 9.31075C27.7877 9.47874 27.6503 9.67335 27.4899 9.70622C27.2375 9.75813 26.9876 9.82074 26.7363 9.87709C26.376 9.95795 26.0155 10.0365 25.6552 10.1171C25.3656 10.182 25.0763 10.2491 24.7867 10.3143C24.4851 10.3821 24.1832 10.4499 23.881 10.5159C23.7899 10.536 23.7176 10.5032 23.6664 10.4254C23.6397 10.3847 23.6413 10.2736 23.6814 10.2366C23.7155 10.2053 23.7623 10.1797 23.8079 10.1687C24.1007 10.0991 24.3945 10.0339 24.6879 9.96761C24.9654 9.905 25.2429 9.84265 25.5207 9.78056C25.8365 9.70987 26.1526 9.6397 26.4684 9.569C26.7481 9.50639 27.0275 9.44326 27.3074 9.38066C27.3235 9.37701 27.3406 9.37831 27.3634 9.377L27.364 9.37674Z" fill="#202020"/>
<path d="M39.5209 12.5981C39.6765 12.6759 39.8311 12.7554 39.988 12.8303C40.0646 12.8668 40.0984 12.9281 40.0968 13.0035C40.0952 13.0802 40.0494 13.1347 39.973 13.1624C39.9007 13.1887 39.8396 13.1582 39.7783 13.1277C39.5597 13.0189 39.3411 12.9099 39.1222 12.8016C38.8721 12.6777 38.6216 12.5551 38.3714 12.4309C38.1415 12.3169 37.9125 12.2013 37.6827 12.0873C37.4419 11.9679 37.2002 11.8502 36.9594 11.7305C36.8863 11.6942 36.815 11.6541 36.7306 11.6092C36.7089 11.689 36.6902 11.7592 36.6704 11.8291C36.6205 12.0049 36.5694 12.1805 36.5201 12.3563C36.4925 12.4549 36.5276 12.53 36.6216 12.6036C36.7132 12.6751 36.8014 12.7513 36.8898 12.8264C37.0625 12.973 37.2348 13.1204 37.407 13.2678C37.4861 13.3356 37.564 13.4045 37.643 13.4723C37.8169 13.6212 37.9913 13.7692 38.1646 13.9184C38.2546 13.9958 38.3422 14.0762 38.4327 14.1534C38.5937 14.2909 38.7569 14.4265 38.9179 14.5643C39.0097 14.6428 39.1046 14.7195 39.1887 14.8053C39.2889 14.9076 39.2557 15.0158 39.1568 15.0915C39.1089 15.1283 38.9947 15.109 38.942 15.0625C38.8873 15.0143 38.8321 14.9665 38.7772 14.9185C38.6888 14.8437 38.6004 14.7688 38.5123 14.6937C38.3382 14.5452 38.1638 14.3971 37.9907 14.2478C37.863 14.1375 37.7373 14.0245 37.6093 13.9147C37.4469 13.7754 37.2822 13.6385 37.1196 13.4994C36.9977 13.3951 36.8777 13.2886 36.7564 13.1838C36.6163 13.063 36.4735 12.9448 36.335 12.8222C36.159 12.6662 36.1121 12.4745 36.1751 12.2525C36.2493 11.9895 36.3149 11.7242 36.3928 11.4623C36.4437 11.2917 36.638 11.179 36.8319 11.2719C37.1911 11.4438 37.5477 11.6214 37.9047 11.7973C38.1314 11.9089 38.3569 12.0221 38.5833 12.1343C38.8225 12.2527 39.0617 12.3707 39.3009 12.4888C39.3743 12.5251 39.4475 12.5616 39.5206 12.5981H39.5209Z" fill="#202020"/>
<path d="M27.2685 11.6227C26.887 11.8101 26.5125 11.9932 26.1388 12.1774C25.9122 12.289 25.6864 12.402 25.46 12.5144C25.2208 12.6331 24.9816 12.7518 24.7427 12.8707C24.5498 12.9667 24.3572 13.0635 24.1641 13.1593C24.0757 13.2031 23.9653 13.1655 23.9219 13.0721C23.8881 12.9999 23.9064 12.8895 24.0025 12.8423C24.3513 12.6717 24.699 12.499 25.047 12.3273C25.2865 12.2094 25.5262 12.092 25.7654 11.9736C26.0028 11.856 26.2396 11.7373 26.4772 11.6196C26.7092 11.5048 26.9414 11.3914 27.1737 11.2771C27.3459 11.1923 27.561 11.2899 27.6063 11.4746C27.6722 11.7435 27.7528 12.0094 27.8281 12.2762C27.8886 12.4909 27.8238 12.7189 27.6285 12.8613C27.5428 12.924 27.4675 13.0001 27.3869 13.0693C27.2146 13.2169 27.0416 13.3632 26.8696 13.5112C26.781 13.5873 26.695 13.6661 26.606 13.742C26.4432 13.8811 26.2789 14.0185 26.1161 14.1573C26.032 14.2291 25.95 14.3031 25.8661 14.3751C25.6926 14.5241 25.5179 14.672 25.3443 14.8215C25.2524 14.9005 25.1619 14.9806 25.0719 15.0617C25.0146 15.1134 24.9061 15.1324 24.8512 15.0983C24.7665 15.0453 24.7287 14.9566 24.7716 14.8721C24.7965 14.8225 24.8439 14.7821 24.8871 14.7438C24.9771 14.6639 25.0714 14.5885 25.1632 14.5105C25.3315 14.3681 25.4997 14.2254 25.6671 14.0822C25.7496 14.0118 25.8303 13.9392 25.9125 13.8688C26.0877 13.7183 26.2637 13.5686 26.4389 13.4183C26.5163 13.3518 26.5929 13.2845 26.6706 13.2179C26.846 13.0677 27.0218 12.9177 27.197 12.7674C27.276 12.6996 27.3561 12.6326 27.4327 12.5621C27.489 12.5102 27.4997 12.4458 27.4788 12.3722C27.4161 12.1497 27.3569 11.9261 27.2961 11.7034C27.2888 11.6773 27.2787 11.6517 27.2688 11.6235L27.2685 11.6227Z" fill="#202020"/>
<path d="M28.4338 14.2561C28.3345 14.433 28.238 14.6052 28.1408 14.7768C27.9793 15.0617 27.8164 15.3455 27.6554 15.6306C27.549 15.8187 27.4462 16.0086 27.3401 16.197C27.1759 16.4891 27.0109 16.7813 26.8448 17.0727C26.8044 17.1436 26.7028 17.1911 26.6126 17.1413C26.5244 17.0928 26.4805 16.9892 26.526 16.9081C26.6592 16.6699 26.796 16.4341 26.93 16.1964C27.0154 16.0451 27.0969 15.8917 27.1823 15.7407C27.3425 15.4574 27.5049 15.1754 27.6648 14.8921C27.7733 14.7004 27.8775 14.5065 27.9873 14.3156C28.0527 14.2019 28.1151 14.0845 28.196 13.9817C28.3042 13.8442 28.5373 13.8619 28.6599 13.9749C28.811 14.1139 28.957 14.2587 29.1153 14.3897C29.2407 14.4932 29.32 14.62 29.3412 14.7721C29.3545 14.8686 29.3363 14.9722 29.3162 15.0695C29.2627 15.3278 29.2011 15.5845 29.1416 15.8414C29.0977 16.0316 29.0508 16.2212 29.0071 16.4117C28.9484 16.6668 28.8922 16.9227 28.8338 17.1778C28.7901 17.368 28.7443 17.5579 28.699 17.7478C28.668 17.8788 28.639 18.0105 28.6034 18.1404C28.5772 18.2362 28.4839 18.2917 28.402 18.2693C28.2932 18.2395 28.2356 18.1428 28.2597 18.0395C28.3326 17.7277 28.4028 17.4155 28.4751 17.1035C28.5193 16.9133 28.567 16.7239 28.6106 16.5337C28.6693 16.2784 28.7245 16.0224 28.7829 15.7671C28.8266 15.5769 28.8737 15.3872 28.9184 15.1973C28.942 15.0974 28.9715 14.998 28.9851 14.8965C28.9975 14.8068 28.9632 14.7301 28.8871 14.6685C28.8008 14.5989 28.7232 14.5188 28.6412 14.4439C28.5737 14.3821 28.5054 14.3213 28.4336 14.2566L28.4338 14.2561Z" fill="#202020"/>
<path d="M34.6654 14.8632C34.6529 14.6957 34.7276 14.5593 34.8388 14.4461C34.9582 14.3248 35.094 14.2191 35.2224 14.1059C35.2834 14.0519 35.3397 13.9919 35.4045 13.9426C35.5368 13.8424 35.7712 13.8714 35.8634 14.0297C35.9936 14.2533 36.1192 14.4795 36.2462 14.7046C36.4139 15.002 36.581 15.2996 36.7487 15.597C36.8936 15.854 37.0394 16.1107 37.184 16.3676C37.2831 16.5437 37.3804 16.7208 37.4803 16.8964C37.5505 17.0198 37.4439 17.1734 37.3089 17.1601C37.2405 17.1536 37.1915 17.114 37.1602 17.0592C37.0498 16.8664 36.9445 16.6707 36.8353 16.4774C36.6579 16.1644 36.4776 15.8529 36.3008 15.5399C36.1915 15.3466 36.0871 15.1507 35.9786 14.9569C35.8562 14.7382 35.7308 14.5212 35.6084 14.3023C35.5864 14.263 35.5687 14.2692 35.5414 14.2943C35.4088 14.4161 35.2813 14.5439 35.1407 14.6561C35.0228 14.7502 35.0161 14.8567 35.048 14.9871C35.1104 15.2415 35.164 15.4979 35.2226 15.753C35.2663 15.9435 35.3134 16.1328 35.3571 16.3233C35.4158 16.5784 35.472 16.8343 35.5304 17.0894C35.5741 17.2799 35.6204 17.4695 35.6649 17.6597C35.6976 17.799 35.7313 17.938 35.76 18.0781C35.7755 18.1538 35.6906 18.2555 35.606 18.2717C35.5293 18.2863 35.419 18.2172 35.4021 18.1412C35.3159 17.7601 35.2323 17.3785 35.1444 16.9976C35.0793 16.7151 35.0073 16.4344 34.9416 16.1521C34.8538 15.7734 34.7688 15.3941 34.6842 15.0145C34.6732 14.9649 34.6716 14.9133 34.6654 14.8627V14.8632Z" fill="#202020"/>
<path d="M31.5949 6.06807C31.3913 6.05503 31.2844 5.92747 31.2129 5.75999C31.1213 5.54582 31.0313 5.33087 30.9413 5.11617C30.8253 4.84044 30.7112 4.56392 30.5941 4.2887C30.4848 4.03175 30.3718 3.7761 30.2619 3.51941C30.2083 3.39393 30.1601 3.26611 30.1063 3.14063C30.0658 3.04672 30.1307 2.95359 30.1958 2.92594C30.2917 2.88498 30.3943 2.91629 30.4339 3.00629C30.5368 3.23976 30.6353 3.47506 30.7358 3.70958C30.8164 3.89793 30.8981 4.08601 30.9782 4.27462C31.0522 4.44835 31.124 4.62287 31.1976 4.79661C31.2863 5.00557 31.3758 5.21426 31.465 5.42295C31.4998 5.50434 31.5362 5.58495 31.5689 5.66686C31.5839 5.70469 31.6053 5.71825 31.6485 5.71773C31.8386 5.71512 32.0288 5.71512 32.219 5.71773C32.2681 5.71851 32.2876 5.70234 32.3021 5.65695C32.4151 5.30347 32.5314 4.95078 32.6471 4.59809C32.7299 4.34636 32.8143 4.0954 32.8968 3.84341C32.994 3.54576 33.0907 3.24811 33.1853 2.94968C33.2311 2.8049 33.3519 2.77203 33.4724 2.82968C33.5418 2.86281 33.5675 2.95385 33.5381 3.04411C33.4545 3.29976 33.3712 3.55541 33.2871 3.8108C33.1652 4.18071 33.0425 4.55009 32.9209 4.92C32.825 5.21165 32.7296 5.50356 32.6345 5.79547C32.5828 5.95381 32.4336 6.0626 32.2756 6.06833C32.0487 6.06833 31.8215 6.06833 31.5946 6.06833L31.5949 6.06807Z" fill="#202020"/>
<path d="M32.6797 11.1648C32.7191 10.9269 32.8819 10.8192 33.1088 10.779C33.115 10.778 33.122 10.7798 33.1281 10.7782C33.2278 10.7542 33.2237 10.755 33.2023 10.6587C33.1774 10.5463 33.1522 10.4331 33.142 10.3188C33.1252 10.1336 33.2197 9.99458 33.3783 9.90954C33.549 9.81771 33.7308 9.74519 33.9098 9.6685C33.9733 9.64137 34.0791 9.67424 34.112 9.72171C34.1608 9.79163 34.1568 9.89363 34.0962 9.95258C34.0694 9.97867 34.0322 9.99589 33.9974 10.0121C33.8637 10.0741 33.7284 10.1331 33.5945 10.1952C33.4978 10.2401 33.4828 10.2828 33.5128 10.4172C33.5286 10.4879 33.5481 10.5578 33.5629 10.6285C33.5693 10.659 33.5731 10.6668 33.6111 10.6574C33.9829 10.5651 34.3558 10.4774 34.7281 10.3872C34.8302 10.3624 34.9028 10.4081 34.9411 10.5273C34.9615 10.5904 34.9044 10.6974 34.834 10.7164C34.6454 10.767 34.456 10.815 34.2666 10.862C34.0646 10.912 33.8624 10.9598 33.6518 11.0104C33.6607 11.061 33.6682 11.1145 33.6799 11.1667C33.6995 11.253 33.7223 11.3386 33.7432 11.4244C33.7595 11.4912 33.8053 11.5287 33.8736 11.5287C34.0381 11.5287 34.2031 11.5238 34.3673 11.53C34.5473 11.5368 34.5921 11.6813 34.5254 11.8034C34.4991 11.8514 34.4525 11.8773 34.3968 11.8778C34.1959 11.8793 33.9947 11.8835 33.7941 11.8765C33.6802 11.8726 33.5915 11.8053 33.5123 11.7288C33.3936 11.6143 33.3799 11.4604 33.3459 11.3143C33.3322 11.2553 33.3226 11.1956 33.3054 11.1377C33.3012 11.1233 33.2725 11.104 33.2578 11.1064C33.2029 11.1145 33.1477 11.1265 33.0962 11.1458C33.0732 11.1544 33.0582 11.1833 33.0394 11.2029C33.0394 11.4119 33.0394 11.6208 33.0394 11.8298C33.0346 11.8426 33.0295 11.8553 33.0247 11.8684C32.9955 11.9451 32.9149 11.9824 32.8131 11.9659C32.7619 11.9579 32.6944 11.883 32.6901 11.8298C32.6907 11.6213 32.6912 11.4132 32.6909 11.2047C32.6909 11.1917 32.684 11.1787 32.6802 11.1656L32.6797 11.1648Z" fill="#202020"/>
<path d="M29.584 11.8736C29.5093 11.846 29.4549 11.799 29.4447 11.7181C29.4326 11.6234 29.4814 11.5509 29.584 11.5238C29.7616 11.5243 29.9392 11.5251 30.1171 11.5248C30.1283 11.5248 30.1396 11.5181 30.1508 11.5144C30.2331 11.5011 30.2432 11.4763 30.2641 11.391C30.2955 11.264 30.3201 11.1354 30.3485 11.0031C30.1457 10.953 29.9392 10.9011 29.7321 10.851C29.5561 10.8082 29.3793 10.7681 29.2031 10.7255C29.104 10.7015 29.0314 10.5891 29.0616 10.4981C29.0938 10.4018 29.179 10.3559 29.2963 10.3854C29.6558 10.4759 30.0163 10.562 30.3766 10.6491C30.3924 10.653 30.4099 10.6496 30.4302 10.6496C30.4525 10.5422 30.4747 10.4357 30.4964 10.3293C30.5092 10.2669 30.4854 10.2257 30.4251 10.1981C30.2665 10.1261 30.1088 10.0517 29.9515 9.97659C29.8773 9.94111 29.8479 9.87877 29.8554 9.80025C29.8618 9.73138 29.8977 9.67581 29.9679 9.66355C30.0193 9.65468 30.0812 9.65729 30.1283 9.67686C30.2949 9.74625 30.457 9.82555 30.6212 9.90068C30.7592 9.96381 30.8186 10.0807 30.8567 10.2158C30.888 10.3267 30.8444 10.4282 30.8264 10.5328C30.816 10.5941 30.7964 10.6538 30.7854 10.7151C30.7838 10.725 30.8042 10.7451 30.8181 10.7498C30.9111 10.7808 31.0094 10.8001 31.098 10.8398C31.2405 10.9035 31.3022 11.0266 31.3185 11.1737C31.3185 11.3829 31.3185 11.5921 31.3185 11.8014C31.3014 11.8927 31.2416 11.9576 31.1701 11.9623C31.0608 11.9694 31.0037 11.9289 30.9598 11.8136C30.9636 11.8006 30.9705 11.7873 30.9705 11.7742C30.9713 11.5916 30.9713 11.4093 30.9705 11.2267C30.9705 11.2134 30.9633 11.2001 30.9595 11.187C30.9271 11.1667 30.8971 11.1401 30.8618 11.127C30.8141 11.1095 30.7627 11.1025 30.7027 11.0887C30.6855 11.1633 30.6694 11.2408 30.6499 11.3172C30.6258 11.4121 30.6089 11.5105 30.5709 11.6C30.5082 11.7479 30.3844 11.8308 30.2245 11.8634C30.2167 11.865 30.2098 11.87 30.2023 11.8734C30.191 11.8697 30.1795 11.8629 30.1682 11.8629C29.985 11.8621 29.8018 11.8621 29.6186 11.8629C29.607 11.8629 29.5958 11.8697 29.5845 11.8734L29.584 11.8736Z" fill="#202020"/>
<path d="M29.8568 13.4882C29.8568 13.6048 29.8611 13.7214 29.8555 13.8378C29.8506 13.9413 29.7831 14.0363 29.6594 14.0287C29.5723 14.0235 29.4979 13.9541 29.4976 13.8686C29.497 13.6416 29.5008 13.4149 29.4954 13.1882C29.4938 13.1259 29.4794 13.057 29.448 13.0038C29.4119 12.9425 29.3535 12.8921 29.2991 12.8431C29.2158 12.7685 29.1263 12.7004 29.0417 12.6274C28.9404 12.54 28.844 12.4476 28.7414 12.3618C28.6246 12.2642 28.5734 12.1346 28.5356 11.9958C28.4681 11.7477 28.3993 11.5001 28.3302 11.2523C28.2935 11.1208 28.253 10.9904 28.2174 10.8587C28.1914 10.7622 28.2458 10.6753 28.3452 10.6469C28.4405 10.6195 28.5362 10.6675 28.5643 10.764C28.6337 11.0032 28.6998 11.2432 28.7671 11.4829C28.8153 11.6551 28.8517 11.8314 28.916 11.9979C28.9458 12.0751 29.0248 12.1372 29.0896 12.198C29.1726 12.2757 29.2643 12.3448 29.3516 12.4181C29.4488 12.4995 29.5482 12.5786 29.6414 12.6641C29.7566 12.7698 29.8335 12.8994 29.8429 13.0552C29.8514 13.1992 29.8448 13.3442 29.8448 13.4887C29.849 13.4887 29.8533 13.4887 29.8576 13.4887L29.8568 13.4882Z" fill="#202020"/>
<path d="M34.6054 13.8696C34.5829 13.9095 34.5647 13.9531 34.5366 13.9888C34.4895 14.0486 34.4211 14.0423 34.3582 14.022C34.2805 13.9969 34.2446 13.944 34.2444 13.872C34.2441 13.6035 34.2385 13.3349 34.2465 13.0664C34.251 12.9128 34.3311 12.7847 34.4458 12.6811C34.5304 12.6047 34.6215 12.5353 34.7083 12.4612C34.824 12.3626 34.9352 12.2585 35.0544 12.1643C35.1541 12.0856 35.1878 11.9776 35.2189 11.8662C35.2942 11.5972 35.3684 11.328 35.4436 11.0593C35.4702 10.9646 35.4967 10.8699 35.5269 10.7765C35.5636 10.6636 35.6483 10.6245 35.7721 10.6594C35.846 10.6803 35.8972 10.7841 35.8712 10.8749C35.749 11.3035 35.6261 11.7321 35.5007 12.1596C35.4637 12.2854 35.3611 12.3668 35.2684 12.4518C35.1875 12.5259 35.0991 12.5922 35.015 12.6629C34.9146 12.7471 34.8147 12.8314 34.7158 12.9175C34.6609 12.9652 34.6143 13.0189 34.6054 13.0946C34.6054 13.3531 34.6054 13.6116 34.6054 13.8701V13.8696Z" fill="#202020"/>
<path d="M32.8948 18.842C32.8699 18.9359 32.8273 19.0126 32.7121 19.0163C32.6216 19.0191 32.5337 18.9362 32.5337 18.8485C32.5337 18.5511 32.5394 18.2535 32.5313 17.9561C32.5276 17.8184 32.6631 17.6697 32.8244 17.6543C32.9637 17.641 33.1019 17.6209 33.2409 17.6055C33.3325 17.5953 33.4247 17.5878 33.5166 17.5802C33.5774 17.575 33.6385 17.5734 33.6993 17.5672C33.8798 17.5489 34.0231 17.6639 34.0671 17.8293C34.133 18.0779 34.2029 18.3252 34.2674 18.5741C34.2897 18.6602 34.2037 18.7703 34.1153 18.7684C33.9974 18.7661 33.9358 18.7215 33.9055 18.6093C33.8482 18.3962 33.7831 18.1849 33.7295 17.9707C33.7145 17.9104 33.6805 17.9138 33.6393 17.918C33.5292 17.929 33.4191 17.9415 33.3092 17.9551C33.1748 17.9715 33.0408 17.9895 32.9066 18.0067C32.9021 18.0164 32.8938 18.026 32.8938 18.0357C32.8938 18.3046 32.8946 18.5733 32.8951 18.8423L32.8948 18.842Z" fill="#202020"/>
<path d="M31.4398 18.8513C31.398 18.9715 31.3441 19.0187 31.2458 19.012C31.159 19.006 31.1097 18.9514 31.0816 18.8758C31.0851 18.8646 31.0918 18.8531 31.0918 18.8419C31.0923 18.5766 31.0923 18.311 31.0915 18.0457C31.0915 18.0311 31.0824 18.0165 31.0776 18.0019C30.941 17.9849 30.8046 17.9669 30.668 17.9518C30.5742 17.9414 30.48 17.9348 30.3862 17.926C30.3425 17.9218 30.2991 17.9158 30.2501 17.9101C30.2008 18.0887 30.1529 18.2643 30.1044 18.4399C30.0835 18.5153 30.0639 18.5912 30.0393 18.6653C30.0128 18.7448 29.8654 18.82 29.7666 18.7297C29.6983 18.6676 29.6811 18.6019 29.7063 18.5163C29.7768 18.2755 29.8413 18.0332 29.9129 17.7927C29.9533 17.6562 30.0878 17.5576 30.2303 17.5657C30.3996 17.5754 30.5678 17.5973 30.7369 17.6137C30.8681 17.6265 30.9999 17.6372 31.1309 17.6518C31.3039 17.6711 31.413 17.7569 31.4406 17.95C31.4406 18.2505 31.4406 18.551 31.4406 18.8515L31.4398 18.8513Z" fill="#202020"/>
<path d="M33.6586 15.3622V15.2263C33.492 15.2263 33.328 15.2263 33.1641 15.2263C33.0795 15.2263 33.0004 15.148 32.9927 15.0575C32.9862 14.9837 33.0462 14.902 33.1253 14.8903C33.1957 14.8799 33.2678 14.8786 33.3393 14.877C33.4438 14.8749 33.5482 14.8765 33.6599 14.8765C33.6546 14.8045 33.6538 14.7317 33.7135 14.6834C33.7422 14.6605 33.7834 14.6448 33.8207 14.6409C33.9246 14.6297 33.9803 14.6738 34.0208 14.788C34.0208 15.1968 34.0208 15.6059 34.0208 16.0146C34.001 16.0859 33.9701 16.1435 33.8868 16.1654C33.7794 16.1936 33.6618 16.1156 33.6602 16.0073C33.6589 15.9139 33.6586 15.8203 33.6581 15.7269C33.6484 15.7225 33.6385 15.7144 33.6289 15.7144C33.5279 15.7141 33.4272 15.7152 33.3262 15.7157C33.2479 15.7086 33.1764 15.639 33.1727 15.5667C33.1673 15.459 33.2155 15.393 33.3122 15.3753C33.4111 15.3755 33.5097 15.3766 33.6085 15.3755C33.6254 15.3755 33.6423 15.3666 33.6591 15.3619L33.6586 15.3622Z" fill="#202020"/>
<path d="M30.3261 16.0275C30.2849 16.1481 30.1901 16.2052 30.0883 16.1619C30.0309 16.1376 29.9849 16.0941 29.9766 16.0265C29.9766 15.6099 29.9766 15.193 29.9766 14.7764C29.994 14.6896 30.0676 14.635 30.1614 14.6395C30.2736 14.6447 30.3138 14.7005 30.3288 14.8769C30.4855 14.8769 30.6425 14.8766 30.7998 14.8769C30.8868 14.8769 30.9658 14.9322 30.9894 15.0081C31.0082 15.0683 30.9658 15.1693 30.9015 15.2063C30.8796 15.2189 30.8509 15.2254 30.8249 15.2256C30.661 15.2272 30.4968 15.2264 30.3253 15.2264V15.3621C30.3422 15.3668 30.3591 15.3754 30.376 15.3756C30.4748 15.3767 30.5734 15.3756 30.6722 15.3754C30.759 15.391 30.826 15.4638 30.8241 15.5402C30.822 15.6219 30.7545 15.6994 30.6712 15.7158C30.5605 15.7158 30.4499 15.7153 30.339 15.715C30.3342 15.732 30.3251 15.7487 30.3248 15.7656C30.3237 15.853 30.3248 15.9404 30.3251 16.0278L30.3261 16.0275Z" fill="#202020"/>
<path d="M25.8757 5.36274C25.8685 5.28631 25.9046 5.23231 25.9754 5.20675C26.0469 5.18092 26.1189 5.18718 26.1814 5.23701C26.1846 5.23962 26.187 5.24301 26.1902 5.24614C26.3957 5.44205 26.6009 5.63796 26.8066 5.83361C26.9679 5.987 27.1302 6.1396 27.2912 6.29352C27.3582 6.35743 27.3702 6.44273 27.3265 6.52699C27.2939 6.58986 27.2138 6.62351 27.1262 6.60629C27.1037 6.60186 27.0809 6.58595 27.0638 6.56977C26.8725 6.38951 26.6826 6.20821 26.4921 6.02691C26.3049 5.84874 26.1163 5.67187 25.9314 5.49109C25.899 5.45953 25.8829 5.41231 25.8594 5.3724C25.865 5.36927 25.8704 5.36614 25.876 5.36274H25.8757Z" fill="#202020"/>
<path d="M26.0386 8.16432C25.9261 8.13015 25.8082 8.09571 25.6909 8.05893C25.3351 7.94676 24.9797 7.83328 24.6239 7.72059C24.577 7.70572 24.5277 7.69685 24.4833 7.67754C24.3922 7.63815 24.3456 7.53563 24.3769 7.45503C24.4139 7.36007 24.5117 7.31755 24.618 7.35094C24.8763 7.43207 25.1342 7.51294 25.3922 7.59459C25.6247 7.66815 25.8559 7.74641 26.09 7.81424C26.176 7.83902 26.2156 7.89459 26.2277 7.96658C26.2389 8.03389 26.2014 8.09415 26.1417 8.13223C26.1157 8.14893 26.0804 8.15206 26.038 8.16458L26.0386 8.16432Z" fill="#202020"/>
<path d="M31.0781 18.001C31.083 18.0156 31.0921 18.0303 31.0921 18.0449C31.0929 18.3102 31.0929 18.5757 31.0924 18.841C31.0924 18.8522 31.0856 18.8637 31.0822 18.8749C31.0813 18.6149 31.0805 18.3548 31.0797 18.0947C31.0797 18.0634 31.0787 18.0323 31.0781 18.001Z" fill="#202020"/>
<path d="M33.2109 16.93C33.2243 16.9263 33.2377 16.9193 33.2511 16.9193C33.478 16.9193 33.7046 16.9198 33.9315 16.9204C33.9179 16.9241 33.9042 16.9314 33.8905 16.9314C33.6639 16.9314 33.4373 16.9309 33.2109 16.9303V16.93Z" fill="#202020"/>
<path d="M29.9609 16.9305C29.9725 16.9267 29.9837 16.9197 29.9952 16.9197C30.2127 16.9192 30.4303 16.9192 30.6475 16.9197C30.659 16.9197 30.6703 16.9267 30.6818 16.9305H29.9612H29.9609Z" fill="#202020"/>
<path d="M30.684 16.5705C30.668 16.5743 30.6519 16.581 30.6358 16.581C30.4161 16.5812 30.1962 16.581 29.9766 16.5804C29.9875 16.5764 29.9985 16.5692 30.0095 16.5692C30.2343 16.5692 30.4593 16.57 30.684 16.5705Z" fill="#202020"/>
<path d="M33.9212 16.5804C33.7055 16.5807 33.4902 16.5812 33.2745 16.581C33.2584 16.581 33.2426 16.5743 33.2266 16.5708C33.4492 16.5702 33.672 16.5694 33.8946 16.5692C33.9035 16.5692 33.9123 16.5764 33.9212 16.5804Z" fill="#202020"/>
<path d="M31.5938 6.07123C31.8206 6.07123 32.0478 6.07123 32.2747 6.07123C32.261 6.07472 32.2471 6.08143 32.2334 6.0817C32.0341 6.0825 31.8346 6.0825 31.6353 6.0817C31.6216 6.0817 31.6077 6.07499 31.594 6.07123H31.5938Z" fill="#202020"/>
<path d="M31.3125 11.7874C31.3125 11.5784 31.3125 11.3695 31.3125 11.1606C31.3165 11.1713 31.3238 11.182 31.3238 11.1927C31.3246 11.3802 31.3246 11.5678 31.3238 11.7553C31.3238 11.766 31.3165 11.7767 31.3125 11.7874Z" fill="#202020"/>
<path d="M32.1746 15.7535C32.1708 15.7238 32.1636 15.6941 32.1641 15.6644C32.1662 15.5561 32.1708 15.4477 32.1746 15.3396C32.1746 15.4777 32.1746 15.6154 32.1746 15.7535Z" fill="#202020"/>
<path d="M31.7344 15.3554C31.7379 15.4056 31.7448 15.4557 31.7443 15.5056C31.7435 15.5844 31.7379 15.6631 31.7344 15.7418C31.7344 15.6129 31.7344 15.484 31.7344 15.3552V15.3554Z" fill="#202020"/>
<path d="M30.675 15.3766C30.5762 15.3769 30.4773 15.3779 30.3788 15.3769C30.3619 15.3769 30.345 15.3677 30.3281 15.3629C30.4243 15.3635 30.5202 15.3635 30.6164 15.3651C30.6359 15.3653 30.6557 15.3723 30.6753 15.3763L30.675 15.3766Z" fill="#202020"/>
<path d="M33.6672 15.3629C33.6503 15.3677 33.6335 15.3766 33.6166 15.3769C33.5177 15.3779 33.4192 15.3769 33.3203 15.3766C33.3656 15.3726 33.4106 15.3667 33.4561 15.3653C33.5266 15.3629 33.597 15.3637 33.6675 15.3632L33.6672 15.3629Z" fill="#202020"/>
<path d="M30.3429 15.7134C30.3416 15.7176 30.3416 15.7214 30.3429 15.7253C30.3421 15.8062 30.3421 15.8867 30.3403 15.9675C30.3397 15.9868 30.333 16.0057 30.329 16.0247C30.3287 15.9376 30.3274 15.8506 30.3287 15.7635C30.3287 15.7467 30.3378 15.73 30.3429 15.7131V15.7134Z" fill="#202020"/>
<path d="M36.6172 6.38804C36.6381 6.35309 36.6531 6.31239 36.6812 6.28396C36.8103 6.15378 36.9424 6.02596 37.075 5.89892C37.2874 5.69492 37.5006 5.49144 37.7149 5.28901C37.7583 5.24806 37.8025 5.20397 37.855 5.17736C37.9349 5.13719 38.0509 5.17423 38.0897 5.23997C38.131 5.30936 38.1015 5.42884 38.0286 5.49457C37.9432 5.57205 37.858 5.65005 37.7747 5.72962C37.6708 5.82874 37.5695 5.93022 37.4658 6.02961C37.2925 6.19526 37.1181 6.36013 36.9443 6.525C36.8843 6.58187 36.8149 6.60847 36.7356 6.56908C36.6651 6.53413 36.6252 6.477 36.6172 6.38804Z" fill="#202020"/>
<path d="M39.6142 7.49209C39.6136 7.56983 39.5561 7.63713 39.4655 7.66557C39.1896 7.7527 38.914 7.83957 38.638 7.92644C38.4211 7.99478 38.2033 8.06156 37.9868 8.132C37.8992 8.16043 37.7926 8.102 37.765 8.0073C37.7396 7.91965 37.7827 7.8307 37.8751 7.80096C38.2459 7.68148 38.6169 7.56174 38.9882 7.44409C39.121 7.40183 39.2571 7.36844 39.3892 7.32383C39.4861 7.29097 39.6268 7.36975 39.6145 7.49235L39.6142 7.49209Z" fill="#202020"/>
</svg>
